<svg id="Layer_1" data-name="Layer 1" xmlns="http://www.w3.org/2000/svg" viewBox="0 0 181.08 468.22"><defs><style>.cls-1{fill:#db8359;}.cls-2{fill:#cd7553;}.cls-3{fill:#b1a6a4;}.cls-19,.cls-20,.cls-4,.cls-9{fill:none;stroke-linecap:round;stroke-linejoin:round;}.cls-4{stroke:#151724;stroke-width:0.43px;}.cls-5{fill:#f2a083;}.cls-6{fill:#f9bd8e;}.cls-7{fill:#f6dfd4;}.cls-8{fill:#f4aaba;}.cls-9{stroke:#4f6981;stroke-width:0.36px;}.cls-10{fill:#3a3542;}.cls-11{fill:#dc2b2b;}.cls-12{fill:#ea5251;}.cls-13{fill:#fff;}.cls-14{fill:#ed6a4a;}.cls-15{fill:#c6442c;}.cls-16{fill:#f6a208;}.cls-17{fill:#010101;}.cls-18{fill:#6d4921;}.cls-19{stroke:#6d4921;stroke-width:0.47px;}.cls-20{stroke:#f2a083;stroke-width:0.5px;}</style></defs><path class="cls-1" d="M405.89,349.26c-7.46-10.54-9.69-15.14-5.05-33.31,3.06-12,8.7-32.42-5.64-56.82-10.34-17.61-14.3-37-14.3-37l-111.2,5.19a60.71,60.71,0,0,1-2.67,22c-3.95,12.27-24.91,33.08-20.71,54,3.45,17.18-1.31,24.93-6.57,34.5s-11,19.44-5.74,42.16a47.4,47.4,0,0,0,20.69,11.43c-2.18-7.68-2.18-15.4,1.27-21.32,13-24.28,22.56-48.79,16.68-76.7-4.13-20.91,12.65-35.75,29.67-38,23.8-2.89,41.84,12.14,61.31,22.68,6.55,2.76,15.33,5.67,18.2,12.75,5.82,13-7.53,26.95-2.91,41,2.7,9.36,11.08,18,13.71,28.47,3.14,10.53,2.49,21.34-.79,31.76l.3.73a21.07,21.07,0,0,0,19.62-4.51C413.87,386.48,414.16,361,405.89,349.26Z" transform="translate(-231.93 -186.84)"/><path class="cls-2" d="M392.63,360.35c-2.63-10.5-11-19.11-13.71-28.47-4.62-14.07,8.73-28,2.91-41-2.87-7.08-11.65-10-18.2-12.75-19.47-10.54-37.51-25.57-61.31-22.68-17,2.23-33.8,17.07-29.67,38,5.88,27.91-3.72,52.42-16.68,76.7-3.45,5.92-3.45,13.64-1.27,21.32a48.59,48.59,0,0,0,11.35,1.62l4.64-20.18,3.64,20.83s11,7.45,53,1.76,48.58,1.69,52.36-5.11-1.78-33.15-1.78-33.15l13.93,34.91C395.12,381.69,395.77,370.88,392.63,360.35Z" transform="translate(-231.93 -186.84)"/><path class="cls-3" d="M298.92,343.46s-24.15-.47-28.41,20.48-10.88,87.22,0,98.2,38.6,8.6,48.4-2.71S298.92,343.46,298.92,343.46Z" transform="translate(-231.93 -186.84)"/><path class="cls-4" d="M310.34,351.44s-24.15-.43-28.42,18.38-10.88,78.32,0,88.17,38.61,7.73,48.41-2.42S310.34,351.44,310.34,351.44Z" transform="translate(-231.93 -186.84)"/><path class="cls-5" d="M348.66,335.82l.19-11.91-29.31,1.51-.63,11.71A128.31,128.31,0,0,0,348.66,335.82Z" transform="translate(-231.93 -186.84)"/><path class="cls-5" d="M379.74,364.35c-5.92-15.74-15.66-21.79-25.2-20.8-.08.4,6.42,40.11,6.32,40.51,2.3,8,4.63,16.39,6.05,22.19,6.95-.35,13.72-.36,20.51-.59A399.9,399.9,0,0,0,379.74,364.35Z" transform="translate(-231.93 -186.84)"/><path class="cls-6" d="M387.42,405.66c-6.79.23-13.56.24-20.51.59.51,2.09.91,3.85,1.13,5.12,1.77,10,3.76,51.8,3.76,51.8s-7.55,12-5.68,15.3,6-3.87,6-3.87-3.86,17.88-.76,18.06S377.12,479,377.12,479s-1.28,17.42,2.88,16.47c2.43-.66,2-15.54,2-15.54s1.52,14.88,4.13,14.34.55-14.76.55-14.76,2.58,11.59,5.23,10.85.43-17.66-1.08-25.57C390.79,464.78,392,440.4,387.42,405.66Z" transform="translate(-231.93 -186.84)"/><path class="cls-6" d="M370.82,405.42c-2.65-11.07-2.46-22.61-2.44-33.94,0-7.37-.33-14.75-1-22.09a4,4,0,0,1-.2-2.07c-.05-.47-.11-.94-.16-1.41-3.33-1-5.68-1.51-5.68-1.51l-12.74-3.64.08-4.94a128.31,128.31,0,0,1-29.75,1.31l-.19,3.63s-3.92,1.54-7.41,3l-2.09,1c-.94,15.23-2.73,30.46-9.27,44.11l12,30.61-11.21,48.64s24.68,17.28,76.71,4.75l-9.84-45.32Z" transform="translate(-231.93 -186.84)"/><path class="cls-5" d="M375.25,468h-39.8l14,136.69h25.8C377.3,552.06,375.25,468,375.25,468Z" transform="translate(-231.93 -186.84)"/><path class="cls-6" d="M373.18,633.79c.93-7.33,1.59-17.44,2-29.08h-25.8l3.52,34.47c-6.41,19.51,15.65,13.5,15.65,13.5S405,656.39,405,650.45,373.18,633.79,373.18,633.79Z" transform="translate(-231.93 -186.84)"/><path class="cls-7" d="M393.67,640.62c9.75,4.43,12.75,8.68,12.75,8.68s-.49,1.37-14.05,2.86A17.73,17.73,0,0,1,393.67,640.62Z" transform="translate(-231.93 -186.84)"/><path class="cls-8" d="M352.76,637.19C365.47,644,380.6,636,380.6,636a84.5,84.5,0,0,1,13.07,4.59,17.73,17.73,0,0,0-1.3,11.54c-3.49.39-7.85.79-13.29,1.17-26.6,1.87-27.71-5-27.71-5A38.28,38.28,0,0,1,352.76,637.19Z" transform="translate(-231.93 -186.84)"/><path class="cls-7" d="M351.37,648.29a38.49,38.49,0,0,0,.53,4.14s7.67,2.62,28.54,2.62c23.33,0,26.32-3,26.32-3a7.34,7.34,0,0,0-.34-2.78A129.09,129.09,0,0,1,351.37,648.29Z" transform="translate(-231.93 -186.84)"/><path class="cls-9" d="M388.11,638.37a8.5,8.5,0,0,0-3.63,8" transform="translate(-231.93 -186.84)"/><path class="cls-9" d="M383.4,636.82s-3.54,2.12-3.52,8" transform="translate(-231.93 -186.84)"/><path class="cls-9" d="M381.64,638.61s2.91-6.73,0-6.83S381.64,638.61,381.64,638.61Z" transform="translate(-231.93 -186.84)"/><path class="cls-9" d="M381.64,638.68s-4.72-5.61-6.11-3S381.64,638.68,381.64,638.68Z" transform="translate(-231.93 -186.84)"/><path class="cls-5" d="M338.91,468H299.1s-2,84,0,136.69h25.81Z" transform="translate(-231.93 -186.84)"/><path class="cls-6" d="M324.94,604.71H299.13c.46,11.64,1.12,21.75,2.05,29.08,0,0-31.79,10.72-31.79,16.66s36.38,2.23,36.38,2.23,22.06,6,15.65-13.5Z" transform="translate(-231.93 -186.84)"/><path class="cls-10" d="M301.18,437.55s65.76.12,69.28,1.61,19.44,147.9,15.1,154c-6.88,9.63-31.09,3.18-39.13,1.15,0,0-3.1-17.31-3.69-23.14-1.49-14.52-2.67-58.3-2.67-58.3a2.26,2.26,0,0,0-4.51-.05c-3.09,30.5-7.92,78.5-8,82.17,0,0-31.1,1.64-38.05-2.7S301.18,437.55,301.18,437.55Z" transform="translate(-231.93 -186.84)"/><path class="cls-7" d="M280.69,640.62c-9.75,4.43-12.75,8.68-12.75,8.68s.49,1.37,14.05,2.86A17.73,17.73,0,0,0,280.69,640.62Z" transform="translate(-231.93 -186.84)"/><path class="cls-8" d="M321.6,637.19C308.89,644,293.76,636,293.76,636a84.5,84.5,0,0,0-13.07,4.59,17.73,17.73,0,0,1,1.3,11.54c3.49.39,7.84.79,13.29,1.17,26.6,1.87,27.71-5,27.71-5A38.28,38.28,0,0,0,321.6,637.19Z" transform="translate(-231.93 -186.84)"/><path class="cls-7" d="M323,648.29a38.49,38.49,0,0,1-.53,4.14s-7.67,2.62-28.54,2.62c-23.33,0-26.32-3-26.32-3a7.34,7.34,0,0,1,.34-2.78A129.09,129.09,0,0,0,323,648.29Z" transform="translate(-231.93 -186.84)"/><path class="cls-9" d="M286.25,638.37a8.5,8.5,0,0,1,3.63,8" transform="translate(-231.93 -186.84)"/><path class="cls-9" d="M291,636.82s3.54,2.12,3.52,8" transform="translate(-231.93 -186.84)"/><path class="cls-9" d="M292.72,638.61s-2.91-6.73,0-6.83S292.72,638.61,292.72,638.61Z" transform="translate(-231.93 -186.84)"/><path class="cls-9" d="M292.72,638.68s4.72-5.61,6.11-3S292.72,638.68,292.72,638.68Z" transform="translate(-231.93 -186.84)"/><path class="cls-11" d="M373.82,392.18l-.16.62.16-.62-.16.62-.12.48c0-.45-.05-.86-.07-1.23Z" transform="translate(-231.93 -186.84)"/><path class="cls-12" d="M287.07,476" transform="translate(-231.93 -186.84)"/><path class="cls-5" d="M305.28,411.67c-.76-5.93-1.59-14.62-2.31-22.91-5.62-8.09,19.57-48.29,12.65-46.61-1.09.26-19.45.92-25.28,10.51-18.49,30.42-18.64,71.48-13.09,77.83C285.31,428,298.54,416.67,305.28,411.67Z" transform="translate(-231.93 -186.84)"/><path class="cls-13" d="M385.82,382.89c-.35-2.76-.76-5.35-1.23-7.74-31.71,13.65-73.71,7.74-107.13-3.52-1.06,2.36-2,4.71-2.76,7C310,386.71,351,393.31,385.82,382.89Z" transform="translate(-231.93 -186.84)"/><path class="cls-14" d="M274.7,378.62a56.61,56.61,0,0,0-2.83,11.81c36,9.86,76.77,6.4,114.55-1.92-.16-2-.37-3.82-.6-5.62C351,393.31,310,386.71,274.7,378.62Z" transform="translate(-231.93 -186.84)"/><path class="cls-14" d="M384.59,375.15q-.84-4.2-1.89-7.68c-29.84,13-69.6,8.36-100.17-5.39a77.54,77.54,0,0,0-5.07,9.55C310.88,382.89,352.88,388.8,384.59,375.15Z" transform="translate(-231.93 -186.84)"/><path class="cls-13" d="M382.7,367.47a58.66,58.66,0,0,0-3.14-8.31c-28.48,13.66-64.3,13.3-90.12-6.08a57.84,57.84,0,0,0-6.91,9C313.1,375.83,352.86,380.48,382.7,367.47Z" transform="translate(-231.93 -186.84)"/><path class="cls-14" d="M379.56,359.16c-3.38-7.15-7.34-11.06-10.63-13.17-19,18.16-51.7,17.21-70.05-.18a34.69,34.69,0,0,0-9.44,7.27C315.26,372.46,351.08,372.82,379.56,359.16Z" transform="translate(-231.93 -186.84)"/><path class="cls-15" d="M271.87,390.43c-.49,4.55.11,7.74,2,8.35,8,2.58,27.21,1.36,27.21,1.36s40.9,2.55,57.73.29,28.09-3.51,28.09-3.51c-.09-3-.25-5.76-.47-8.41C348.64,396.83,307.91,400.29,271.87,390.43Z" transform="translate(-231.93 -186.84)"/><path class="cls-15" d="M368.93,346a14.62,14.62,0,0,0-6.71-2.53s-9.33,12-28.84,10.12c-16.76-1.58-26.74-10.12-26.74-10.12a22.79,22.79,0,0,0-7.76,2.35C317.23,363.2,350,364.15,368.93,346Z" transform="translate(-231.93 -186.84)"/><path class="cls-6" d="M381.75,239.63s.21,21.44-.69,46.79c-.73,20.53-17.86,40-43,40.75-23.61.68-47.74-9.69-53.88-43s0-60.17,30.26-66.42S374.58,213.86,381.75,239.63Z" transform="translate(-231.93 -186.84)"/><path class="cls-16" d="M347.25,231.37l-.21-.29Z" transform="translate(-231.93 -186.84)"/><path class="cls-6" d="M294.41,298.1l-4.81-19.47s-17.43-7.07-19,11S288,309.35,294.41,298.1Z" transform="translate(-231.93 -186.84)"/><path class="cls-2" d="M302,267.75s-3.85-4.73,4.84-10.16,11.64-4.06,12.91-1.14c1.16,2.66-.92,6.51-5.85,9.44C308,269.39,304.12,270.47,302,267.75Z" transform="translate(-231.93 -186.84)"/><path class="cls-2" d="M372.05,264.81s3.24-5.17-6.06-9.49-12-2.6-12.95.45c-.82,2.79,1.72,6.35,7,8.65C366.32,267.17,370.32,267.76,372.05,264.81Z" transform="translate(-231.93 -186.84)"/><path class="cls-17" d="M317.75,279.2c-.09,2.47-1.81,4.42-3.83,4.34s-3.6-2.13-3.51-4.6,1.8-4.42,3.83-4.35S317.84,276.73,317.75,279.2Z" transform="translate(-231.93 -186.84)"/><path class="cls-17" d="M362.47,279.62c-.09,2.47-1.81,4.42-3.84,4.34s-3.59-2.13-3.5-4.6,1.8-4.42,3.83-4.35S362.56,277.15,362.47,279.62Z" transform="translate(-231.93 -186.84)"/><path class="cls-18" d="M288.18,298.93l-.15,0a.36.36,0,0,1-.16-.49c0-.09,4.23-8.66-1.7-12.93a8,8,0,0,0-6.21-1.71c-3.52.63-5.74,3.89-5.77,3.92a.36.36,0,0,1-.6-.4,10.58,10.58,0,0,1,6.23-4.24,8.77,8.77,0,0,1,6.77,1.84c6.44,4.63,2,13.75,1.93,13.85A.38.38,0,0,1,288.18,298.93Z" transform="translate(-231.93 -186.84)"/><path class="cls-18" d="M279.49,291.5a.39.39,0,0,1-.29-.16.37.37,0,0,1,.1-.51c.06,0,6.31-4.27,10.67.43a.36.36,0,1,1-.53.49c-3.93-4.23-9.67-.36-9.73-.32A.36.36,0,0,1,279.49,291.5Z" transform="translate(-231.93 -186.84)"/><path class="cls-18" d="M340.9,289a.35.35,0,0,1-.32-.22.36.36,0,0,1,.2-.48,9.81,9.81,0,0,0,4.36-3.81c1.09-2,.88-5.08-.42-6.46a2.57,2.57,0,0,0-3.2-.3l-.19.1c-4.56,2.43-6.54,1.19-7.39-.28-1.57-2.69.62-23.46.88-25.82a.36.36,0,0,1,.72.08c-.69,6.35-2.2,23.27-1,25.38,1,1.73,3.16,1.73,6.42,0l.22-.12a3.27,3.27,0,0,1,4,.46c1.53,1.61,1.78,5,.54,7.31a10.33,10.33,0,0,1-4.73,4.13A.4.4,0,0,1,340.9,289Z" transform="translate(-231.93 -186.84)"/><path class="cls-6" d="M373.42,297l.6-20s15.55-10.58,20.9,6.77S382,306.61,373.42,297Z" transform="translate(-231.93 -186.84)"/><path class="cls-18" d="M379.69,296.45a.27.27,0,0,0,.14-.07.36.36,0,0,0,.06-.51c-.06-.07-6-7.57-1.07-13a8,8,0,0,1,5.71-3,10,10,0,0,1,6.46,2.62.37.37,0,1,0,.51-.53,10.62,10.62,0,0,0-7-2.82,8.76,8.76,0,0,0-6.23,3.22c-5.31,5.89,1,13.87,1,13.95A.37.37,0,0,0,379.69,296.45Z" transform="translate(-231.93 -186.84)"/><path class="cls-18" d="M386.62,287.36a.39.39,0,0,0,.25-.22.36.36,0,0,0-.2-.47c-.07,0-7.08-2.85-10.35,2.66a.37.37,0,1,0,.63.37c2.95-5,9.38-2.39,9.44-2.36A.46.46,0,0,0,386.62,287.36Z" transform="translate(-231.93 -186.84)"/><path class="cls-5" d="M320.85,298.21c-.81,3.43-6.67,5-13.08,3.46s-11-5.52-10.16-8.94,6.67-5,13.09-3.47S321.66,294.78,320.85,298.21Z" transform="translate(-231.93 -186.84)"/><path class="cls-5" d="M350.55,298.62c.71,3.45,6.52,5.16,13,3.83s11.11-5.22,10.4-8.67-6.53-5.15-13-3.82S349.83,295.18,350.55,298.62Z" transform="translate(-231.93 -186.84)"/><path class="cls-1" d="M306.43,206.68s-35.54,4.37-40.25,25,4.23,45,16.44,46.28c19.94,2.09,62.8-49.85,62.8-49.85,13.55,22.48,42.39,50.46,48.31,47.45s4.58-46.23-6.35-59.63S338.76,194,306.43,206.68Z" transform="translate(-231.93 -186.84)"/><path class="cls-1" d="M304.24,206.83s-9.36-12.48-4.58-13.54,7.3,10.05,7.3,10.05-.54-19.55,5.42-16.1,2.73,17.42-2.5,19.66" transform="translate(-231.93 -186.84)"/><path class="cls-19" d="M330.35,296.2s1.85,8.5,11,5.46" transform="translate(-231.93 -186.84)"/><path class="cls-8" d="M278.92,259c-4.32-5.4-5.47-.71-5.31,1.83,0,0,.82,15.84,7.86,14.64C287.85,274.36,281.47,262.14,278.92,259Zm1.5,12.69c-4.18.71-4.67-8.7-4.67-8.7-.1-1.51.59-4.3,3.16-1.09C280.42,263.76,284.21,271,280.42,271.66Z" transform="translate(-231.93 -186.84)"/><path class="cls-8" d="M287.62,251.64c-5.66-4-5.46.85-4.59,3.24,0,0,5.2,15,11.63,11.88C300.48,263.94,291,254,287.62,251.64Zm5,11.78c-3.82,1.85-6.91-7.06-6.91-7.06-.52-1.42-.64-4.29,2.72-1.93C290.39,255.82,296.06,261.74,292.6,263.42Z" transform="translate(-231.93 -186.84)"/><path class="cls-10" d="M301.18,437.55s.81-24.37,0-34.1,2.94-59.37,2.94-59.37l7.94-1.53,1.32,29.85s40.53.31,44.21,0l-4.34-30.26,9,1.36s6.22,34,8.6,62c1.3,15.14-1.12,28.4-.36,33.74C372.64,454.38,301.18,437.55,301.18,437.55Z" transform="translate(-231.93 -186.84)"/><path class="cls-4" d="M318.1,382.72l39.19-1.51s6.06,28.23-17,30.6S318.1,382.72,318.1,382.72Z" transform="translate(-231.93 -186.84)"/><path class="cls-8" d="M298.92,343.46s8.27,34.25,7.09,60.83-27.55,47.32-27.55,47.32l3.46,6.38s31.93-12.46,30.13-67.87c-1-29.86-5.41-46.66-5.41-46.66S302.08,341.41,298.92,343.46Z" transform="translate(-231.93 -186.84)"/><path class="cls-6" d="M304.47,382s-.08-8.24-3.32-6.28-2.5,16.12-2.5,16.12-18,17.22-24.4,25.09c-.81,1,.8,27.55,18.23,19.35,6.09-2.87,21.32-36.83,21.32-36.83,1.67-1.86,4.58-2.64,4.55-7.88,0-2.76-1.51-2.84-1.51-2.84s2.78-3.63,1.26-6-3.05,1.2-3.05,1.2,3-5.32,1.16-7.07C313,374,312.27,378,312.27,378s1.16-5.79-1.64-7.14S304.47,382,304.47,382Z" transform="translate(-231.93 -186.84)"/><path class="cls-20" d="M277.73,412.91s11.22-11.6,20.92-21.1" transform="translate(-231.93 -186.84)"/><path class="cls-4" d="M304.15,440.57s45.3-2.95,62.85-1.87" transform="translate(-231.93 -186.84)"/><line class="cls-4" x1="103.52" y1="257.07" x2="106.13" y2="301.41"/><path class="cls-4" d="M338.06,485.22s8.24-1.43,7.5-20.84,0-23.81,0-23.81" transform="translate(-231.93 -186.84)"/><path class="cls-4" d="M358,440.57s4,14,15.46,19.66" transform="translate(-231.93 -186.84)"/><path class="cls-4" d="M300.72,468.06s9.78-5.27,11.41-24.16" transform="translate(-231.93 -186.84)"/><path class="cls-4" d="M319.85,516.6l-1.08.52c2.62.35,5.21-.64,7.66-1.62l25.95-10.33" transform="translate(-231.93 -186.84)"/></svg>