<svg xmlns="http://www.w3.org/2000/svg" viewBox="0 0 154.89 473.81"><defs><style>.cls-1{isolation:isolate;}.cls-2{fill:#0f3553;}.cls-3{fill:#12263b;}.cls-4,.cls-7{fill:#6e7479;}.cls-13,.cls-4{mix-blend-mode:multiply;}.cls-5{fill:#1b1b1b;}.cls-6{fill:none;stroke:#f5a696;stroke-miterlimit:10;}.cls-8{fill:#8f3923;}.cls-9{fill:#cd7052;}.cls-10{fill:#e0836b;}.cls-11{fill:#fbd58b;}.cls-12{fill:#f5a696;}.cls-13{fill:#edd3d1;}.cls-14{fill:#d3cfce;}.cls-15{fill:#f0826c;}.cls-16{fill:#f29384;}.cls-17{fill:#24173c;}</style></defs><g class="cls-1"><g id="Layer_1" data-name="Layer 1"><path class="cls-2" d="M349.63,478.61c-2.9,60.48-14.42,155-14.42,155H310.52q-.87-6.51-1.64-12.94c-3.43-28-5.72-53.34-7.25-75.67-1.65-23.82-2.4-44.16-2.69-60.49-.55-29.52.4-45.92.4-45.92l7.18-.5,42.61-2.92C350.62,443.37,350.57,459.23,349.63,478.61Z" transform="translate(-220.33 -184.19)"/><path class="cls-2" d="M306.3,484.64c-1.05,18.61-2.77,39.88-4.67,60.4-4.3,46.2-9.46,88.61-9.46,88.61H267.48q-.87-6.51-1.64-12.94c-8.58-70.2-10.16-124.08-10.13-154.43,0-17.93.58-27.65.58-27.65l49.81-3.42c.15.87.29,1.86.42,2.92C307.69,447.84,307.39,464.73,306.3,484.64Z" transform="translate(-220.33 -184.19)"/><path class="cls-3" d="M300.64,533.12a.38.38,0,0,1-.39-.36c-1.39-18-2.07-36.2-2-54.24a.39.39,0,0,1,.39-.39h0a.39.39,0,0,1,.38.39c-.06,18,.62,36.25,2,54.18a.4.4,0,0,1-.36.42Z" transform="translate(-220.33 -184.19)"/><path class="cls-4" d="M349.63,478.61c-17.34,4.11-31.59,5.86-43.33,6-2.58.05-5,0-7.36-.09-27.6-1.25-38.92-11.93-43.23-18.27,0-17.93.58-27.65.58-27.65l49.81-3.42c.15.87.29,1.86.42,2.92l42.61-2.92C350.62,443.37,350.57,459.23,349.63,478.61Z" transform="translate(-220.33 -184.19)"/><path class="cls-5" d="M294.77,652.38s1.61-20.82-6.22-21.61-19.07-.87-20.69,1-3.52,10.38-10.3,12-16.69-.34-16.38,5.82c.21,4.31,1.35,7.54,6.08,8.25a23.71,23.71,0,0,0,5.52,0c9.36-.75,19-1.48,28.36-1C284.7,656.93,294.63,658,294.77,652.38Z" transform="translate(-220.33 -184.19)"/><path class="cls-5" d="M337.81,652.38s1.61-20.82-6.22-21.61-19.07-.87-20.69,1-3.53,10.38-10.3,12-16.69-.34-16.39,5.82c.22,4.31,1.35,7.54,6.09,8.25a23.62,23.62,0,0,0,5.51,0c9.36-.75,19-1.48,28.37-1C327.74,656.93,337.67,658,337.81,652.38Z" transform="translate(-220.33 -184.19)"/><path class="cls-6" d="M362.29,448.24" transform="translate(-220.33 -184.19)"/><path class="cls-7" d="M321.73,493.46" transform="translate(-220.33 -184.19)"/><path class="cls-8" d="M333,450.51a3.3,3.3,0,0,0-3.93-2.18A102.77,102.77,0,0,1,258.31,439a3.24,3.24,0,0,0-4.38,4.34c-1.69,5.5,0,11.34,3.67,15.91,4.48,5.57,11.61,8.16,18.47,9.65a162.06,162.06,0,0,0,24.61,3.6c7.72.45,16.16.14,23.25-3.22C330.8,466.07,336.11,458,333,450.51Z" transform="translate(-220.33 -184.19)"/><path class="cls-9" d="M369.2,343.43c-6.86-18.73-15.92-39.46-32.88-51.17-10.85-7.47-23.38-10.66-36.26-11.94a228.8,228.8,0,0,0-26.91-.69,26.87,26.87,0,0,0-4.47-.25c-10.55.33-20.41,7.21-26.71,16.38-5,7.28-8.23,15.82-11.53,24-4.17,10.35-7.89,20.93-9.45,32-2.86,20.41,4,38.29,13.28,56.09,7.7,14.74,13.86,34.29,27.27,44.93,12.66,10,35.07,13.71,50.76,11.32,6.95-1.05,13.56-4.19,18-9.8a20.71,20.71,0,0,0,2.72-4.54c.55-1.23.78-4.47,1.53-5.29,2.69-3,8.89.23,12.69-.16,19.44-1.94,23-25.22,25.6-40.43C376.42,383,376.56,363.52,369.2,343.43Z" transform="translate(-220.33 -184.19)"/><path class="cls-10" d="M300.06,280.32a228.8,228.8,0,0,0-26.91-.69,26.87,26.87,0,0,0-4.47-.25c-4,5.69-5.12,13.6-4.05,20.12,1.82,11,12.79,18.22,23.62,16.55,9.11-1.41,16.1-9.19,17.2-18.23A23.7,23.7,0,0,0,300.06,280.32Z" transform="translate(-220.33 -184.19)"/><path class="cls-8" d="M284.62,313.92a.38.38,0,0,1-.38-.34,51,51,0,0,1-.39-8.19.39.39,0,0,1,.39-.38h0a.4.4,0,0,1,.38.41,50.61,50.61,0,0,0,.38,8.06.39.39,0,0,1-.34.44Z" transform="translate(-220.33 -184.19)"/><path class="cls-8" d="M278.86,313.4a.39.39,0,0,1-.38-.31,18.73,18.73,0,0,1,.4-9.11.39.39,0,0,1,.75.22,17.81,17.81,0,0,0-.38,8.73.4.4,0,0,1-.31.46Z" transform="translate(-220.33 -184.19)"/><path class="cls-8" d="M271.48,308.5h0a.38.38,0,0,1-.38-.4,12.42,12.42,0,0,1,2.35-6.85.39.39,0,0,1,.55-.09.4.4,0,0,1,.08.55,11.67,11.67,0,0,0-2.2,6.42A.39.39,0,0,1,271.48,308.5Z" transform="translate(-220.33 -184.19)"/><path class="cls-8" d="M267.49,302.86h-.08a.39.39,0,0,1-.3-.46,8.48,8.48,0,0,1,3.36-5.17.38.38,0,0,1,.54.09.39.39,0,0,1-.09.55,7.64,7.64,0,0,0-3.05,4.69A.39.39,0,0,1,267.49,302.86Z" transform="translate(-220.33 -184.19)"/><path class="cls-8" d="M266.05,295a.4.4,0,0,1-.23-.08.39.39,0,0,1-.09-.54,5.48,5.48,0,0,1,3-2.09.38.38,0,0,1,.48.28.39.39,0,0,1-.28.48,4.79,4.79,0,0,0-2.62,1.79A.38.38,0,0,1,266.05,295Z" transform="translate(-220.33 -184.19)"/><path class="cls-8" d="M266.51,289.29a.4.4,0,0,1-.36-.25.39.39,0,0,1,.22-.51,11.69,11.69,0,0,1,2.19-.63.39.39,0,0,1,.46.31.4.4,0,0,1-.32.46,11.08,11.08,0,0,0-2,.59Z" transform="translate(-220.33 -184.19)"/><path class="cls-8" d="M290.45,312.76h0a.38.38,0,0,1-.36-.42,14.11,14.11,0,0,0-1.91-8.15.39.39,0,0,1,.14-.54.4.4,0,0,1,.53.14,14.92,14.92,0,0,1,2,8.61A.39.39,0,0,1,290.45,312.76Z" transform="translate(-220.33 -184.19)"/><path class="cls-8" d="M297.86,307.48a.4.4,0,0,1-.39-.37,8.46,8.46,0,0,0-4.23-6.71.39.39,0,0,1-.16-.53.4.4,0,0,1,.54-.15,9.22,9.22,0,0,1,4.63,7.34.38.38,0,0,1-.36.41Z" transform="translate(-220.33 -184.19)"/><path class="cls-8" d="M301.76,299.87a.39.39,0,0,1-.38-.31,4.76,4.76,0,0,0-4.49-3.62h0a.39.39,0,0,1,0-.78h0a5.55,5.55,0,0,1,5.25,4.23.4.4,0,0,1-.3.47Z" transform="translate(-220.33 -184.19)"/><path class="cls-8" d="M302.41,291.75a.39.39,0,0,1-.3-.13,5.15,5.15,0,0,0-3.33-1.75.41.41,0,0,1-.35-.43.38.38,0,0,1,.43-.35,6,6,0,0,1,3.84,2,.39.39,0,0,1,0,.55A.38.38,0,0,1,302.41,291.75Z" transform="translate(-220.33 -184.19)"/><path class="cls-8" d="M301,286.33a.39.39,0,0,1-.28-.12,3.55,3.55,0,0,0-1.84-1,.4.4,0,0,1-.31-.46.39.39,0,0,1,.45-.31,4.29,4.29,0,0,1,2.25,1.19.38.38,0,0,1,0,.55A.36.36,0,0,1,301,286.33Z" transform="translate(-220.33 -184.19)"/><path class="cls-8" d="M334.66,439.35a.25.25,0,0,1-.12,0,.38.38,0,0,1-.25-.49c13.2-40.44,8.86-86.84-11.62-124.13a.39.39,0,1,1,.68-.37c20.59,37.47,24.95,84.1,11.68,124.74A.38.38,0,0,1,334.66,439.35Z" transform="translate(-220.33 -184.19)"/><path class="cls-8" d="M253,435.27a.38.38,0,0,1-.37-.28,207.43,207.43,0,0,1,1.21-116.4.4.4,0,0,1,.49-.26.39.39,0,0,1,.26.49,206.58,206.58,0,0,0-1.21,116,.4.4,0,0,1-.27.49Z" transform="translate(-220.33 -184.19)"/><path class="cls-8" d="M274.7,425.85a.38.38,0,0,1-.34-.2.39.39,0,0,1,.15-.53A105.53,105.53,0,0,0,313,389a.39.39,0,0,1,.54-.13.4.4,0,0,1,.12.54,106.28,106.28,0,0,1-38.74,36.37A.41.41,0,0,1,274.7,425.85Z" transform="translate(-220.33 -184.19)"/><path class="cls-8" d="M280.56,432.58a.4.4,0,0,1-.37-.26.4.4,0,0,1,.24-.5,53.94,53.94,0,0,0,13.7-7.32.39.39,0,1,1,.47.63,55.27,55.27,0,0,1-13.91,7.43Z" transform="translate(-220.33 -184.19)"/><path class="cls-4" d="M361,460.23a4.31,4.31,0,0,1-2.39,3.81,76.26,76.26,0,0,0-10.45-.5,30.34,30.34,0,0,0-9.69,1.82c-6.08,2.31-9.4,7.15-10.6,13.39-1.25,6.5-1.2,13.31-1.55,19.91q-.56,11-.92,22-.72,22.06-.65,44.14Q324.91,609,328.3,653c.27,3.36-3.14,4.58-5.55,3.52a3.77,3.77,0,0,1-2.25-3.27q-2-25.86-2.87-51.79-1.54-45.86.39-91.74c.33-7.59.7-15.2,1.19-22.8.4-6.44.9-13.27,4.31-18.94a25.25,25.25,0,0,1,15.3-11,38.28,38.28,0,0,1,8.8-1.25c3.12.06,6.25.35,9.36.67C359.09,456.65,360.93,457.89,361,460.23Z" transform="translate(-220.33 -184.19)"/><path class="cls-11" d="M361,460.23a4.31,4.31,0,0,1-2.39,3.81,3,3,0,0,1-1.39.22c-3-.3-6-.62-9.06-.72a33.71,33.71,0,0,0-13.29,1.82c-6.09,2.31-9.39,7.15-10.61,13.39-1.25,6.5-1.2,13.31-1.53,19.91-.39,7.34-.69,14.69-.94,22q-.72,22.06-.65,44.14Q321.3,609,324.71,653a3.43,3.43,0,0,1-2,3.52,4.07,4.07,0,0,1-5.86-3.27q-2-25.86-2.87-51.79-1.54-45.86.39-91.74.49-11.39,1.19-22.8c.4-6.44.92-13.27,4.33-18.94a25.21,25.21,0,0,1,15.28-11,42.29,42.29,0,0,1,12.41-1.25c3.12.06,6.25.35,9.36.67C359.09,456.65,360.93,457.89,361,460.23Z" transform="translate(-220.33 -184.19)"/><path class="cls-12" d="M339.63,440.32a14.39,14.39,0,0,0-8,6.61c-3.31,5.81-8.51,15.62-6.77,17.08,2.5,2.1,4.48-7.65,6-6.66s-.06,8-1.31,12.08-3.36,9.08-2.42,9.67,6.83-7.84,8.65-15.55c0,0-.74,8.62-2.93,12s-3.11,8.07-1.41,8.46,9.24-18.16,9.24-18.16-2.33,8.77-3.31,10.93-2.54,4.48-1.56,5.62,8.21-11.95,9.83-17.79c0,0-3.67,12.48-2.4,13.28s10.78-20.39,9.53-32.53C352,437.71,344.83,438.61,339.63,440.32Z" transform="translate(-220.33 -184.19)"/><path class="cls-12" d="M297.11,269.4c0-.89.05-1.78.14-2.67a1.77,1.77,0,0,0,0-.47c0-.08,0-.16,0-.24a3,3,0,0,0-2.67-3.12,74.79,74.79,0,0,0-11.08-.63c-1.67,0-3.33.13-5,.27s-3.58.15-5.05,1.26c-2.17,1.66-2.42,4.86-2.36,7.9,0,1.31.08,2.57.06,3.68,0,2.52-.11,5.05-.11,7.58,0,1.36,0,2.72.11,4.07a18.57,18.57,0,0,0,3.28,10.14,12.11,12.11,0,0,0,7.32,4.72c6.34,1.15,12-3.27,14.33-10.07a26.84,26.84,0,0,0,1.3-7C297.7,279.73,297,274.52,297.11,269.4Z" transform="translate(-220.33 -184.19)"/><path class="cls-13" d="M297.38,284.81c-2.69,2-13.29,8.4-26.34-1.85,0-2.53.1-5.06.11-7.58,0-1.11-.06-2.37-.06-3.68l.08-.88,25.94-1.42C297,274.52,297.7,279.73,297.38,284.81Z" transform="translate(-220.33 -184.19)"/><path class="cls-14" d="M252,260.73a45.64,45.64,0,0,1-4.73-11.35,128.92,128.92,0,0,1-5.3-35.27c-.07-6.7.75-14.18,5.82-18.56a7.6,7.6,0,0,1,5.35-2.09,4.24,4.24,0,0,1,4,3.67,54.67,54.67,0,0,1,26.06-12.38c4.53-.81,9.4-1,13.49,1.11s7,7,5.46,11.38c3.82-2,8.77-.31,11.64,2.9s4,7.59,4.61,11.86c1.94,14.35-1.76,28.79-5.43,42.8-1.08,4.14-2.28,8.49-5.33,11.49s-7.64,4.19-12,4.88a92.43,92.43,0,0,1-21,.89c-5.21-.38-11.57-.66-15.85-4.05A29.53,29.53,0,0,1,252,260.73Z" transform="translate(-220.33 -184.19)"/><path class="cls-12" d="M313.55,233.71a46.28,46.28,0,0,0-10.75-22.59c-13.26-14.7-45.47-8.61-53.3,10-3.13,7.45-2.44,15.9-1.41,23.74s5.08,14.68,9.82,20.77,9.61,12.95,16.54,16.86a20.2,20.2,0,0,0,16.72,1.09c8.56-3.09,12.12-11.09,15.76-19.05C311.35,254.92,315.5,244.23,313.55,233.71Z" transform="translate(-220.33 -184.19)"/><path class="cls-15" d="M283.62,256.58a1.34,1.34,0,0,1-.84-.29.39.39,0,0,1-.06-.55.4.4,0,0,1,.55-.07.62.62,0,0,0,.65.06,1.33,1.33,0,0,0,.81-.95,4.19,4.19,0,0,0-.61-2.34l-.08-.16a23.23,23.23,0,0,1-1.82-13.82.41.41,0,0,1,.46-.32.39.39,0,0,1,.31.46A22.48,22.48,0,0,0,284.75,252l.07.16a4.77,4.77,0,0,1,.68,2.8,2.12,2.12,0,0,1-1.3,1.55A1.54,1.54,0,0,1,283.62,256.58Z" transform="translate(-220.33 -184.19)"/><path class="cls-16" d="M305.9,246.45a5.52,5.52,0,0,0-3.94-1,5.47,5.47,0,0,0-3.54,1.92,1.68,1.68,0,0,0,.35,2.35,1.7,1.7,0,0,0,2.28-.29l-.05,0a3.65,3.65,0,0,1,.49-.39,4.77,4.77,0,0,1,.52-.22,4.31,4.31,0,0,1,.61-.1,6,6,0,0,1,.61.07l.51.21.15.1a1.68,1.68,0,0,0,2-2.7Z" transform="translate(-220.33 -184.19)"/><path class="cls-16" d="M264.57,247.28a5.73,5.73,0,0,0-8.22.93,1.71,1.71,0,0,0,.35,2.35,1.73,1.73,0,0,0,2.35-.35l.11-.14-.06.06.07-.06,0,0c.05-.06.13-.11.09-.08l.11-.09.27-.2.13-.07.35-.16.08,0a3.82,3.82,0,0,1,.59-.09,5.71,5.71,0,0,1,.71.08l.58.22.09.06.38.29a1.69,1.69,0,0,0,2.35-.35A1.73,1.73,0,0,0,264.57,247.28Z" transform="translate(-220.33 -184.19)"/><path class="cls-16" d="M259.16,250.07a.72.72,0,0,0,.12-.11s-.08.07-.11.11Z" transform="translate(-220.33 -184.19)"/><path class="cls-15" d="M284.2,269.27a14.19,14.19,0,0,1-8.16-2.6.39.39,0,0,1-.1-.54.4.4,0,0,1,.55-.1,13.39,13.39,0,0,0,7.71,2.46h.07A13.35,13.35,0,0,0,292,266a.39.39,0,0,1,.54.09.4.4,0,0,1-.08.55,14.15,14.15,0,0,1-8.21,2.68Z" transform="translate(-220.33 -184.19)"/><path class="cls-17" d="M274.78,233.64a10.8,10.8,0,0,0-6.45-2.56,10.44,10.44,0,0,0-6,1.62,1.56,1.56,0,0,0-.55,2.08,1.52,1.52,0,0,0,2.07.55,7.47,7.47,0,0,1,8.77.45,1.56,1.56,0,0,0,2.15,0A1.54,1.54,0,0,0,274.78,233.64Z" transform="translate(-220.33 -184.19)"/><path class="cls-17" d="M270.59,237.41a1.55,1.55,0,0,0-.41-1,1.45,1.45,0,0,0-1-.41,1.41,1.41,0,0,0-1,.41,1.46,1.46,0,0,0-.42,1c0,.71.07,1.42.1,2.12a1.51,1.51,0,0,0,.41,1,1.46,1.46,0,0,0,1,.42,1.42,1.42,0,0,0,1-.42,1.44,1.44,0,0,0,.42-1C270.66,238.83,270.62,238.12,270.59,237.41Z" transform="translate(-220.33 -184.19)"/><path class="cls-17" d="M299.81,230.84a12.05,12.05,0,0,0-11.56,2.61,1.54,1.54,0,0,0,0,2.15,1.56,1.56,0,0,0,2.15,0,7.83,7.83,0,0,1,1.9-1.3l.56-.26h0l0,0,.29-.11a13,13,0,0,1,1.26-.36l.61-.11.11,0,.25,0a10.1,10.1,0,0,1,1.23,0c.21,0,.41,0,.62,0l.26,0,.18,0a9.4,9.4,0,0,1,1.27.31,1.52,1.52,0,0,0,.82-2.92Z" transform="translate(-220.33 -184.19)"/><path class="cls-17" d="M294.72,237a1.45,1.45,0,0,0-.41-1,1.43,1.43,0,0,0-1-.41,1.5,1.5,0,0,0-1,.41,1.41,1.41,0,0,0-.41,1l.09,2.13a1.46,1.46,0,0,0,.42,1,1.44,1.44,0,0,0,1,.42,1.46,1.46,0,0,0,1-.42,1.37,1.37,0,0,0,.41-1C294.79,238.41,294.76,237.7,294.72,237Z" transform="translate(-220.33 -184.19)"/><path class="cls-17" d="M308,236.45l-2.77-.12h0a10.17,10.17,0,0,0-20.3-.92,5.29,5.29,0,0,0-6.34.24,10.17,10.17,0,0,0-20.31.7l-2.67.12-7.81.34c.29.27.72.64,1.18,1.13l6.44-.28,2.94-.14a10.16,10.16,0,0,0,20.23-.37.62.62,0,0,0,.22-.1,4.16,4.16,0,0,1,5.7-.53,1.79,1.79,0,0,1,.41.44,10.16,10.16,0,0,0,20.24.54h0l3.16.14,5,.24a6.47,6.47,0,0,1,1.27-1.13Zm-39.55,8.9a9,9,0,1,1,9-9A9,9,0,0,1,268.4,245.35Zm26.6,0a9,9,0,0,1-9-8.44.55.55,0,0,0,0-.22c0-.11,0-.23,0-.34a9,9,0,1,1,9,9Z" transform="translate(-220.33 -184.19)"/><path class="cls-12" d="M253.92,256.82a31.24,31.24,0,0,1-2.58-8.57c-.14-1-.24-2.17-.44-3.37a2.41,2.41,0,0,0,.85-.38,2.56,2.56,0,0,0,.57-3.52c-1.5-2.27-3.46-4.56-6.38-4.78a6.28,6.28,0,0,0-6.28,4.33c-1,2.94-.45,6.23.29,9.17a14.46,14.46,0,0,0,3.81,6.75,13.69,13.69,0,0,0,7.41,3.76A2.53,2.53,0,0,0,253.92,256.82Z" transform="translate(-220.33 -184.19)"/><path class="cls-15" d="M248.5,254.88a2.1,2.1,0,0,1-1.08-.3.39.39,0,1,1,.41-.66,1.33,1.33,0,0,0,1.93-1.56,3.4,3.4,0,0,0-1.46-1.45c-.81-.56-1.66-1.13-1.76-2.17a3.32,3.32,0,0,1,.8-2.17c.13-.19.26-.38.38-.58a3.2,3.2,0,0,0,.3-2.66,2.3,2.3,0,0,0-2-1.54,1.78,1.78,0,0,0-1.81,1.43.38.38,0,0,1-.44.33.39.39,0,0,1-.33-.44,2.6,2.6,0,0,1,2.62-2.1,3.11,3.11,0,0,1,2.67,2.05,4,4,0,0,1-.37,3.32c-.12.21-.26.42-.4.63a2.73,2.73,0,0,0-.68,1.64c.07.69.7,1.12,1.43,1.61a4,4,0,0,1,1.75,1.85,2.12,2.12,0,0,1-.67,2.31A2,2,0,0,1,248.5,254.88Z" transform="translate(-220.33 -184.19)"/><path class="cls-12" d="M309.37,259.82a13.76,13.76,0,0,0,7.72-3.11,14.49,14.49,0,0,0,4.38-6.39c1-2.87,1.83-6.1,1.08-9.11a6.3,6.3,0,0,0-5.89-4.86c-2.92,0-5.08,2.08-6.77,4.21a2.56,2.56,0,0,0,.26,3.55,2.38,2.38,0,0,0,.82.46c-.3,1.18-.5,2.37-.73,3.32a31.11,31.11,0,0,1-3.31,8.31A2.53,2.53,0,0,0,309.37,259.82Z" transform="translate(-220.33 -184.19)"/><path class="cls-15" d="M312.68,254.75a2.1,2.1,0,0,1-1.93-2.94,4,4,0,0,1,1.91-1.69c.77-.43,1.43-.8,1.56-1.48a2.75,2.75,0,0,0-.53-1.69,7.17,7.17,0,0,1-.35-.67,4,4,0,0,1-.08-3.34,3.14,3.14,0,0,1,2.84-1.81,2.58,2.58,0,0,1,2.43,2.32.39.39,0,0,1-.37.41.36.36,0,0,1-.41-.37,1.78,1.78,0,0,0-1.68-1.57,2.26,2.26,0,0,0-2.1,1.35,3.19,3.19,0,0,0,.08,2.68,6.09,6.09,0,0,0,.32.62,3.32,3.32,0,0,1,.61,2.22c-.19,1-1.08,1.53-1.94,2a3.36,3.36,0,0,0-1.58,1.33,1.36,1.36,0,0,0,.3,1.48,1.34,1.34,0,0,0,1.49.23.39.39,0,1,1,.35.7A2.1,2.1,0,0,1,312.68,254.75Z" transform="translate(-220.33 -184.19)"/><path class="cls-14" d="M314.73,236.64a.72.72,0,0,0-.15.11,6.47,6.47,0,0,0-1.27,1.13,13.21,13.21,0,0,0-2.62,5.45,26,26,0,0,1-2.41-5.69,11.59,11.59,0,0,1-.33-1.19c-2.47-9.65-.22-19.56-.22-19.56a46.42,46.42,0,0,1-7.55.72,11.25,11.25,0,0,0,3.79,2.73c-12,1.71-17.6-.89-20.18-3.22a13.27,13.27,0,0,0,4.49,5c-17.77,2.53-21.34-5.22-21.88-6.85h-.1c-1.09,2.73,1.83,6.31,4.38,6.75-10.85,4.25-16-4.2-16-4.2a44.63,44.63,0,0,1,.86,18.64c-.06.41-.12.8-.19,1.19-.87,4.8-2.2,8-2.62,8-.14-3.3-2.27-6.08-3.82-7.69-.46-.49-.89-.86-1.18-1.13s-.46-.36-.46-.36-5.75-39.64,34.93-35.47C320.59,205.2,314.73,236.64,314.73,236.64Z" transform="translate(-220.33 -184.19)"/></g></g></svg>