<svg id="Layer_1" data-name="Layer 1" xmlns="http://www.w3.org/2000/svg" viewBox="0 0 192.31 457.34"><defs><style>.cls-1{fill:#f9bd8e;}.cls-2{fill:#f2a083;}.cls-3{fill:#ee99ac;}.cls-4{fill:#f4aaba;}.cls-5{fill:#ed6a4a;}.cls-10,.cls-6{fill:none;stroke-linecap:round;}.cls-6{stroke:#6d4921;stroke-miterlimit:10;stroke-width:0.44px;}.cls-7{fill:#3a3542;}.cls-8{fill:#b1a6a4;}.cls-9{fill:#eed9cf;}.cls-10{stroke:#010101;stroke-linejoin:round;stroke-width:0.53px;}.cls-11{fill:#56382f;}.cls-12{fill:#6d4921;}.cls-13{fill:#010101;}.cls-14{fill:#45324b;}.cls-15{fill:#f4be54;}</style></defs><path class="cls-1" d="M363.66,409,359,389.28C359.81,393.54,361,399.42,363.66,409Z" transform="translate(-198.54 -192.96)"/><path class="cls-2" d="M326.26,306.22l-28.62,1.47L297.09,318c9.67-.64,19.77-.9,29-2.84Z" transform="translate(-198.54 -192.96)"/><path class="cls-1" d="M386,385.67c-9.3-34.8-18.9-45.89-23.94-51-7.56-7.62-23.67-11-23.67-11L326,322.66l.12-7.48c-9.25,1.94-19.35,2.2-29,2.84l-.25,4.64s-7.32,1.42-10.73,2.26c.1,15.5-6.29,74.1-4.52,89.71L327.51,419l36.15-10c-2.7-9.6-3.85-15.48-4.67-19.74l-2-8.5a55.32,55.32,0,0,1,2,8.5L363.66,409c8.45-1.43,9.9,24.14,18.16,22.41C387.84,424.31,389.08,393.94,386,385.67Z" transform="translate(-198.54 -192.96)"/><path class="cls-1" d="M198.64,362c1.41-2.29,10.92,4.33,10.92,4.33s-10.88-8.84-9.36-11,12.45,7.56,12.45,7.56-10.18-10.37-8.86-12.45c2.36-3.43,13,9.93,13,9.93s-7.24-11.72-4.89-13.64,11.4,13.47,11.4,13.47-1.8-7.85,1.72-6.72,6.12,19.72,6.12,19.72l29.66,16.06a339.48,339.48,0,0,0,3.4-33.79c4.32-28.26,24.79-31.38,24.79-31.38s7.12,2,8.15,1.76c.1,15.5-1.77,28.39,0,44l-7.1-1c.93,11.69,3,55.65-18.68,57-25,1.51-54.67-45.78-54.67-45.78C211.4,377,197.22,364.27,198.64,362Z" transform="translate(-198.54 -192.96)"/><path class="cls-3" d="M232.71,374.11s-9.27,5.42-11.93,12.11a64.38,64.38,0,0,0,2.71,5.9,92.39,92.39,0,0,1,13.06-16.76C235.29,374.9,234,374.47,232.71,374.11Z" transform="translate(-198.54 -192.96)"/><path class="cls-4" d="M263.34,352.86l1.45-1.09-1.45,1.09c-2.48,9-3.71,20.88-2.58,36.43a89.92,89.92,0,0,0-24.21-13.93,92.39,92.39,0,0,0-13.06,16.76c4.47,8.73,14.65,24.79,31.63,31.68,23.91,9.7,26,6.74,28.88-6.55S289,324.12,289,324.12,270.69,326.14,263.34,352.86Z" transform="translate(-198.54 -192.96)"/><path class="cls-1" d="M288,617.8S252.22,631.19,252.44,638s41.49,1.18,41.49,1.18,25.33,6,17.31-15.94l1-26.41c-8.87.35-17.74.75-26.61,1.59C286.34,605.69,287.12,612.29,288,617.8Z" transform="translate(-198.54 -192.96)"/><path class="cls-2" d="M280.21,451.65s.35,93.09,5.43,146.72c8.87-.84,17.74-1.24,26.61-1.59l5.17-134.32Z" transform="translate(-198.54 -192.96)"/><path class="cls-2" d="M372.88,590.6c1.25-31.78,2.84-80.89,3.31-133.94.12-13.58-50-.82-50-.82S336.42,540.62,344.05,595l3.59-.36A141.52,141.52,0,0,0,372.88,590.6Z" transform="translate(-198.54 -192.96)"/><path class="cls-1" d="M347.64,594.59l-3.59.36c1.45,10.36,2.81,19.62,4,27,0,0-34.6,13.08-34.38,19.84S354,643.24,354,643.24s25.33,6,17.31-15.94c0,0,.72-13.89,1.61-36.7A141.52,141.52,0,0,1,347.64,594.59Z" transform="translate(-198.54 -192.96)"/><path class="cls-5" d="M363.66,408.24c1.76,2.88,36.92,17.68,24,163.19-45.53,24.27-124.29,6.1-124.29,6.1-8.47-125.88,16.75-159.14,18.25-163.68C308.18,415.33,337.07,415.69,363.66,408.24Z" transform="translate(-198.54 -192.96)"/><path class="cls-6" d="M221.31,360.14s-10,3.19-9.68,11" transform="translate(-198.54 -192.96)"/><path class="cls-3" d="M259.32,413.24a.32.32,0,0,1-.32-.32c0-9.36,1.43-23.52,1.45-23.66a.3.3,0,0,1,.35-.28.31.31,0,0,1,.28.34c0,.15-1.45,14.27-1.45,23.6A.32.32,0,0,1,259.32,413.24Z" transform="translate(-198.54 -192.96)"/><path class="cls-7" d="M372.17,638.39c-.11,1.47-.28,3-.56,4.67,0,0-8.1,3-30.14,3-24.63,0-27.79-3.36-27.79-3.36a8.73,8.73,0,0,1,.36-3.13C340.17,644.87,361.08,641.35,372.17,638.39Z" transform="translate(-198.54 -192.96)"/><path class="cls-7" d="M352.29,643.44s-3.92-14.19-9.38-19.52c0,0-28.86,7.4-28.87,15.61,0,4.53,8.64,5.54,30.15,4.19Z" transform="translate(-198.54 -192.96)"/><path class="cls-7" d="M312.58,633.92a45.84,45.84,0,0,1-.56,4.67s-9.73,3.61-31.77,3.61c-24.63,0-27.79-3.35-27.79-3.35a8.78,8.78,0,0,1,.36-3.14A133.13,133.13,0,0,0,312.58,633.92Z" transform="translate(-198.54 -192.96)"/><path class="cls-7" d="M291.07,639.63s-3.92-14.19-9.38-19.52c0,0-28.86,7.4-28.87,15.6,0,4.54,8.64,5.54,30.15,4.2Z" transform="translate(-198.54 -192.96)"/><path class="cls-8" d="M341.46,650.3a4.29,4.29,0,0,1-4.27-4L326.42,490a4.86,4.86,0,0,1,0-.54c0-.11.57-12.48-5.91-19-2.91-2.93-6.83-4.22-12-4-4.5.22-7.79,1.7-10.05,4.53-5.57,7-3.38,19.72-3.36,19.85a4.28,4.28,0,0,1-8.43,1.52c-.12-.67-2.91-16.63,5.06-26.68,3.84-4.82,9.34-7.44,16.36-7.78,7.63-.36,13.87,1.83,18.53,6.53,8.59,8.66,8.45,22.89,8.37,25.19l10.75,156.05a4.28,4.28,0,0,1-4,4.57Z" transform="translate(-198.54 -192.96)"/><path class="cls-1" d="M323.13,451.39s-13.78,1.26-15.22,4.66,6.53,2.34,6.53,2.34-10.05,5.07-8.35,7.59,5.17,1,5.17,1-4.09,2-.89,4.62a2.2,2.2,0,0,0,3.28-.43s-2,2.16,0,3.87,3.77-.76,3.77-.76-1.08,1.34,1.07,3,9.41-4.32,14.65-10.17c0,0,27.84-20.32,48.68-35.65,4.81-19.39-6.6-27.29-18.16-23.19C345,424.59,323.13,451.39,323.13,451.39Z" transform="translate(-198.54 -192.96)"/><path class="cls-9" d="M332.3,295.71S325,308,336.54,313.27s28.56-.75,31-10.91-.45-22.3-6.75-21.41S331.75,291.1,332.3,295.71Z" transform="translate(-198.54 -192.96)"/><path class="cls-9" d="M264.63,224.27s-5.87,17.17-9.2,29.13,14.51,37.69,20.75,42.5c9.12,7,89.37,41.58,101.63-30,2.13-12.46,3.9-19.27.12-33.18C373.9,217.9,289.39,210.41,264.63,224.27Z" transform="translate(-198.54 -192.96)"/><path class="cls-1" d="M346.7,289.32l6.52-18.19s17.41-5.05,17.14,12.44S351.71,300.74,346.7,289.32Z" transform="translate(-198.54 -192.96)"/><path class="cls-1" d="M268.78,224.2s-2.31,20.53-3.94,44.92c-1.32,19.74,7.73,39.74,37.19,43.27,30.2,3.63,46.71-4.6,55.88-35.91s5.89-57.67-22.49-66.63S278.18,200.2,268.78,224.2Z" transform="translate(-198.54 -192.96)"/><path class="cls-10" d="M301.43,283.22s6.7,3.16,10.41-3.54" transform="translate(-198.54 -192.96)"/><path class="cls-11" d="M302.66,219.67l.22-.25Z" transform="translate(-198.54 -192.96)"/><path class="cls-9" d="M342.42,259s4.15-4.16-3.65-10.21-10.75-5-12.26-2.36c-1.37,2.43.25,6.33,4.69,9.62C336.52,260,340.15,261.38,342.42,259Z" transform="translate(-198.54 -192.96)"/><path class="cls-9" d="M275.6,249.29s-2.6-5.28,6.74-8.5,11.8-1.31,12.37,1.7c.51,2.75-2.27,5.92-7.53,7.6C280.86,252.12,277,252.29,275.6,249.29Z" transform="translate(-198.54 -192.96)"/><path class="cls-12" d="M352.64,290.22a.22.22,0,0,0,.14,0,.34.34,0,0,0,.21-.45c0-.09-3.21-8.71,2.9-12.23a7.77,7.77,0,0,1,6.12-1,9.65,9.65,0,0,1,5.14,4.33.35.35,0,0,0,.47.14.35.35,0,0,0,.15-.47,10.21,10.21,0,0,0-5.56-4.67,8.43,8.43,0,0,0-6.67,1.1c-6.63,3.81-3.24,13-3.21,13.08A.34.34,0,0,0,352.64,290.22Z" transform="translate(-198.54 -192.96)"/><path class="cls-12" d="M361.7,284a.42.42,0,0,0,.29-.12.36.36,0,0,0,0-.5c-.06,0-5.64-4.71-10.28-.64a.35.35,0,1,0,.47.52c4.18-3.67,9.3.61,9.35.65A.33.33,0,0,0,361.7,284Z" transform="translate(-198.54 -192.96)"/><path class="cls-12" d="M303.08,275.52a.34.34,0,0,0,.34-.18.35.35,0,0,0-.15-.47,9.55,9.55,0,0,1-3.81-4.08c-.84-2-.34-5,1-6.15a2.46,2.46,0,0,1,3.09,0l.18.11c4.14,2.78,6.15,1.79,7.11.46,1.77-2.43,1.71-22.54,1.7-24.83a.38.38,0,0,0-.36-.35.36.36,0,0,0-.35.36c0,6.14-.18,22.51-1.56,24.41-1.13,1.57-3.2,1.36-6.15-.63l-.2-.13a3.14,3.14,0,0,0-3.91.05c-1.62,1.38-2.2,4.63-1.24,6.95a10,10,0,0,0,4.13,4.42A.27.27,0,0,0,303.08,275.52Z" transform="translate(-198.54 -192.96)"/><path class="cls-2" d="M321.4,286.33c.43,3.36,5.9,5.43,12.2,4.6s11-4.21,10.61-7.57-5.9-5.43-12.2-4.61S321,283,321.4,286.33Z" transform="translate(-198.54 -192.96)"/><path class="cls-2" d="M292.89,283.81c-1,3.23-6.76,4.3-12.82,2.39s-10.14-6.09-9.11-9.33,6.76-4.3,12.81-2.38S293.91,280.57,292.89,283.81Z" transform="translate(-198.54 -192.96)"/><path class="cls-9" d="M341.43,205a6.83,6.83,0,0,0,1.31.47c4.6,1.1,32.27,8.43,34.74,26.4,1.76,12.72-3.44,26.78-7.3,35.09a6.85,6.85,0,0,1-10.82,2.23c-5.79-5.3-13.94-15.45-19.66-33.55a6.87,6.87,0,0,0-9.53-4.19c-19.37,9.32-65.44,35.95-69.7,33.3-5.26-3.27-.92-39.62,10.33-51.19S312.54,191,341.43,205Z" transform="translate(-198.54 -192.96)"/><path class="cls-9" d="M348.23,212.53s10.85-9.71,6.66-11.55-8.51,7.86-8.51,7.86,4.05-17.78-2-15.71-5.67,15.44-1.29,18.44" transform="translate(-198.54 -192.96)"/><path class="cls-13" d="M287,268c-.07,2.11-1.54,3.77-3.27,3.71s-3.07-1.83-3-3.94,1.54-3.76,3.27-3.7S287.11,265.92,287,268Z" transform="translate(-198.54 -192.96)"/><path class="cls-13" d="M328.19,272.32c-.08,2.11-1.54,3.77-3.27,3.71s-3.07-1.83-3-3.94,1.54-3.76,3.27-3.7S328.26,270.21,328.19,272.32Z" transform="translate(-198.54 -192.96)"/><path class="cls-14" d="M310.21,268.85a18.62,18.62,0,1,1,17,20.09A18.64,18.64,0,0,1,310.21,268.85Zm1,.08a17.63,17.63,0,1,0,19-16.12A17.66,17.66,0,0,0,311.2,268.93Z" transform="translate(-198.54 -192.96)"/><path class="cls-14" d="M259.48,264.65a18.62,18.62,0,1,1,17,20.09A18.64,18.64,0,0,1,259.48,264.65Zm1,.08a17.63,17.63,0,1,0,19-16.11A17.66,17.66,0,0,0,260.47,264.73Z" transform="translate(-198.54 -192.96)"/><path class="cls-14" d="M296.28,265.59a.45.45,0,0,0,.25,0c7.4-3.55,14.22,1.14,14.29,1.19a.5.5,0,0,0,.69-.12.49.49,0,0,0-.12-.69c-.07-.05-7.37-5.07-15.29-1.27a.5.5,0,0,0-.23.66A.5.5,0,0,0,296.28,265.59Z" transform="translate(-198.54 -192.96)"/><path class="cls-14" d="M373.72,280.61h0a.51.51,0,0,0,.52-.47c.21-4.42-4.3-6.65-4.5-6.74a.34.34,0,0,0-.17,0l-22.72-2a.49.49,0,1,0-.08,1l22.62,2c.56.3,4,2.29,3.86,5.76A.5.5,0,0,0,373.72,280.61Z" transform="translate(-198.54 -192.96)"/><path class="cls-15" d="M358.53,296.31c0,2.71-1.59,4.91-3.55,4.91s-3.54-2.2-3.54-4.91,1.59-4.9,3.54-4.9S358.53,293.61,358.53,296.31Z" transform="translate(-198.54 -192.96)"/><path class="cls-3" d="M304.79,337.49c15.2,2.53,25.4-4.42,33.28-14.37A31.71,31.71,0,0,0,330,323s-10.17,9.44-22.12,9.21S295,323,295,323a23.92,23.92,0,0,0-6.31.59C291.7,330.73,297.32,336.56,304.79,337.49Z" transform="translate(-198.54 -192.96)"/><path class="cls-3" d="M326.6,446c-2.26,3.34-3.47,5.44-3.47,5.44l13.33,13.26a40,40,0,0,0,6.18-2.11A138.16,138.16,0,0,0,326.6,446Z" transform="translate(-198.54 -192.96)"/><path class="cls-4" d="M372.3,348.75c-10.47-19.48-25.21-24.5-34.23-25.63-7.88,9.95-18.08,16.9-33.28,14.37-7.47-.93-13.09-6.76-16.1-13.87a13.17,13.17,0,0,0-5.44,2.47c-5,10.76-13.59,36.78-13.37,59.94s11.71,28.6,11.71,28.6-.86,1.93,27.43,2.63A184.34,184.34,0,0,0,360.56,411c-16.49,11-28.42,26.73-34,34.92a138.16,138.16,0,0,1,16,16.59,38.93,38.93,0,0,0,5.85-3.1c5.86-3.84,40.14-23.46,41.94-37.67S388.4,378.7,372.3,348.75Z" transform="translate(-198.54 -192.96)"/><path class="cls-3" d="M281.59,415l-.12,0c-.42-.16-10.34-4.13-11.91-26.85s4.66-36.56,4.72-36.7a.33.33,0,0,1,.42-.16.33.33,0,0,1,.16.43c-.06.13-6.22,14-4.67,36.39,1.54,22.26,11.41,26.26,11.51,26.29a.33.33,0,0,1,.18.41A.32.32,0,0,1,281.59,415Z" transform="translate(-198.54 -192.96)"/><path class="cls-3" d="M360.56,411.34a.3.3,0,0,1-.25-.12c-.07-.09-7.34-9.27-13.15-30.07s-4.14-29.35-4.07-29.7a.32.32,0,1,1,.62.13c0,.08-1.71,8.78,4.06,29.4s13,29.76,13,29.85a.32.32,0,0,1,0,.44A.31.31,0,0,1,360.56,411.34Z" transform="translate(-198.54 -192.96)"/></svg>