<svg xmlns="http://www.w3.org/2000/svg" viewBox="0 0 247.54 482.56"><defs><style>.cls-1{isolation:isolate;}.cls-2{fill:#0f3553;}.cls-3{fill:#f5a696;}.cls-4{fill:#12263b;}.cls-5{fill:#6e7479;}.cls-13,.cls-5{mix-blend-mode:multiply;}.cls-6{fill:#336987;}.cls-7{fill:#7bc1dd;}.cls-8{fill:#fbd58b;}.cls-9{fill:#f0826c;}.cls-10{fill:#8f3923;}.cls-11{fill:#cd7052;}.cls-12{fill:#fff;}.cls-13{fill:#edd3d1;}.cls-14{fill:#24173c;}.cls-15{fill:#f29384;}.cls-16{fill:#b44949;}.cls-17{fill:#eb5b57;}</style></defs><g class="cls-1"><g id="Layer_1" data-name="Layer 1"><path class="cls-2" d="M333.72,477.59c-.24,2.09-.5,4.23-.77,6.39-6.48,51.38-20.68,120-26.63,147.78-1.68,7.85-2.7,12.42-2.7,12.42L294,643.07q-.86-6.52-1.6-13a1481.19,1481.19,0,0,1-10.28-167.25c0-17.85.34-28.63.38-30.17a1.42,1.42,0,0,0,0-.19l2-.11,50.84-2.85c0,.19.07.36.1.56C337.07,439.87,336.11,457.05,333.72,477.59Z" transform="translate(-173.93 -179.44)"/><path class="cls-2" d="M383.7,473.89a1520.88,1520.88,0,0,1-10.45,156.54q-.72,6.23-1.55,12.53l-10,.38s-1-4.65-2.71-12.61C353.14,603,339.24,535,333,484c-.28-2.22-.55-4.41-.79-6.57-2.35-20.69-3.24-37.94-1.54-47.56l4.87.26,48,2.71S384.05,448,383.7,473.89Z" transform="translate(-173.93 -179.44)"/><path class="cls-3" d="M292.41,630.12q.75,6.43,1.6,13l9.61,1.11s1-4.57,2.7-12.42A28.71,28.71,0,0,1,292.41,630.12Z" transform="translate(-173.93 -179.44)"/><path class="cls-3" d="M359,630.73c1.69,8,2.71,12.61,2.71,12.61l10-.38q.82-6.32,1.55-12.53A21.57,21.57,0,0,1,359,630.73Z" transform="translate(-173.93 -179.44)"/><path class="cls-4" d="M331.88,467a.38.38,0,0,0-.42-.35.39.39,0,0,0-.34.42l1.28,12.68c-.95.3-2,.52-2.61,0a3,3,0,0,1-.72-1.64,56.23,56.23,0,0,1-1.21-10.5.38.38,0,0,0-.38-.39.4.4,0,0,0-.38.4,57,57,0,0,0,1.23,10.66,3.6,3.6,0,0,0,1,2.07,2.29,2.29,0,0,0,1.53.52,5.72,5.72,0,0,0,1.65-.31l.14,1.38a.38.38,0,0,0,.37.35h0a.4.4,0,0,0,.34-.43Z" transform="translate(-173.93 -179.44)"/><path class="cls-4" d="M285,477a.38.38,0,0,1-.31-.16.41.41,0,0,1,.09-.55,23.62,23.62,0,0,0,8.7-13,.38.38,0,0,1,.46-.28.39.39,0,0,1,.27.47,24.32,24.32,0,0,1-9,13.49A.38.38,0,0,1,285,477Z" transform="translate(-173.93 -179.44)"/><path class="cls-4" d="M380.72,476.34a.31.31,0,0,1-.13,0A20.2,20.2,0,0,1,369,464.24a.4.4,0,0,1,.23-.51.39.39,0,0,1,.49.24,19.41,19.41,0,0,0,11.13,11.61.41.41,0,0,1,.22.51A.39.39,0,0,1,380.72,476.34Z" transform="translate(-173.93 -179.44)"/><path class="cls-5" d="M383.7,473.89a145.62,145.62,0,0,1-50,3.7c-.52-.07-1.05-.11-1.56-.18a146.93,146.93,0,0,1-50-14.54c0-17.85.34-28.63.38-30.17l2-.3,50.84-2.85c0,.19.07.36.1.56l48,2.71S384.05,448,383.7,473.89Z" transform="translate(-173.93 -179.44)"/><path class="cls-6" d="M306.76,656.22v0c-.47,1.94-1.2,3.33-2.08,3.49-3.33.56-28.11,3.77-32.48,1.42-2-1.09-2.23-3.14-1.3-5.36a16,16,0,0,1,6.67-7.09c5.67-3.24,15.3-8.09,15.3-8.09s2.38,3,9.36,1.52C307.37,641,308.09,650.77,306.76,656.22Z" transform="translate(-173.93 -179.44)"/><path class="cls-7" d="M305.33,642a.76.76,0,0,0-.93-.54,11.39,11.39,0,0,1-11.29-1.36c-.79-.6-1.55.76-.77,1.35a12.74,12.74,0,0,0,12.46,1.52A.81.81,0,0,0,305.33,642Z" transform="translate(-173.93 -179.44)"/><path class="cls-2" d="M306.76,656.24c-.47,1.94-1.2,3.33-2.08,3.49-3.33.56-28.11,3.77-32.48,1.42-2-1.09-2.23-3.14-1.3-5.36.48,2.41,3.49,3.67,5.73,3.94,3.36.41,6.95-.2,10.31-.45l10.75-.82C300.76,658.23,304.18,658.13,306.76,656.24Z" transform="translate(-173.93 -179.44)"/><path class="cls-7" d="M285.35,649.07a10.25,10.25,0,0,0-4-2.79.75.75,0,0,0-.93.54.81.81,0,0,0,.53,1l.14.05,0,0,.08,0,.11.05.49.25a9,9,0,0,1,.93.58l.19.14.12.09h0c.14.11.28.22.41.34s.54.53.79.81a.75.75,0,0,0,1.08,0A.81.81,0,0,0,285.35,649.07Z" transform="translate(-173.93 -179.44)"/><path class="cls-7" d="M288.33,647.85a10.62,10.62,0,0,0-4.3-3.57.76.76,0,0,0-1,.28.81.81,0,0,0,.27,1.07,9.12,9.12,0,0,1,1.12.58c.19.11.37.24.55.36l.25.18.13.1,0,0h0c.32.28.63.56.93.87l.42.47.21.26,0,.06.08.11a.78.78,0,0,0,1,.28A.79.79,0,0,0,288.33,647.85Z" transform="translate(-173.93 -179.44)"/><path class="cls-7" d="M290.77,646.63a8.94,8.94,0,0,0-4.36-3.9.76.76,0,0,0-.93.55.8.8,0,0,0,.53,1h0l.14.07.27.13c.19.11.38.21.56.33s.36.24.53.37l.05,0,.08.07.26.22a9.57,9.57,0,0,1,.87.93l.09.12,0,0,.18.26c.12.19.24.38.35.58a.75.75,0,0,0,1,.28A.81.81,0,0,0,290.77,646.63Z" transform="translate(-173.93 -179.44)"/><path class="cls-6" d="M358.65,656.22v0c.47,1.94,1.2,3.33,2.08,3.49,3.33.56,28.12,3.77,32.48,1.42,2-1.09,2.24-3.14,1.31-5.36a16,16,0,0,0-6.68-7.09c-5.67-3.24-15.29-8.09-15.29-8.09s-2.39,3-9.37,1.52C358,641,357.33,650.77,358.65,656.22Z" transform="translate(-173.93 -179.44)"/><path class="cls-7" d="M360.08,642a.77.77,0,0,1,.94-.54,11.39,11.39,0,0,0,11.29-1.36c.79-.6,1.55.76.76,1.35a12.74,12.74,0,0,1-12.46,1.52A.83.83,0,0,1,360.08,642Z" transform="translate(-173.93 -179.44)"/><path class="cls-2" d="M358.65,656.24c.47,1.94,1.2,3.33,2.08,3.49,3.33.56,28.12,3.77,32.48,1.42,2-1.09,2.24-3.14,1.31-5.36-.49,2.41-3.5,3.67-5.73,3.94-3.36.41-7-.2-10.31-.45l-10.75-.82C364.66,658.23,361.24,658.13,358.65,656.24Z" transform="translate(-173.93 -179.44)"/><path class="cls-7" d="M380.07,649.07a10.29,10.29,0,0,1,4-2.79.76.76,0,0,1,.94.54.81.81,0,0,1-.53,1l-.14.05-.05,0-.08,0-.11.05-.48.25a9,9,0,0,0-.93.58l-.2.14-.12.09h0l-.41.34c-.28.26-.54.53-.79.81a.74.74,0,0,1-1.07,0A.79.79,0,0,1,380.07,649.07Z" transform="translate(-173.93 -179.44)"/><path class="cls-7" d="M377.08,647.85a10.69,10.69,0,0,1,4.3-3.57.75.75,0,0,1,1,.28.8.8,0,0,1-.27,1.07,9.77,9.77,0,0,0-1.11.58c-.19.11-.38.24-.56.36l-.24.18-.13.1,0,0h0c-.32.28-.64.56-.93.87a6.14,6.14,0,0,0-.42.47,2.39,2.39,0,0,0-.21.26l0,.06-.08.11a.78.78,0,0,1-1,.28A.81.81,0,0,1,377.08,647.85Z" transform="translate(-173.93 -179.44)"/><path class="cls-7" d="M374.64,646.63a8.94,8.94,0,0,1,4.36-3.9.77.77,0,0,1,.94.55.81.81,0,0,1-.53,1h-.05l-.14.07-.27.13-.56.33-.52.37-.05,0-.09.07-.25.22a7.61,7.61,0,0,0-.87.93l-.1.12c.12-.14,0,0,0,0s-.11.17-.17.26-.25.38-.36.58a.75.75,0,0,1-1,.28A.81.81,0,0,1,374.64,646.63Z" transform="translate(-173.93 -179.44)"/><path class="cls-8" d="M395.69,303.47c-2.5-10.71-9.69-18-19.17-23.66a12.42,12.42,0,0,0,.75-7.78c-1.11-4.24-5-6.12-8.68-7.46-4.11-1.49-8.72-2.95-13-1.35a9,9,0,0,0-5.62,5.94c-8.17-1.5-16.3-.56-22.88,6.15a6.63,6.63,0,0,0-1.41,2.1c-6.91,6.92-9.85,15.62-11.6,24.94a308.56,308.56,0,0,0-4.77,45.39c-1,26.62-3.51,57.05,28.65,69.35,10.71,4.1,26.72,8.79,38.43,5.11,13.49-4.23,15.06-18.35,17-29A278.54,278.54,0,0,0,397.28,349C397.57,334.24,399.07,318,395.69,303.47Zm-42.87-33.68c.71-2.21,3.12-3.68,5.31-4,3.41-.54,6.85.78,10,2,2.71,1,5.66,2.35,6.31,5.54a9.32,9.32,0,0,1-.56,5.06q-3-1.63-6.26-3.09A89.11,89.11,0,0,0,352.82,269.79Z" transform="translate(-173.93 -179.44)"/><path class="cls-3" d="M399.16,440.43s-6.7,21.56-3.85,23,2.47-8.51,4.13-7.9,1.79,7.79,1.55,12.06-1.08,9.62-.05,10,4.64-9.25,4.58-17.17c0,0,1.29,8.55,0,12.36s-1.08,8.58.61,8.56,4.55-19.85,4.55-19.85-.19,9.08-.62,11.41-1.36,5-.16,5.84,5-13.57,5.18-19.63c0,0-.59,13,.79,13.48s5.48-22.38,1.5-33.9S399.16,440.43,399.16,440.43Z" transform="translate(-173.93 -179.44)"/><path class="cls-3" d="M201.73,214.4s-2-22.55-5.14-22.74.94,8.83-.82,8.93-4.59-6.46-6-10.49-2.64-9.3-3.71-9.21-.79,10.38,2.26,17.66c0,0-4.42-7.37-4.68-11.39s-2.24-8.34-3.8-7.65,3.31,20.11,3.31,20.11-3.26-8.44-3.74-10.76-.62-5.11-2-5.44.52,14.5,2.64,20.15c0,0-4.37-12.21-5.82-12.1s3.4,22.82,11.42,31.83S201.73,214.4,201.73,214.4Z" transform="translate(-173.93 -179.44)"/><path class="cls-9" d="M191,209.69a.39.39,0,0,1-.37-.3,4.64,4.64,0,0,0-3.13-3.24,10.07,10.07,0,0,0-1.77-.24,11,11,0,0,1-1.48-.16,3.34,3.34,0,0,1-2.78-2.23.38.38,0,0,1,.27-.47.37.37,0,0,1,.46.28,2.63,2.63,0,0,0,2.19,1.65,10.37,10.37,0,0,0,1.39.15,9.66,9.66,0,0,1,1.91.27,5.35,5.35,0,0,1,3.68,3.8.39.39,0,0,1-.27.47Z" transform="translate(-173.93 -179.44)"/><path class="cls-10" d="M383.29,428.64c-8.49-2.84-16.61,8.49-23.17,12.3-23.77,13.81-52.3,9-75.72-2.74l0,0c-2.7-3.24-9.23-1.89-8.67,3.38,2.37,22,35.2,22.71,51.52,23.5,18.76.91,47.93,1.18,59.16-17.66C389.93,441.41,391.56,431.41,383.29,428.64Z" transform="translate(-173.93 -179.44)"/><path class="cls-11" d="M387.83,408.88a157.51,157.51,0,0,1-5.1-26.65,163,163,0,0,1-.55-26.51c.57-9.24,2.06-18.4,2.4-27.65.29-8-.34-16.1-2.94-23.64a39.84,39.84,0,0,0-12.13-17.75c-2.82-2.39-5.06-4.53-6.26-8.15s-3-6.7-6.54-8.34c-7.47-3.49-14.45.44-21.37,3.29-3,1.24-6.69,2.42-9.92,1.37-6.12-3-13.09-5.47-19.58-2.85-5.24,2.12-9.8,7.38-9.69,13.23-5.36,1.4-9.76,5.27-12.68,10.23-4.13,7-4.66,15.23-3.84,23.21.95,9.2,2.83,18.14,2.86,27.43a147.94,147.94,0,0,1-2.73,27.29c-1.66,9-3.85,17.84-6.09,26.67-2.14,8.42-4.39,17.09-3.1,25.85,2.22,15.16,15.93,24.09,29.09,28.34,16.31,5.27,33.81,5.35,50.54,2.28a109.43,109.43,0,0,0,24.22-7c7.06-3.09,13.48-8.17,16.22-15.78C393.63,425.48,390.07,416.87,387.83,408.88Z" transform="translate(-173.93 -179.44)"/><path class="cls-10" d="M186.21,220.76a11.08,11.08,0,0,1,13.14-6.09,4.25,4.25,0,0,0,1.86-.6,1.62,1.62,0,0,0,.18-2.2c-2.6-3.76-8.08-2.61-11.56-1s-6.58,5-6.56,9.21A1.52,1.52,0,0,0,186.21,220.76Z" transform="translate(-173.93 -179.44)"/><path class="cls-11" d="M298.78,284.32s-39.31-5.76-60-24.44-25.08-25.7-31.18-38.16-11.75-10.67-14.6-9.54-15.41,3.44-3,29.24,32.19,42.61,47.38,51.14,42.54,37.07,47,51.63Z" transform="translate(-173.93 -179.44)"/><path class="cls-10" d="M415.47,441.58a11,11,0,0,1-14.42-.1,1.45,1.45,0,0,0-1.54-.28,1.29,1.29,0,0,0-.39,0,1.6,1.6,0,0,0-1.06,1.92c.85,4.53,6.29,5.84,10.09,5.88s8-1.75,9.7-5.56A1.54,1.54,0,0,0,415.47,441.58Z" transform="translate(-173.93 -179.44)"/><path class="cls-11" d="M343.69,332s32.52,24,42.54,50.54,10.79,35,10.61,49,5.67,15.15,8.73,15.5,15.32,4.31,15.9-24.69S387.38,300.11,369.6,286.7Z" transform="translate(-173.93 -179.44)"/><path class="cls-10" d="M287.14,426.71a.4.4,0,0,1-.35-.24A.39.39,0,0,1,287,426a49.6,49.6,0,0,0,21.92-19,.38.38,0,0,1,.53-.11.4.4,0,0,1,.11.54,50.38,50.38,0,0,1-22.27,19.32A.33.33,0,0,1,287.14,426.71Z" transform="translate(-173.93 -179.44)"/><path class="cls-10" d="M374.15,427.8a.32.32,0,0,1-.19-.05,63,63,0,0,1-20.46-20.41.41.41,0,0,1,.11-.54.39.39,0,0,1,.53.12,62.09,62.09,0,0,0,20.21,20.16.39.39,0,0,1,.13.53A.37.37,0,0,1,374.15,427.8Z" transform="translate(-173.93 -179.44)"/><path class="cls-10" d="M289.88,341.71a.39.39,0,0,1-.37-.29,116,116,0,0,0-8.73-23.22.4.4,0,0,1,.16-.52.38.38,0,0,1,.52.16,117.61,117.61,0,0,1,8.79,23.38.4.4,0,0,1-.27.48Z" transform="translate(-173.93 -179.44)"/><path class="cls-10" d="M290.13,328.41a.37.37,0,0,1-.36-.27c-1.13-3.51-2.43-7-3.87-10.41a.38.38,0,0,1,.19-.51.37.37,0,0,1,.5.2c1.46,3.42,2.77,6.94,3.9,10.48a.39.39,0,0,1-.24.49A.25.25,0,0,1,290.13,328.41Z" transform="translate(-173.93 -179.44)"/><path class="cls-10" d="M379.94,366.2a.38.38,0,0,1-.38-.37,221.7,221.7,0,0,0-8-47.38.39.39,0,0,1,.26-.48.38.38,0,0,1,.47.26,222.54,222.54,0,0,1,8,47.56.39.39,0,0,1-.36.41Z" transform="translate(-173.93 -179.44)"/><path class="cls-10" d="M324.26,305.1a9.24,9.24,0,0,1-2.46-.33,25.52,25.52,0,0,1-4.29-1.74,19,19,0,0,0-7.22-2.28,25.75,25.75,0,0,1-3.31-.64,14,14,0,0,1-9.72-11.59.39.39,0,0,1,.32-.44.38.38,0,0,1,.43.34,13.24,13.24,0,0,0,9.17,10.93,25.43,25.43,0,0,0,3.22.63,27.13,27.13,0,0,1,3.26.63,26.26,26.26,0,0,1,4.17,1.71A25.16,25.16,0,0,0,322,304c2.71.74,6.23.14,7.42-2.43a.38.38,0,0,1,.51-.19.4.4,0,0,1,.18.52C329.08,304.14,326.69,305.1,324.26,305.1Z" transform="translate(-173.93 -179.44)"/><path class="cls-10" d="M337.33,304.83a5.46,5.46,0,0,1-5.2-3.22.38.38,0,0,1,.22-.5.38.38,0,0,1,.49.22c.73,2,3,2.85,4.86,2.71a11.52,11.52,0,0,0,5.64-2.48c.39-.27.77-.56,1.16-.85a22.52,22.52,0,0,1,4.31-2.71,22.17,22.17,0,0,1,4.16-1.21,20.65,20.65,0,0,0,4.22-1.24,10.85,10.85,0,0,0,6.05-9.55.38.38,0,0,1,.38-.39h0a.39.39,0,0,1,.38.39,11.67,11.67,0,0,1-6.5,10.26,21.46,21.46,0,0,1-4.37,1.3,21.08,21.08,0,0,0-4,1.16,22.09,22.09,0,0,0-4.16,2.63l-1.17.85a12.4,12.4,0,0,1-6,2.62Z" transform="translate(-173.93 -179.44)"/><path class="cls-10" d="M329,294.62a14,14,0,0,1-6.73-1.68,18.06,18.06,0,0,1-6.15-6,54,54,0,0,1-4-7.6.4.4,0,0,1,.19-.52.37.37,0,0,1,.5.19,55,55,0,0,0,3.93,7.49,17.28,17.28,0,0,0,5.89,5.71c4.5,2.48,10.46,2,15.19-1.17,4.19-2.82,7.34-7.58,8.88-13.4a.39.39,0,0,1,.47-.27.38.38,0,0,1,.26.48c-1.59,6-4.85,10.92-9.2,13.85A16.65,16.65,0,0,1,329,294.62Z" transform="translate(-173.93 -179.44)"/><path class="cls-12" d="M323.3,313.24q.48-5.7,1.27-11.37c.14-1-1.33-1.41-1.47-.41a229,229,0,0,0-2,40.2q.22,5.73.75,11.43c.09,1,1.61,1,1.52,0A226.65,226.65,0,0,1,323.3,313.24Z" transform="translate(-173.93 -179.44)"/><path class="cls-12" d="M339.5,312.39q-.37-5.68-1-11.37c-.11-1-1.63-1-1.53,0a280.69,280.69,0,0,1,1.42,40.38q-.23,5.7-.66,11.39c-.08,1,1.44,1,1.52,0A280.81,280.81,0,0,0,339.5,312.39Z" transform="translate(-173.93 -179.44)"/><path class="cls-8" d="M388.51,391.59a79.65,79.65,0,0,1-11.82-99.39c3.8-6.15-5.92-11.77-9.71-5.65a91,91,0,0,0,13.58,113C385.7,404.57,393.65,396.67,388.51,391.59Z" transform="translate(-173.93 -179.44)"/><path class="cls-3" d="M342.79,262.76a1.88,1.88,0,0,0,0-.41,1.08,1.08,0,0,0,0-.19,2.76,2.76,0,0,0-2.67-2.74,84.58,84.58,0,0,0-11-.57c-1.66,0-3.31.11-5,.25s-3.57.14-5,1.11c-3.1,2.06-2.25,6.91-2.29,10.14,0,1.55-.05,3.11-.08,4.67,0,1.85,0,3.72.08,5.55a14.88,14.88,0,0,0,3.27,8.89,12.24,12.24,0,0,0,7.26,4.13c6.32,1,11.94-2.85,14.26-8.81A21.43,21.43,0,0,0,343,278C343.22,273,342.27,267.79,342.79,262.76Z" transform="translate(-173.93 -179.44)"/><path class="cls-13" d="M343,278a28.67,28.67,0,0,1-26.2-3c0-1.56.07-3.12.08-4.67,0-3.23-.81-8.08,2.29-10.14,1.45-1,3.34-1,5-1.11s3.3-.22,5-.25a84.58,84.58,0,0,1,11,.57,2.76,2.76,0,0,1,2.67,2.74,1.08,1.08,0,0,1,0,.19,1.88,1.88,0,0,1,0,.41C342.27,267.79,343.22,273,343,278Z" transform="translate(-173.93 -179.44)"/><path class="cls-14" d="M359.61,206.63c-5.56-15.69-22.56-23.88-37.79-18.61-4.85,1.68-10,4.41-13.41,8.59a40,40,0,0,1,6.95-9,.36.36,0,0,0,0-.49.32.32,0,0,0-.47,0,40.92,40.92,0,0,0-8.78,12.61,17.55,17.55,0,0,0-12-2.95.34.34,0,0,0-.29.38.34.34,0,0,0,.37.3,16.73,16.73,0,0,1,8.48,1.18,9.26,9.26,0,0,0-7.79,3.29c-2.77,3.32-3.55,7.9-3.95,12.26-.87,9.68-.33,19.65,3,28.74a42.79,42.79,0,0,0,4.52,9c3.13,4.74,7.67,9.67,12.9,11.92,5.83,2.51,14.05,2.91,20.29,2.69,6.81-.24,13.77-2.22,18.93-6.81,6.94-6.17,9.63-16,10.84-25.38S362.72,215.39,359.61,206.63Z" transform="translate(-173.93 -179.44)"/><path class="cls-3" d="M356,230.39a41,41,0,0,0-9.16-19.8c-11.31-12.9-38.76-7.55-45.43,8.79-2.67,6.53-2.08,13.94-1.2,20.81,1.17,9.2,3.77,18.41,9.77,25.39a28.07,28.07,0,0,0,16.07,9.17,21,21,0,0,0,10.09-.1,22.3,22.3,0,0,0,8.1-5.11C354.81,260,358.57,244.62,356,230.39Z" transform="translate(-173.93 -179.44)"/><path class="cls-9" d="M330.5,250.5a1.19,1.19,0,0,1-.72-.25.36.36,0,0,1,0-.49.33.33,0,0,1,.47,0,.53.53,0,0,0,.55,0,1.13,1.13,0,0,0,.69-.84,3.7,3.7,0,0,0-.52-2l-.06-.15a20.83,20.83,0,0,1-1.55-12.12.33.33,0,0,1,.39-.27.33.33,0,0,1,.26.4,20.17,20.17,0,0,0,1.5,11.7l.07.15a4.35,4.35,0,0,1,.57,2.44A1.83,1.83,0,0,1,331,250.4,1.23,1.23,0,0,1,330.5,250.5Z" transform="translate(-173.93 -179.44)"/><path class="cls-15" d="M348,240.76a4.62,4.62,0,0,0-6.37.81,1.49,1.49,0,0,0,.29,2.06,1.44,1.44,0,0,0,1.95-.26l-.05,0a3.29,3.29,0,0,1,.42-.34,4.28,4.28,0,0,1,.44-.2,3.23,3.23,0,0,1,.53-.08,4.43,4.43,0,0,1,.51.06,3.38,3.38,0,0,1,.44.18,1,1,0,0,1,.13.09,1.42,1.42,0,0,0,2-.31A1.53,1.53,0,0,0,348,240.76Z" transform="translate(-173.93 -179.44)"/><path class="cls-15" d="M315.41,241.74a4.86,4.86,0,0,0-3.8-1.11,5,5,0,0,0-3.2,1.92,1.52,1.52,0,0,0,.29,2.06,1.44,1.44,0,0,0,2-.31l.09-.11-.05,0,.05,0,0,0c.05-.06.11-.1.09-.07A.3.3,0,0,1,311,244c.08-.07.16-.12.24-.18l.1-.06.31-.14.06,0a3,3,0,0,1,.51-.07,3.07,3.07,0,0,1,.6.07l.49.19.09,0,.31.25a1.42,1.42,0,0,0,2-.3A1.55,1.55,0,0,0,315.41,241.74Z" transform="translate(-173.93 -179.44)"/><path class="cls-15" d="M310.8,244.19l.11-.1-.11.09Z" transform="translate(-173.93 -179.44)"/><path class="cls-16" d="M338,255.47a4,4,0,0,0-2.53-.19,48.64,48.64,0,0,1-5.69.26,41.38,41.38,0,0,0-5.89-.07,1.86,1.86,0,0,0-1.6,1.14,3.39,3.39,0,0,0,.19,2.52,6.94,6.94,0,0,0,.63,1.13,8.86,8.86,0,0,0,2.35,2.3,8.52,8.52,0,0,0,8.69.33,10.6,10.6,0,0,0,3.25-2.83l.22-.31a5.28,5.28,0,0,0,1.18-3A1.56,1.56,0,0,0,338,255.47Z" transform="translate(-173.93 -179.44)"/><path class="cls-17" d="M337.4,260.06a10.6,10.6,0,0,1-3.25,2.83,8.52,8.52,0,0,1-8.69-.33,8.86,8.86,0,0,1-2.35-2.3A13.07,13.07,0,0,1,337.4,260.06Z" transform="translate(-173.93 -179.44)"/><path class="cls-12" d="M338.8,256.76a70.16,70.16,0,0,1-9.17.63c-2.34,0-5.09.18-7.34-.78a1.86,1.86,0,0,1,1.6-1.14,41.38,41.38,0,0,1,5.89.07,48.64,48.64,0,0,0,5.69-.26,4,4,0,0,1,2.53.19A1.56,1.56,0,0,1,338.8,256.76Z" transform="translate(-173.93 -179.44)"/><path class="cls-14" d="M346.66,226.81a11.13,11.13,0,0,0-11.1,1.36,1.52,1.52,0,0,0-.22,2.07,1.43,1.43,0,0,0,2,.23,7.41,7.41,0,0,1,1.91-1.06c.18-.08.37-.14.55-.2h.06l.29-.08a9.9,9.9,0,0,1,1.21-.22l.58,0h.35a9,9,0,0,1,1.16.08l.57.1.24,0,.17.05a8.08,8.08,0,0,1,1.16.43,1.44,1.44,0,0,0,1.86-.83A1.51,1.51,0,0,0,346.66,226.81Z" transform="translate(-173.93 -179.44)"/><path class="cls-14" d="M345.41,233.65a5.63,5.63,0,0,0-8.69.18.72.72,0,0,0,0,1,.66.66,0,0,0,.94,0,4.34,4.34,0,0,1,6.81-.19C345,235.27,346,234.3,345.41,233.65Z" transform="translate(-173.93 -179.44)"/><path class="cls-14" d="M321.36,228.15a9.89,9.89,0,0,0-6.37-1.51,9.68,9.68,0,0,0-5.35,2.43,1.52,1.52,0,0,0-.22,2.07,1.41,1.41,0,0,0,2,.23,6.86,6.86,0,0,1,8.22-.85,1.46,1.46,0,0,0,2-.31A1.53,1.53,0,0,0,321.36,228.15Z" transform="translate(-173.93 -179.44)"/><path class="cls-14" d="M321.39,234.32a5.65,5.65,0,0,0-8.69.18.72.72,0,0,0,0,1,.66.66,0,0,0,.94,0,4.35,4.35,0,0,1,6.81-.18C321,235.94,322,235,321.39,234.32Z" transform="translate(-173.93 -179.44)"/><path class="cls-3" d="M305.19,250.71a27.77,27.77,0,0,1-2.2-7.51c-.12-.85-.21-1.9-.38-3a2,2,0,0,0,.73-.33,2.29,2.29,0,0,0,.48-3.09c-1.27-2-2.95-4-5.43-4.19a5.37,5.37,0,0,0-5.36,3.8c-.86,2.58-.38,5.46.25,8a12.73,12.73,0,0,0,3.24,5.92,11.63,11.63,0,0,0,6.32,3.3A2.21,2.21,0,0,0,305.19,250.71Z" transform="translate(-173.93 -179.44)"/><path class="cls-9" d="M300.57,249a1.69,1.69,0,0,1-.92-.26.34.34,0,0,1-.11-.47.32.32,0,0,1,.45-.11,1.15,1.15,0,0,0,1.29-.09,1.24,1.24,0,0,0,.36-1.27,3,3,0,0,0-1.25-1.28c-.69-.49-1.4-1-1.5-1.91a3,3,0,0,1,.69-1.89c.11-.17.22-.34.32-.51a2.87,2.87,0,0,0,.26-2.34,2,2,0,0,0-1.68-1.34,1.5,1.5,0,0,0-1.54,1.25.33.33,0,1,1-.66-.09,2.23,2.23,0,0,1,2.23-1.85,2.7,2.7,0,0,1,2.28,1.8,3.62,3.62,0,0,1-.31,2.91c-.11.19-.23.37-.35.55a2.4,2.4,0,0,0-.57,1.44c.06.6.59,1,1.21,1.41a3.49,3.49,0,0,1,1.5,1.63,1.91,1.91,0,0,1-.57,2A1.76,1.76,0,0,1,300.57,249Z" transform="translate(-173.93 -179.44)"/><path class="cls-3" d="M352.45,253.35a11.61,11.61,0,0,0,6.57-2.73,12.6,12.6,0,0,0,3.73-5.6c.85-2.52,1.57-5.35.92-8a5.41,5.41,0,0,0-5-4.26c-2.49,0-4.33,1.83-5.77,3.7a2.29,2.29,0,0,0,.22,3.11,2.05,2.05,0,0,0,.7.4c-.26,1-.43,2.08-.62,2.92a27.78,27.78,0,0,1-2.83,7.28A2.23,2.23,0,0,0,352.45,253.35Z" transform="translate(-173.93 -179.44)"/><path class="cls-9" d="M355.27,248.9a1.8,1.8,0,0,1-1.25-.51,1.91,1.91,0,0,1-.4-2.07,3.4,3.4,0,0,1,1.63-1.48c.65-.38,1.22-.71,1.33-1.3a2.38,2.38,0,0,0-.46-1.48c-.1-.2-.21-.39-.29-.59a3.59,3.59,0,0,1-.07-2.92,2.67,2.67,0,0,1,2.42-1.59,2.22,2.22,0,0,1,2.07,2,.34.34,0,0,1-.32.36.32.32,0,0,1-.34-.33,1.55,1.55,0,0,0-1.44-1.37,2,2,0,0,0-1.79,1.19,2.92,2.92,0,0,0,.07,2.35c.08.18.18.35.27.53a3,3,0,0,1,.53,1.95c-.17.91-.92,1.34-1.66,1.76a2.94,2.94,0,0,0-1.34,1.17,1.22,1.22,0,0,0,.25,1.3,1.15,1.15,0,0,0,1.27.2.33.33,0,0,1,.45.15.35.35,0,0,1-.15.46A1.66,1.66,0,0,1,355.27,248.9Z" transform="translate(-173.93 -179.44)"/><path class="cls-14" d="M329.31,201.75c-34.68-3.65-29.78,31.11-29.78,31.11s4.47,3.46,4.65,8c.76,0,5-12.38,1.66-24.38,0,0,8.54,7.61,19,3.45-2.18-.4-4.25-2.91-5.18-4.87l.9.11h-.25s8.29,6.57,22.55,4.1a8.55,8.55,0,0,1-2.46-2.81,56.89,56.89,0,0,0,10.68-.81s-2.95,13.45,2.53,23.18c0,0,.79-4.14,3.44-5.86C357,233,362,205.46,329.31,201.75Z" transform="translate(-173.93 -179.44)"/></g></g></svg>