<svg xmlns="http://www.w3.org/2000/svg" viewBox="0 0 142.42 384.54"><defs><style>.cls-1{isolation:isolate;}.cls-2{fill:#0f3553;}.cls-3{fill:#12263b;}.cls-4{fill:#9da4a7;}.cls-13,.cls-4{mix-blend-mode:multiply;}.cls-5{fill:#1b1b1b;}.cls-6{fill:#eaedf7;}.cls-7{fill:#cd7052;}.cls-8{fill:#8f3923;}.cls-9{fill:#fbd58b;}.cls-10{fill:#f5a696;}.cls-11{fill:#5583a2;}.cls-12{fill:#cfd5e7;}.cls-13{fill:#edd3d1;}.cls-14{fill:#24173c;}.cls-15{fill:#f0826c;}.cls-16{fill:#f29384;}.cls-17{fill:#b44949;}.cls-18{fill:#eb5b57;}.cls-19{fill:#fff;}</style></defs><g class="cls-1"><g id="Layer_1" data-name="Layer 1"><rect class="cls-2" x="58.54" y="355.76" width="15.72" height="14.67"/><rect class="cls-2" x="99.29" y="355.76" width="15.72" height="14.67"/><path class="cls-3" d="M311.68,459.83l0,1.1v.1c-2,50.28-10.45,128.78-10.45,128.78h-19.3q-.67-5.41-1.28-10.76c-2.2-19.09-3.83-36.73-5.07-52.72q-.69-8.94-1.21-17.17c-1.45-22.56-2-41-2.23-54.65-.13-8-.11-14.39-.06-18.88.06-5.23.16-8,.16-8l38.91-2.85c.08.47.15,1,.22,1.47s.17,1.37.24,2.12C312.25,435.56,312.19,446.68,311.68,459.83Z" transform="translate(-225.34 -229.46)"/><path class="cls-3" d="M351.35,457.34a1154.1,1154.1,0,0,1-7.88,121.71q-.6,5.34-1.28,10.76H322.9s-9-78.48-11.26-128.78V461c0-.38-.05-.77-.06-1.14-.58-13.15-.67-24.27,0-31.42.07-.8.15-1.55.25-2.24.06-.48.12-.92.2-1.35l4.2.31h0l29.59,2.16,5.1.38s.12,2.22.25,6.49C351.3,439.17,351.43,447,351.35,457.34Z" transform="translate(-225.34 -229.46)"/><path class="cls-4" d="M351.35,457.34c-16.22,1.66-29.23,2.38-39.67,2.49h-.1c-25.22.26-35.44-3-39.48-5.32-.13-8-.11-14.39-.06-18.88,10.41-2.49,25.81-6.15,39.29-9.34l.49-.12,4.4-1h0l29.59,2.16,5.35,6.87C351.3,439.17,351.43,447,351.35,457.34Z" transform="translate(-225.34 -229.46)"/><path class="cls-5" d="M322.43,611s-2.07-16.18,4-17.1,14.85-1.42,16.19,0,3.15,8,8.5,9,13-.92,13,3.9-.62,7.27-10.22,6.89c-18.33-.51-17.63-4.59-18.61-3.9s.32,3.82-.65,3.94S322.74,615.17,322.43,611Z" transform="translate(-225.34 -229.46)"/><path class="cls-5" d="M302.17,611s2.07-16.18-4-17.1-14.85-1.42-16.19,0-3.15,8-8.5,9-13-.92-13,3.9.62,7.27,10.22,6.89c18.33-.51,17.63-4.59,18.61-3.9s-.32,3.82.65,3.94S301.86,615.17,302.17,611Z" transform="translate(-225.34 -229.46)"/><line class="cls-6" x1="74.51" y1="97.72" x2="72.45" y2="93.67"/><path class="cls-4" d="M304.9,524.68s-10.65,2.47-29.36,1.65q-.69-8.94-1.21-17.17c3-13.34,9.82-30.57,25.27-36.23,0,0,2.95,2.76,4.13,22.57S304.9,524.68,304.9,524.68Z" transform="translate(-225.34 -229.46)"/><path class="cls-7" d="M299.75,518.68s-49.23,4.82-73.66-1c0,0-2.84-18.25,2.5-35.71a54.06,54.06,0,0,1,3.6-9s35.39-5.56,67.4,0c0,0,.32,3.09.64,7.83C300.92,490.57,301.65,507.46,299.75,518.68Z" transform="translate(-225.34 -229.46)"/><path class="cls-8" d="M299.59,472.93c-32-5.56-67.4,0-67.4,0a54.06,54.06,0,0,0-3.6,9c6.16,7.64,13.15,14.8,22.69,18,11.91,4,23.51-1.23,33.28-7.93,5.23-3.59,10.4-7.32,15.51-11.09l.16-.13C299.91,476,299.59,472.93,299.59,472.93Z" transform="translate(-225.34 -229.46)"/><path class="cls-9" d="M261.94,499.49a37.1,37.1,0,0,1-6.91-.07,1.49,1.49,0,0,0-1.48,1.48,1.52,1.52,0,0,0,1.48,1.48,37.1,37.1,0,0,0,6.91.07,1.53,1.53,0,0,0,1.49-1.48A1.5,1.5,0,0,0,261.94,499.49Z" transform="translate(-225.34 -229.46)"/><path class="cls-8" d="M274.81,472.28a1.49,1.49,0,0,1-2.86-.8c.48-1.67,1.43-5.19-1.28-5.42a20.3,20.3,0,0,0-2.34,0l-1.62.08-1.89,0a1.72,1.72,0,0,1-.32,0l-1.62,0-2.1.07h-.16l-1.78,0c-.45,0-.95,0-1.45,0h-.24a6.18,6.18,0,0,0-2,.27,2.12,2.12,0,0,0-.56.29c-1.68,1.18-.77,4.2-.31,5.79a1.49,1.49,0,0,1-2.86.8c-.86-3-1.44-6.77,1.39-8.94a4.54,4.54,0,0,1,1.42-.72,9.8,9.8,0,0,1,2.87-.39h.29l5.53-.16,5.53-.15h.14a20.91,20.91,0,0,1,2.24,0,4.88,4.88,0,0,1,2.47.74l.23.17C276.09,466,275.59,469.52,274.81,472.28Z" transform="translate(-225.34 -229.46)"/><path class="cls-10" d="M273,466.65c-1.29.63-1.75-1.58-2.16-3.53-.31-1.5-.59-2.85-1.17-2.64s-.88,1.25-1.07,2.65a23.64,23.64,0,0,0-.22,2.93,2.11,2.11,0,0,1-3.39.11c-.06-.64-.18-1.83-.18-2.46,0,0-.15,1.34-.26,2.49-.53,1.1-2.85,1.33-3.54.16-.12-.74-.49-3.1-.49-3.1s.06,2.32.07,3a2,2,0,0,1-3.15,0,23.64,23.64,0,0,1-.32-2.9.92.92,0,0,1,0-.16v.16c0,.4-.06,1.54,0,2.9-.44.92-2.08,1.26-2.48.56-.13-1-.27-2-.36-3.07-.55-5.49-.57-12.06,1-16.49,3.18-9,14.64,1.35,14.64,1.35S273.15,459,273.49,464C273.58,465.43,273.44,466.4,273,466.65Z" transform="translate(-225.34 -229.46)"/><path class="cls-10" d="M347.6,447.45s-5.41,16.82-3.13,18,2-6.64,3.33-6.16,1.43,6.08,1.23,9.41-.88,7.51-.06,7.79,3.74-7.21,3.71-13.4c0,0,1,6.68,0,9.65s-.87,6.7.49,6.68,3.68-15.49,3.68-15.49-.17,7.09-.51,8.91-1.1,3.87-.15,4.56,4-10.59,4.19-15.32c0,0-.49,10.15.62,10.53s4.44-17.47,1.26-26.46S347.6,447.45,347.6,447.45Z" transform="translate(-225.34 -229.46)"/><path class="cls-2" d="M322.81,307.05s26.55-2.62,39.38,51.18c10,34.91,3.48,89.4,3.48,89.4l-20.81-2.79Z" transform="translate(-225.34 -229.46)"/><path class="cls-2" d="M290.77,308.26s-26.2-3.27-37.86,50.83c-9.23,35.13-1.56,89.46-1.56,89.46l20.75-3.3Z" transform="translate(-225.34 -229.46)"/><path class="cls-2" d="M345.66,373c-1.53-12.14-3.4-24.23-5.45-36.28-.95-5.6-1.62-11.42-3.16-16.88-1.37-4.86-4.07-8.9-8.5-11-13.06-6.32-40.19-5.43-49.4,8.25-3.89,5.78-4.17,13.45-4.89,20.26Q271.73,361,270.66,385q-1.05,23.75-.67,47.53c.1,5.88-.54,14.22,5.3,17.44,2.94,1.62,6.37,1.48,9.59,1.53,3.74.06,7.47.05,11.2,0,10-.16,20-.69,30-1.37q8.78-.58,17.54-1.14a9.46,9.46,0,0,0,2.7-.42c5.51-2,3.81-11.1,3.88-15.67.09-6,0-12-.34-17.95-.61-11.93-1.94-23.79-3.4-35.62Z" transform="translate(-225.34 -229.46)"/><path class="cls-3" d="M310.83,372.58a.31.31,0,0,1-.29-.2c-3.05-8.84-11.17-17.3-17.62-21.08a.27.27,0,0,1-.14-.2.3.3,0,0,1,.05-.24,58.74,58.74,0,0,0,5.07-8.21l-7.62-1.38A.31.31,0,0,1,290,341l-1.76-28.86a.31.31,0,1,1,.61,0l1.74,28.62,7.79,1.41a.27.27,0,0,1,.22.16.32.32,0,0,1,0,.27,58.49,58.49,0,0,1-5.11,8.4c7.53,4.53,14.9,13.4,17.6,21.23a.31.31,0,0,1-.19.39Z" transform="translate(-225.34 -229.46)"/><path class="cls-3" d="M312.73,448.86a.3.3,0,0,1-.3-.28c0-.34-3-34.43-2.18-55.1s3.09-25.31,3.19-25.49a37.65,37.65,0,0,1,13.37-18.1,64.35,64.35,0,0,1-6.23-7.92.31.31,0,0,1,0-.28.28.28,0,0,1,.2-.18l7.54-2.06-2.2-28.6a.3.3,0,0,1,.28-.32.28.28,0,0,1,.33.28l2.22,28.85a.3.3,0,0,1-.23.31l-7.37,2a64.73,64.73,0,0,0,6.17,7.73.31.31,0,0,1,.08.24.27.27,0,0,1-.12.22A37.09,37.09,0,0,0,314,368.23c0,.08-2.32,4.79-3.14,25.28s2.14,54.67,2.17,55a.3.3,0,0,1-.27.33Z" transform="translate(-225.34 -229.46)"/><path class="cls-3" d="M302,426.12h0l-19.22-.51a.31.31,0,0,1-.3-.31.32.32,0,0,1,.31-.3h0l19.22.51a.3.3,0,0,1,.29.31A.3.3,0,0,1,302,426.12Z" transform="translate(-225.34 -229.46)"/><path class="cls-3" d="M339.77,425.52h0l-18.53-.39a.32.32,0,0,1-.3-.31.31.31,0,0,1,.31-.3h0l18.52.38a.32.32,0,0,1,.3.32A.31.31,0,0,1,339.77,425.52Z" transform="translate(-225.34 -229.46)"/><path class="cls-3" d="M270.72,437.68a.32.32,0,0,1-.31-.29A648.94,648.94,0,0,1,274,325.63a.3.3,0,0,1,.34-.27.31.31,0,0,1,.26.34A648.81,648.81,0,0,0,271,437.36a.31.31,0,0,1-.29.32Z" transform="translate(-225.34 -229.46)"/><path class="cls-3" d="M349.27,439.26h0a.3.3,0,0,1-.3-.31A579,579,0,0,0,340.35,324a.31.31,0,0,1,.25-.36.3.3,0,0,1,.35.25A579.54,579.54,0,0,1,349.58,439,.31.31,0,0,1,349.27,439.26Z" transform="translate(-225.34 -229.46)"/><path class="cls-6" d="M321.52,303.78a23.68,23.68,0,0,0-14.25-5.17c-5.93-.07-10.08,2.54-14.47,6.42-1.26,1.11-2.38,2.24-2.15,4.12s1.41,3.63,2.15,5.24l2.95,6.39c1.36,3,3.24,6.45,6.73,6.6,2.55.11,4.16-1.66,5.23-3.81,1.54,2.53,4.08,4.32,7.08,3.2,1.92-.72,2.92-2.58,3.87-4.37a74.55,74.55,0,0,0,3.3-6.86,27.33,27.33,0,0,0,2-6.65C324.22,306.61,323.18,305.09,321.52,303.78Z" transform="translate(-225.34 -229.46)"/><path class="cls-6" d="M310,317a75.44,75.44,0,0,0-13.32,1.78c-1.07.22-1.58.72-.94,1.71s1.26,1.9,1.82,2.9a44.24,44.24,0,0,1,2.81,6.23A106.44,106.44,0,0,1,304,343.09c1.5,6.84,2.91,13.86,6,20.13a1.32,1.32,0,0,0,2.4-.32q1.85-9.94,3.7-19.9c.59-3.21,1.19-6.42,1.78-9.63.57-3.05,1.92-10.2,2-13.3.06-2.17-1.43-2.58-3.14-2.79A44,44,0,0,0,310,317Z" transform="translate(-225.34 -229.46)"/><path class="cls-11" d="M310,331.89c.37-.65.68-1.41,1-2l.57-1.12a5.66,5.66,0,0,0,.59-1.52,4.06,4.06,0,0,0-.79-3.21,8.22,8.22,0,0,0-1.67-1.79,2.59,2.59,0,0,0-2.37-.49,4.29,4.29,0,0,0-1.85,1.69,19.7,19.7,0,0,0-1.43,2.09c-1.4,2.61,1.18,4.82,2.43,6.11l.26.28c-1.76,5.11-3.54,10.2-2.23,15.69,1.4,5.89,3.75,11.65,5.36,17.46.45,1.64,2.23,1.2,2.4-.39.64-6.1,2.65-11.8,2.94-17.94C315.46,341.32,312.53,336.35,310,331.89Z" transform="translate(-225.34 -229.46)"/><path class="cls-12" d="M301.41,326.82a3.37,3.37,0,0,1-2.42-1,.31.31,0,1,1,.44-.43,2.74,2.74,0,0,0,3.5.35.31.31,0,0,1,.42.08.29.29,0,0,1-.07.42A3.23,3.23,0,0,1,301.41,326.82Z" transform="translate(-225.34 -229.46)"/><path class="cls-12" d="M314.82,326.28h-.19a3.06,3.06,0,0,1-2.13-1,.3.3,0,1,1,.46-.4,2.43,2.43,0,0,0,1.7.82,2.34,2.34,0,0,0,1.76-.6.32.32,0,0,1,.44,0,.31.31,0,0,1,0,.43A3,3,0,0,1,314.82,326.28Z" transform="translate(-225.34 -229.46)"/><path class="cls-12" d="M308.21,321.4a.32.32,0,0,1-.29-.18,9.88,9.88,0,0,1-.72-4,.3.3,0,0,1,.3-.3h0a.3.3,0,0,1,.3.31,9.17,9.17,0,0,0,.68,3.74.31.31,0,0,1-.17.4A.2.2,0,0,1,308.21,321.4Z" transform="translate(-225.34 -229.46)"/><path class="cls-10" d="M319.94,286.89c0-.12,0-.23,0-.36a2.17,2.17,0,0,0,0-.36c0-.05,0-.11,0-.17a2.51,2.51,0,0,0-2.44-2.45,77.46,77.46,0,0,0-10.1-.48c-1.52,0-3,.08-4.56.2s-3.26.13-4.6,1c-1.51,1-2,2.68-2.12,4.47-.11,1.58,0,3.24,0,4.58,0,1.88-.1,3.79-.1,5.68,0,1.15,0,2.28.1,3.42a13.08,13.08,0,0,0,3,7.92,11.37,11.37,0,0,0,6.66,3.69c5.8.9,10.94-2.55,13.06-7.86a16.92,16.92,0,0,0,1.09-4.42c.06-.53.11-1.05.14-1.58C320.37,295.78,319.54,291.27,319.94,286.89Z" transform="translate(-225.34 -229.46)"/><path class="cls-13" d="M320.13,300.16c0,.53-.08,1-.14,1.58-11.28,5.47-21.17-.5-23.9-2.75,0-1.89.09-3.8.1-5.68,0-1.34-.14-3,0-4.58,6.1-.41,19.95-1.54,23.78-1.84C319.54,291.27,320.37,295.78,320.13,300.16Z" transform="translate(-225.34 -229.46)"/><path class="cls-14" d="M332.42,245.67a24.89,24.89,0,0,0-31.18-14.93c-4,1.34-8.28,3.53-11.06,6.89a32.43,32.43,0,0,1,5.73-7.25.27.27,0,0,0,0-.39.28.28,0,0,0-.39,0,32.92,32.92,0,0,0-7.24,10.12,14.82,14.82,0,0,0-9.89-2.37.27.27,0,1,0,.06.54,14.35,14.35,0,0,1,7,.95,7.78,7.78,0,0,0-6.42,2.64c-2.28,2.66-2.93,6.34-3.26,9.84-.72,7.76-.27,15.76,2.49,23.05a34.76,34.76,0,0,0,3.72,7.19c2.59,3.79,6.33,7.75,10.65,9.55,4.81,2,11.59,2.34,16.74,2.16,5.62-.19,11.36-1.78,15.61-5.46,5.73-4.95,7.95-12.83,8.95-20.35S335,252.69,332.42,245.67Z" transform="translate(-225.34 -229.46)"/><path class="cls-10" d="M329.45,264.53a32.48,32.48,0,0,0-7.56-15.88c-9.33-10.35-32-6.06-37.48,7-2.2,5.23-1.71,11.18-1,16.68,1,7.38,3.11,14.77,8.06,20.37a23.24,23.24,0,0,0,13.26,7.35,17.86,17.86,0,0,0,8.32-.07,18.58,18.58,0,0,0,6.68-4.1C328.46,288.29,331.56,275.94,329.45,264.53Z" transform="translate(-225.34 -229.46)"/><path class="cls-15" d="M308.4,280.85a1,1,0,0,1-.59-.2.28.28,0,0,1,.34-.44.46.46,0,0,0,.46.05,1,1,0,0,0,.57-.68,2.93,2.93,0,0,0-.43-1.64l-.05-.11a16.35,16.35,0,0,1-1.28-9.72.27.27,0,0,1,.32-.22.27.27,0,0,1,.22.32,15.77,15.77,0,0,0,1.24,9.38l.05.12a3.34,3.34,0,0,1,.47,2,1.47,1.47,0,0,1-.91,1.1A1.19,1.19,0,0,1,308.4,280.85Z" transform="translate(-225.34 -229.46)"/><path class="cls-16" d="M324.07,273.73a3.92,3.92,0,0,0-2.77-.71,3.82,3.82,0,0,0-2.49,1.36,1.21,1.21,0,0,0-.22.89,1.29,1.29,0,0,0,.46.76,1.21,1.21,0,0,0,1.61-.21l0,0a3,3,0,0,1,.35-.27,2.83,2.83,0,0,1,.36-.16l.43-.07.43.05.36.14.11.08a1.19,1.19,0,0,0,1.65-.25A1.21,1.21,0,0,0,324.07,273.73Z" transform="translate(-225.34 -229.46)"/><path class="cls-16" d="M295,274.31a4,4,0,0,0-5.78.65,1.2,1.2,0,0,0,.24,1.66,1.22,1.22,0,0,0,1.66-.25l.07-.09,0,0,0-.05v0s.09-.08.07-.05l.07-.07.2-.14.08-.05.25-.11.06,0a3,3,0,0,1,.42-.05,2.72,2.72,0,0,1,.49.05l.41.16.07,0,.26.2a1.19,1.19,0,0,0,1.65-.24A1.22,1.22,0,0,0,295,274.31Z" transform="translate(-225.34 -229.46)"/><path class="cls-16" d="M291.2,276.28l.09-.08-.08.07Z" transform="translate(-225.34 -229.46)"/><path class="cls-17" d="M314.59,284.84a3.32,3.32,0,0,0-2.09-.15,40.3,40.3,0,0,1-4.69.2,34.3,34.3,0,0,0-4.86-.05,1.54,1.54,0,0,0-1.32.91,2.62,2.62,0,0,0,.16,2,5.65,5.65,0,0,0,.51.9,7,7,0,0,0,1.95,1.85,7.14,7.14,0,0,0,7.16.26,8.47,8.47,0,0,0,2.68-2.26c.07-.09.13-.16.19-.25a4.25,4.25,0,0,0,1-2.4A1.22,1.22,0,0,0,314.59,284.84Z" transform="translate(-225.34 -229.46)"/><path class="cls-18" d="M314.09,288.52a8.47,8.47,0,0,1-2.68,2.26,7.14,7.14,0,0,1-7.16-.26,7,7,0,0,1-1.95-1.85A11,11,0,0,1,314.09,288.52Z" transform="translate(-225.34 -229.46)"/><path class="cls-19" d="M315.25,285.87a59.63,59.63,0,0,1-7.56.51c-1.94,0-4.2.14-6.06-.63a1.54,1.54,0,0,1,1.32-.91,34.3,34.3,0,0,1,4.86.05,40.3,40.3,0,0,0,4.69-.2,3.32,3.32,0,0,1,2.09.15A1.22,1.22,0,0,1,315.25,285.87Z" transform="translate(-225.34 -229.46)"/><path class="cls-14" d="M302.18,264.72a7.62,7.62,0,0,0-4.53-1.8,7.4,7.4,0,0,0-4.22,1.14,1.11,1.11,0,0,0-.39,1.46,1.08,1.08,0,0,0,1.46.39,5.25,5.25,0,0,1,6.17.32,1.09,1.09,0,0,0,1.51,0A1.07,1.07,0,0,0,302.18,264.72Z" transform="translate(-225.34 -229.46)"/><path class="cls-14" d="M299.24,267.37a1,1,0,0,0-2,0c0,.5.05,1,.07,1.5a1,1,0,0,0,2,0C299.29,268.37,299.26,267.87,299.24,267.37Z" transform="translate(-225.34 -229.46)"/><path class="cls-14" d="M319.79,262.75a8.53,8.53,0,0,0-8.14,1.84,1.07,1.07,0,0,0,1.51,1.52,5.58,5.58,0,0,1,1.33-.92l.4-.18h0l.21-.08a8.84,8.84,0,0,1,.88-.25l.43-.08.08,0h.18a6.13,6.13,0,0,1,.86,0l.44,0,.18,0,.12,0a5.38,5.38,0,0,1,.9.22,1.07,1.07,0,1,0,.58-2.06Z" transform="translate(-225.34 -229.46)"/><path class="cls-14" d="M316.21,267.08a1,1,0,0,0-.29-.7.94.94,0,0,0-.7-.29,1,1,0,0,0-.71.29,1,1,0,0,0-.29.7c0,.5,0,1,.07,1.49a1,1,0,0,0,.29.7,1,1,0,0,0,.71.29,1,1,0,0,0,.7-.29,1,1,0,0,0,.29-.7C316.26,268.07,316.23,267.58,316.21,267.08Z" transform="translate(-225.34 -229.46)"/><path class="cls-14" d="M327.79,265.66h0c-1.42,0-2.85.1-4.27.23a7.15,7.15,0,0,0-14.24.07,3.78,3.78,0,0,0-2.45-.64,3.7,3.7,0,0,0-2,.82,7.15,7.15,0,0,0-14.26,0,25,25,0,0,0-5.46-.34.41.41,0,0,0,0,.82,23.91,23.91,0,0,1,5.41.36,7.14,7.14,0,0,0,14.26.24.39.39,0,0,0,.16-.07,2.93,2.93,0,0,1,4-.37,1,1,0,0,1,.29.31,7.15,7.15,0,0,0,14.28-.34c1.41-.14,2.84-.22,4.25-.23a.41.41,0,0,0,.4-.42A.41.41,0,0,0,327.79,265.66ZM297.7,273a6.33,6.33,0,1,1,6.33-6.33A6.34,6.34,0,0,1,297.7,273Zm18.7,0a6.33,6.33,0,0,1-6.31-5.93.29.29,0,0,0,0-.16c0-.08,0-.16,0-.24A6.33,6.33,0,1,1,316.4,273Z" transform="translate(-225.34 -229.46)"/><path class="cls-10" d="M287.52,281a22,22,0,0,1-1.82-6c-.1-.69-.17-1.53-.31-2.38a1.68,1.68,0,0,0,.61-.27,1.81,1.81,0,0,0,.4-2.47c-1.06-1.59-2.44-3.21-4.49-3.36a4.42,4.42,0,0,0-4.42,3.05,11.52,11.52,0,0,0,.2,6.45,10.17,10.17,0,0,0,2.68,4.74,9.72,9.72,0,0,0,5.22,2.65A1.79,1.79,0,0,0,287.52,281Z" transform="translate(-225.34 -229.46)"/><path class="cls-15" d="M283.71,279.66a1.48,1.48,0,0,1-.76-.21.28.28,0,0,1-.09-.38.27.27,0,0,1,.37-.09,1,1,0,0,0,1.06-.07,1,1,0,0,0,.3-1,2.35,2.35,0,0,0-1-1c-.58-.39-1.17-.79-1.24-1.52a2.35,2.35,0,0,1,.56-1.52c.1-.14.19-.28.27-.41a2.29,2.29,0,0,0,.21-1.88,1.62,1.62,0,0,0-1.38-1.08,1.23,1.23,0,0,0-1.28,1,.26.26,0,0,1-.31.23.27.27,0,0,1-.23-.31,1.82,1.82,0,0,1,1.77-1.48H282a2.17,2.17,0,0,1,1.88,1.44,2.81,2.81,0,0,1-.26,2.33,4.08,4.08,0,0,1-.28.44,1.9,1.9,0,0,0-.48,1.16c.05.48.5.78,1,1.13a2.77,2.77,0,0,1,1.23,1.3,1.47,1.47,0,0,1-1.4,2Z" transform="translate(-225.34 -229.46)"/><path class="cls-10" d="M326.51,283.13a9.75,9.75,0,0,0,5.43-2.18,10.15,10.15,0,0,0,3.07-4.5c.7-2,1.3-4.29.76-6.41a4.41,4.41,0,0,0-4.14-3.41c-2.05,0-3.57,1.46-4.75,3a1.8,1.8,0,0,0,.18,2.5,1.83,1.83,0,0,0,.58.32c-.22.83-.36,1.66-.52,2.33a21.62,21.62,0,0,1-2.33,5.85A1.78,1.78,0,0,0,326.51,283.13Z" transform="translate(-225.34 -229.46)"/><path class="cls-15" d="M328.84,279.56a1.51,1.51,0,0,1-1-.4,1.49,1.49,0,0,1-.33-1.66,2.78,2.78,0,0,1,1.34-1.19c.54-.3,1-.57,1.1-1a1.9,1.9,0,0,0-.38-1.19c-.08-.16-.17-.31-.24-.47a2.8,2.8,0,0,1-.05-2.35,2.17,2.17,0,0,1,2-1.27,1.81,1.81,0,0,1,1.71,1.63.28.28,0,0,1-.26.29.27.27,0,0,1-.29-.26,1.26,1.26,0,0,0-1.18-1.11,1.61,1.61,0,0,0-1.48,1,2.29,2.29,0,0,0,.06,1.88,4.37,4.37,0,0,0,.22.43,2.33,2.33,0,0,1,.44,1.56c-.14.73-.77,1.08-1.37,1.42a2.37,2.37,0,0,0-1.11.93,1,1,0,0,0,.21,1,.94.94,0,0,0,1.05.16.28.28,0,0,1,.37.13.28.28,0,0,1-.13.37A1.42,1.42,0,0,1,328.84,279.56Z" transform="translate(-225.34 -229.46)"/><path class="cls-14" d="M307.42,241.75c-28.61-2.92-24.57,24.95-24.57,24.95s3.69,2.78,3.84,6.46c.63,0,4.09-9.93,1.37-19.56,0,0,3.62,6,11.25,3-1.79-.32-3.85-2.83-3.08-4.75h.06c.39,1.14,2.89,6.59,15.39,4.81a9.34,9.34,0,0,1-3.16-3.53c1.82,1.63,5.78,3.46,14.19,2.27a7.9,7.9,0,0,1-2.65-1.92,34.9,34.9,0,0,0,5.3-.51s-2.43,10.78,2.08,18.59c0,0,.65-3.32,2.84-4.7C330.28,266.84,334.41,244.73,307.42,241.75Z" transform="translate(-225.34 -229.46)"/></g></g></svg>