<svg id="Layer_1" data-name="Layer 1" xmlns="http://www.w3.org/2000/svg" xmlns:xlink="http://www.w3.org/1999/xlink" viewBox="0 0 165.58 463.22"><defs><style>.cls-1,.cls-12,.cls-13,.cls-16,.cls-18,.cls-19{fill:none;}.cls-2{fill:#db8359;}.cls-3{fill:#cd7553;}.cls-4{fill:#f9bd8e;}.cls-5{fill:#f2a083;}.cls-6{fill:#fff;}.cls-7{fill:#3a3542;}.cls-8{clip-path:url(#clip-path);}.cls-9{fill:#ed6a4a;}.cls-10{fill:#c6442c;}.cls-11{fill:#b1a6a4;}.cls-12{stroke:#f4be54;stroke-width:0.85px;}.cls-12,.cls-13,.cls-16,.cls-19{stroke-linecap:round;}.cls-12,.cls-18{stroke-miterlimit:10;}.cls-13,.cls-16{stroke:#010101;}.cls-13,.cls-16,.cls-19{stroke-linejoin:round;}.cls-13{stroke-width:0.53px;}.cls-14{fill:#56382f;}.cls-15{fill:#6d4921;}.cls-16{stroke-width:0.63px;}.cls-17{fill:#ea5251;}.cls-18{stroke:#fff;stroke-width:3px;}.cls-19{stroke:#c6442c;stroke-width:0.5px;}</style><clipPath id="clip-path" transform="translate(-215.27 -188.92)"><path class="cls-1" d="M266.76,431.09s70,.12,73.77,1.72,20.69,157.46,16.07,163.93C349.28,607,323.5,600.13,315,598c0,0-3.3-18.43-3.94-24.64-1.58-15.45-2.84-62.07-2.84-62.07a2.41,2.41,0,0,0-4.8-.05c-3.29,32.47-8.43,83.58-8.53,87.48,0,0-33.11,1.75-40.51-2.87S266.76,431.09,266.76,431.09Z"/></clipPath></defs><path class="cls-2" d="M353,335c14.65-.91,17.39-5.13,17.39-5.13-5.31-8.41-6.31-15.12-1.25-34.42s-9-25.44-13.68-32.9-6.15-29-6.15-29-10.84-1.41-26-3c4,15,13.8,29,23.11,42.42,10.6,14.53,2.36,33.25,1.59,51l.42-2.7Z" transform="translate(-215.27 -188.92)"/><path class="cls-3" d="M346.37,273.05c-9.31-13.44-19.09-27.47-23.11-42.42-24.1-2.49-59.17-5.38-79.25-3.65-3,20.39,2.9,42,5.06,62.53a133,133,0,0,1-.51,37.38l-.22,11.95c27.6,9.47,97.86-3.56,97.86-3.56l1.76-11.2C348.73,306.3,357,287.58,346.37,273.05Z" transform="translate(-215.27 -188.92)"/><path class="cls-2" d="M249.07,289.51C246.91,269,241,247.37,244,227c-9.24.8-17.07,10.18-17.07,13.44,0,23.86-7.11,28.74-9.39,44.08s6.77,26.78,8.72,33.79-3.88,12.7-3.88,12.7c15.41,7.48,19.83,6.58,19.83,6.58l6.47-18.12-.13,7.44A133,133,0,0,0,249.07,289.51Z" transform="translate(-215.27 -188.92)"/><path class="cls-4" d="M314.28,554.12l-11-97.26,42.08-.54s-.38,50.62-.8,99A137.16,137.16,0,0,1,315,560C314.72,558,314.49,556,314.28,554.12Z" transform="translate(-215.27 -188.92)"/><path class="cls-5" d="M344.57,555.29A137.16,137.16,0,0,1,315,560c1.77,15.7,3.86,34.24,5.52,48.94q11.8-.74,23.6-2C344.23,592.06,344.4,573.85,344.57,555.29Z" transform="translate(-215.27 -188.92)"/><path class="cls-4" d="M343.81,629c.08-5.83.17-13.38.26-22q-11.79,1.28-23.6,2l2.93,25.9c-4.38,20.28,17.85,13.76,17.85,13.76s39.65,2.85,38.95-3.3S343.81,629,343.81,629Z" transform="translate(-215.27 -188.92)"/><path class="cls-5" d="M294.84,555.32c-10.34,1.79-20.88,2.75-30.78.87,0,17.35.39,35.79,1.2,54.31,8.29,0,16.58-.11,24.86-.29Z" transform="translate(-215.27 -188.92)"/><path class="cls-4" d="M290.12,610.21c-8.28.18-16.57.25-24.86.29.28,6.5.63,13,1,19.5,0,0-33.31,11.07-32.61,17.21s39.58,2.3,39.58,2.3,23.64,5.93,14.7-14.19Z" transform="translate(-215.27 -188.92)"/><path class="cls-5" d="M294.84,555.32l8.45-98.46L266.8,455.7s-2.89,44.64-2.74,100.49C274,558.07,284.5,557.11,294.84,555.32Z" transform="translate(-215.27 -188.92)"/><path class="cls-5" d="M314.28,554.12l-11-97.26,42.08-.54s-.38,50.62-.8,99A137.16,137.16,0,0,1,315,560C314.72,558,314.49,556,314.28,554.12Z" transform="translate(-215.27 -188.92)"/><path class="cls-4" d="M260.69,361.47c-1.94-23.87,3.5-31.44,11.25-33.21l2.19-1c3.66-1.51,7.77-3.13,7.77-3.13l.86-16.08,30.74-1.58-.29,17.66,6,1.7s5.53,1.63,7.39,2.11c12.7,3.27,10.38,29.66,10.63,30.3.71,7.7,1.25,53.46,1.25,53.46l5,50.89c-54.56,13.14-76.67-6.89-76.67-6.89l-.19-40.19Z" transform="translate(-215.27 -188.92)"/><path class="cls-6" d="M269,328.59s30.49,10,56.3,1.44l9.82,113.88-57-2.29Z" transform="translate(-215.27 -188.92)"/><path class="cls-7" d="M266.76,431.09s70,.12,73.77,1.72,20.69,157.46,16.07,163.93C349.28,607,323.5,600.13,315,598c0,0-3.3-18.43-3.94-24.64-1.58-15.45-2.84-62.07-2.84-62.07a2.41,2.41,0,0,0-4.8-.05c-3.29,32.47-8.43,83.58-8.53,87.48,0,0-33.11,1.75-40.51-2.87S266.76,431.09,266.76,431.09Z" transform="translate(-215.27 -188.92)"/><g class="cls-8"><path class="cls-6" d="M350.43,608.79a.36.36,0,0,1-.35-.31C341.32,544,335.58,478.26,333,413.21a.35.35,0,0,1,.34-.37.36.36,0,0,1,.37.34c2.56,65,8.3,130.71,17.05,195.2a.36.36,0,0,1-.31.41Z" transform="translate(-215.27 -188.92)"/><path class="cls-6" d="M354.63,603.45a.37.37,0,0,1-.36-.32C347.39,542.56,343.25,481,342,420a.36.36,0,0,1,.35-.37h0a.36.36,0,0,1,.35.36c1.28,60.91,5.41,122.5,12.29,183a.35.35,0,0,1-.31.39Z" transform="translate(-215.27 -188.92)"/><path class="cls-6" d="M341.68,608.29a.36.36,0,0,1-.35-.31,1158.91,1158.91,0,0,1-10.6-200.67.37.37,0,0,1,.37-.35.36.36,0,0,1,.35.37A1158.51,1158.51,0,0,0,342,607.88a.37.37,0,0,1-.31.41Z" transform="translate(-215.27 -188.92)"/><path class="cls-6" d="M333.5,610.13a.37.37,0,0,1-.36-.32,1921.85,1921.85,0,0,1-8.46-198.41A.37.37,0,0,1,325,411h0a.36.36,0,0,1,.35.36,1917.58,1917.58,0,0,0,8.46,198.34.36.36,0,0,1-.32.39Z" transform="translate(-215.27 -188.92)"/><path class="cls-6" d="M324.12,606.08a.36.36,0,0,1-.36-.35c-2.25-65.19-3.88-131.33-4.85-196.57a.37.37,0,0,1,.36-.37.38.38,0,0,1,.36.36c1,65.23,2.6,131.37,4.85,196.56a.36.36,0,0,1-.35.37Z" transform="translate(-215.27 -188.92)"/><path class="cls-6" d="M321.19,607.76a.35.35,0,0,1-.35-.32c-6.73-60.15-7.29-121.6-7.83-181q-.08-8.58-.16-17.17a.36.36,0,0,1,.36-.36h0a.35.35,0,0,1,.36.35q.09,8.6.16,17.17c.54,59.41,1.09,120.83,7.82,181a.36.36,0,0,1-.32.4Z" transform="translate(-215.27 -188.92)"/><path class="cls-6" d="M306.23,536.34h0a.36.36,0,0,1-.35-.37l2.53-137.26a.41.41,0,0,1,.37-.36.36.36,0,0,1,.35.37L306.59,536A.37.37,0,0,1,306.23,536.34Z" transform="translate(-215.27 -188.92)"/><path class="cls-6" d="M294.44,606.52h0a.37.37,0,0,1-.35-.37l5.19-193.85a.37.37,0,0,1,.36-.35h0a.36.36,0,0,1,.35.37L294.8,606.17A.36.36,0,0,1,294.44,606.52Z" transform="translate(-215.27 -188.92)"/><path class="cls-6" d="M287.91,607.92a.36.36,0,0,1-.36-.35c-1.31-66.68.43-134.22,5.16-200.73a.33.33,0,0,1,.38-.33.34.34,0,0,1,.33.38c-4.73,66.49-6.46,134-5.15,200.66a.37.37,0,0,1-.35.37Z" transform="translate(-215.27 -188.92)"/><path class="cls-6" d="M280.33,605.22h0a.36.36,0,0,1-.35-.37c1.63-63.43,2.08-127.75,1.34-191.18a.36.36,0,0,1,.36-.36h0a.36.36,0,0,1,.36.35c.74,63.44.29,127.77-1.35,191.21A.35.35,0,0,1,280.33,605.22Z" transform="translate(-215.27 -188.92)"/><path class="cls-6" d="M273.56,608.82h0a.36.36,0,0,1-.36-.36c.09-57.17,1.51-115.09,4.21-172.16a.37.37,0,0,1,.38-.34.37.37,0,0,1,.34.38c-2.71,57.05-4.12,115-4.21,172.12A.36.36,0,0,1,273.56,608.82Z" transform="translate(-215.27 -188.92)"/><path class="cls-6" d="M265.61,611.09h0a.36.36,0,0,1-.36-.36c.05-10.78.11-21.93.25-32.89.74-60,4-120.64,9.74-180.33a.35.35,0,0,1,.39-.32.36.36,0,0,1,.32.39c-5.71,59.67-9,120.32-9.74,180.26-.13,11-.19,22.12-.24,32.89A.36.36,0,0,1,265.61,611.09Z" transform="translate(-215.27 -188.92)"/><path class="cls-6" d="M256.42,606.52h0a.35.35,0,0,1-.34-.37l7.56-198.88a.35.35,0,0,1,.36-.34h0a.34.34,0,0,1,.34.37l-7.55,198.88A.36.36,0,0,1,256.42,606.52Z" transform="translate(-215.27 -188.92)"/></g><path class="cls-9" d="M313.21,324.13s5.79,41.59,8,55.52-5.87,75,0,92.27,1,24.71,9.67,27,20,5.08,24.25,0,.38-27.47-4.92-49-6.54-48.12-9.06-68.65-3-47.86-3-47.86S332.66,324,313.21,324.13Z" transform="translate(-215.27 -188.92)"/><path class="cls-10" d="M369.09,441.62a31.6,31.6,0,0,1-16.8,0c-8.63-2.6-13.66-6.1-11.76-8.81S362.93,430.57,369.09,441.62Z" transform="translate(-215.27 -188.92)"/><path class="cls-9" d="M281.9,324.13s-1.6,49.21.28,65.11,11.44,52.79,7.35,66.46S280.8,494.32,279,497.09s-23.48,8.32-30.91,4.62,1.51-45.09,2.1-57.8,9-44.46,8.06-63.33S253,336,253,336,259.41,322.14,281.9,324.13Z" transform="translate(-215.27 -188.92)"/><path class="cls-11" d="M239.24,441.62s28.65,5.64,37.27,2.29,4.31,63.19,0,67.2-40.09,4.61-43.46-2.93S230.92,445.14,239.24,441.62Z" transform="translate(-215.27 -188.92)"/><path class="cls-4" d="M274.13,330" transform="translate(-215.27 -188.92)"/><path class="cls-5" d="M282.18,318.53l.29-12.06L313.2,308v13.29C305.19,321.55,293.41,322,282.18,318.53Z" transform="translate(-215.27 -188.92)"/><path class="cls-4" d="M334.11,281.45l-1.4-19.35s13.92-11.72,20.79,4.45S343.35,289.9,334.11,281.45Z" transform="translate(-215.27 -188.92)"/><path class="cls-12" d="M330.84,296a11.08,11.08,0,1,0,14.58-13.53" transform="translate(-215.27 -188.92)"/><path class="cls-4" d="M258.21,290.85l-6.55-18.27s-17.48-5.08-17.21,12.5S253.18,302.32,258.21,290.85Z" transform="translate(-215.27 -188.92)"/><path class="cls-12" d="M246.41,293.84a11.08,11.08,0,1,0,19.49,4" transform="translate(-215.27 -188.92)"/><path class="cls-4" d="M336.47,225.44s2.32,20.62,3.95,45.12c1.33,19.83-13.24,40.29-37.35,43.46C280.41,317,256.16,309.4,247,278S241,220,269.54,211,327,201.34,336.47,225.44Z" transform="translate(-215.27 -188.92)"/><path class="cls-13" d="M303.67,284.73s-6.72,3.16-10.45-3.57" transform="translate(-215.27 -188.92)"/><path class="cls-14" d="M302.44,220.9a2.85,2.85,0,0,0-.22-.26Z" transform="translate(-215.27 -188.92)"/><path class="cls-2" d="M262.51,260.38s-4.17-4.18,3.66-10.26,10.8-5.06,12.32-2.37c1.38,2.45-.25,6.36-4.71,9.66C268.43,261.37,264.78,262.79,262.51,260.38Z" transform="translate(-215.27 -188.92)"/><path class="cls-2" d="M329.62,250.64s2.61-5.3-6.77-8.54-11.85-1.31-12.42,1.72c-.52,2.76,2.28,5.94,7.56,7.63C324.33,253.48,328.24,253.65,329.62,250.64Z" transform="translate(-215.27 -188.92)"/><path class="cls-15" d="M252.25,291.76l-.15,0a.37.37,0,0,1-.21-.46c0-.09,3.22-8.75-2.91-12.28a7.75,7.75,0,0,0-6.15-1,9.72,9.72,0,0,0-5.16,4.34.35.35,0,0,1-.47.15.36.36,0,0,1-.15-.48,10.25,10.25,0,0,1,5.58-4.69,8.46,8.46,0,0,1,6.7,1.1c6.66,3.83,3.26,13.05,3.22,13.14A.36.36,0,0,1,252.25,291.76Z" transform="translate(-215.27 -188.92)"/><path class="cls-15" d="M243.15,285.46a.33.33,0,0,1-.29-.12.35.35,0,0,1,0-.5s5.66-4.73,10.32-.64a.35.35,0,0,1,0,.49.36.36,0,0,1-.5,0c-4.2-3.69-9.35.61-9.4.65A.32.32,0,0,1,243.15,285.46Z" transform="translate(-215.27 -188.92)"/><path class="cls-15" d="M302,277a.35.35,0,0,1-.19-.66,9.52,9.52,0,0,0,3.83-4.09c.84-2,.34-5-1.05-6.18a2.47,2.47,0,0,0-3.1,0l-.18.11c-4.16,2.8-6.18,1.8-7.14.47-1.78-2.44-1.72-22.65-1.71-24.94a.36.36,0,0,1,.36-.35.35.35,0,0,1,.35.35c0,6.18.18,22.62,1.56,24.53,1.14,1.57,3.22,1.35,6.19-.64l.2-.13a3.17,3.17,0,0,1,3.93,0c1.62,1.39,2.2,4.65,1.24,7a10,10,0,0,1-4.15,4.44A.25.25,0,0,1,302,277Z" transform="translate(-215.27 -188.92)"/><path class="cls-15" d="M340.1,280.35l.12-.08a.36.36,0,0,0,0-.5c-.07-.07-6.49-6.7-2.31-12.41a7.75,7.75,0,0,1,5.2-3.43,9.69,9.69,0,0,1,6.48,1.88.35.35,0,0,0,.49-.06.34.34,0,0,0-.06-.49,10.19,10.19,0,0,0-7-2,8.47,8.47,0,0,0-5.68,3.72c-4.54,6.19,2.3,13.24,2.37,13.31A.36.36,0,0,0,340.1,280.35Z" transform="translate(-215.27 -188.92)"/><path class="cls-15" d="M345.87,270.91a.35.35,0,0,0,.21-.23.35.35,0,0,0-.23-.44c-.07,0-7.09-2-9.7,3.59a.34.34,0,0,0,.17.46.35.35,0,0,0,.47-.17c2.35-5.07,8.79-3.22,8.86-3.2A.41.41,0,0,0,345.87,270.91Z" transform="translate(-215.27 -188.92)"/><path class="cls-5" d="M283.62,287.85c-.44,3.38-5.92,5.44-12.25,4.62s-11.1-4.23-10.66-7.61,5.93-5.45,12.26-4.62S284.07,284.47,283.62,287.85Z" transform="translate(-215.27 -188.92)"/><path class="cls-5" d="M312.25,285.31c1,3.25,6.8,4.33,12.88,2.4s10.18-6.11,9.15-9.36-6.79-4.32-12.87-2.4S311.23,282.07,312.25,285.31Z" transform="translate(-215.27 -188.92)"/><path class="cls-13" d="M271.55,274.47s-.13-7.08,5.55-8,7.47,5.95,7.47,5.95" transform="translate(-215.27 -188.92)"/><line class="cls-13" x1="56.33" y1="84.65" x2="52.56" y2="83.45"/><line class="cls-16" x1="56.22" y1="82.88" x2="53.68" y2="81.94"/><path class="cls-13" d="M324.51,269.27s-2-6.8-7.71-5.91-5.31,7.93-5.31,7.93" transform="translate(-215.27 -188.92)"/><line class="cls-13" x1="108.92" y1="79.5" x2="112.15" y2="77.22"/><line class="cls-16" x1="108.49" y1="77.79" x2="110.62" y2="76.12"/><path class="cls-17" d="M248.72,468.65" transform="translate(-215.27 -188.92)"/><path class="cls-2" d="M262.83,201.32s-32.83,7-35.54,26.66,11.15,42.59,11.15,42.59,19.75-9,29-46.6c0,0,77.26,37.85,82.54,34.56s.6-39.6-10.7-51.22S292,186.82,262.83,201.32Z" transform="translate(-215.27 -188.92)"/><path class="cls-2" d="M256.67,208.57S245.78,198.82,250,197s8.55,7.9,8.55,7.9-4.07-17.86,2-15.78,5.7,15.51,1.29,18.53" transform="translate(-215.27 -188.92)"/><path class="cls-2" d="M369.47,328l.56-.33c-3.12-5.41-1.42-12.4.4-17.88l.39-1.17c1.91-5.67,3.88-11.54,2.3-17.26-1.46-5.26-5.59-9-9.58-12.68-2.88-2.63-5.85-5.35-7.85-8.63-4.16-6.81-3.82-15.25-3.5-23.4l.09-2.37c.28-8,.05-18.41-4.19-27.42-4-8.5-11.41-15.52-20.87-19.78-8.26-3.72-18.16-5.33-28.63-4.65a78.06,78.06,0,0,0-29.95,8.15l.29.58a77.48,77.48,0,0,1,29.7-8.08c10.37-.67,20.16.92,28.32,4.59,9.32,4.2,16.62,11.11,20.55,19.47,4.18,8.88,4.4,19.16,4.13,27.12l-.09,2.36c-.33,8.25-.67,16.79,3.59,23.77,2.05,3.35,5.06,6.11,8,8.77,4.1,3.75,8,7.3,9.39,12.38,1.53,5.52-.41,11.29-2.28,16.87l-.4,1.17C368,315.19,366.22,322.36,369.47,328Z" transform="translate(-215.27 -188.92)"/><path class="cls-2" d="M226.09,333.45c5.23-1.27,8-6.92,8-11.59,0-4.23-1.76-8.71-5.35-13.72-1-1.45-2.15-2.87-3.23-4.24a62.82,62.82,0,0,1-5.45-7.66,32.2,32.2,0,0,1-2.54-25.87,64.87,64.87,0,0,1,3.63-8.17,48.06,48.06,0,0,0,4.46-11.2,48.07,48.07,0,0,0,.76-9.48c0-2.11.05-4.29.27-6.42,1.68-16,16.08-29.91,32.1-31.06l0-.65c-16.33,1.17-31,15.37-32.7,31.65-.23,2.15-.26,4.35-.29,6.47a48.18,48.18,0,0,1-.73,9.36,48.32,48.32,0,0,1-4.41,11,64.83,64.83,0,0,0-3.66,8.25,32.84,32.84,0,0,0,2.58,26.41,64.81,64.81,0,0,0,5.51,7.74c1.07,1.36,2.19,2.77,3.21,4.21,3.5,4.89,5.21,9.26,5.23,13.34,0,4.42-2.61,9.77-7.51,11Z" transform="translate(-215.27 -188.92)"/><path class="cls-7" d="M380.17,644.63l-.1,0c-.66-2.36-4.76-10.23-29.94-14-5.5-.82-6.8,9.78-7.11,15.09-2.28-4.2-8.33-13-19.82-14.49,0,0-3,4.84.66,17.32,0,0,8.28,2.62,30,2.34,24.25-.31,27-3.43,27-3.43A8,8,0,0,0,380.17,644.63Z" transform="translate(-215.27 -188.92)"/><path class="cls-7" d="M234.32,646.5l.11,0c.13-2.37,2.44-10.32,26.7-14.7,5.3-1,9,9.57,10.5,14.87,1.32-4.25,5.38-13.14,16.49-15,0,0,4.1,4.75,3.25,17.29,0,0-7.67,2.82-29.37,3.1-24.24.31-27.7-2.73-27.7-2.73A7.56,7.56,0,0,1,234.32,646.5Z" transform="translate(-215.27 -188.92)"/><path class="cls-4" d="M318,329.39c-.64-.91,6.6-1,10.46-.54,7.67.87,23.56,10.64,30.74,52.56,4.92,28.72,7.57,66.7,7.57,66.7,1.5,7.77,3.73,24.4,1.12,25.14s-5.16-10.65-5.16-10.65,2.06,14-.51,14.5-4.1-14.08-4.1-14.08.5,14.63-1.88,15.28c-4.09.95-2.88-16.19-2.88-16.19s-2.6,13.63-5.65,13.46.69-17.76.69-17.76-4,7.05-5.85,3.82,5.54-15.06,5.54-15.06S338.62,358.1,318,329.39Z" transform="translate(-215.27 -188.92)"/><path class="cls-7" d="M242.3,453.35a2.16,2.16,0,0,1-2.15-2.13c0-.89-.22-21.66,0-28.87a2.11,2.11,0,0,1,2.22-2.08,2.16,2.16,0,0,1,2.09,2.22c-.23,7.11,0,28.47,0,28.68a2.16,2.16,0,0,1-2.13,2.18Z" transform="translate(-215.27 -188.92)"/><path class="cls-10" d="M242.37,435s4.69,8.68,16.38,2.41,15.42-26.32,10.2-29.5S240.89,410.26,242.37,435Z" transform="translate(-215.27 -188.92)"/><path class="cls-7" d="M270.45,453.5a2.15,2.15,0,0,1-2.15-2.15V435.12a2.15,2.15,0,1,1,4.3,0v16.23A2.15,2.15,0,0,1,270.45,453.5Z" transform="translate(-215.27 -188.92)"/><path class="cls-4" d="M263.26,408.29s-.68-23.2,6.13-39c0-.06,2.78-35.86,2.78-35.93,0-4.07-13.42-6.86-19.19,2.69-9.27,15.33-26.34,82.57-10.21,91.76,13.84,7.88,40,8.67,54.65,8.42-2.49-5.83-4.69-11.7-5.29-17.93Z" transform="translate(-215.27 -188.92)"/><path class="cls-4" d="M325.24,432c-.39,2.35-13.23-1.18-13.23-1.18s12.51,4.4,12.27,6.62c-.55,3.76-14.6-2.9-14.6-2.9s10.64,6.68,9.49,9.2-11.08-4.8-14.75-6.44c-3-1.34-9.43-1-9.43-1l-8.95-.37c.6-6.22,2.8-12.1,5.29-17.92,6.33.1,10.5.4,10.5.4,5.54.43,22.26,5.13,22,7.57s-10.69.85-10.69.85S325.63,429.63,325.24,432Z" transform="translate(-215.27 -188.92)"/><path class="cls-9" d="M274.13,324.08s-25.38,2.51-31.76,29.77-11,52.44-8.7,64.34,7.24,15.54,9.65,18.06-1.67-14.72,6.83-18.06,18.91-10.37,22-10.32S274.83,329.42,274.13,324.08Z" transform="translate(-215.27 -188.92)"/><path class="cls-7" d="M268.32,410c0-.29-.12-29.22,0-54.3.09-23.45-3.66-28.67-3.7-28.72-.8-.88-3.94,1-3.94,1-.36-1,1.59-4.48,7.19-3.79,1.2.14,4.85,6.61,4.76,31.55s.61,56,.35,55.89C272.23,411.26,268.32,410,268.32,410Z" transform="translate(-215.27 -188.92)"/><path class="cls-9" d="M315.48,324.16S346,329.3,351.74,342.5s17.62,63.92,18.63,75.29.56,25.11-1.28,23.83-24.78-13.18-28.56-8.81-4.41-26.25-4.41-26.25l-20.64-82.4" transform="translate(-215.27 -188.92)"/><path class="cls-18" d="M242.31,451.19" transform="translate(-215.27 -188.92)"/><path class="cls-19" d="M338.4,431.08s-.91-7.3-2.11-19.43c-.8-8.19-.31-28.25-3.76-40.11" transform="translate(-215.27 -188.92)"/><path class="cls-11" d="M292.64,401.88a.35.35,0,0,1-.33-.22.35.35,0,0,1,.19-.47,81.18,81.18,0,0,0,22-13.74.36.36,0,0,1,.51,0,.35.35,0,0,1,0,.5,81.94,81.94,0,0,1-22.19,13.86Z" transform="translate(-215.27 -188.92)"/><path class="cls-11" d="M303.85,408.6a.35.35,0,0,1-.25-.1.36.36,0,0,1,0-.51,134,134,0,0,0,13.52-16,.35.35,0,0,1,.5-.08.36.36,0,0,1,.08.5,134.54,134.54,0,0,1-13.59,16.08A.35.35,0,0,1,303.85,408.6Z" transform="translate(-215.27 -188.92)"/></svg>