<svg xmlns="http://www.w3.org/2000/svg" viewBox="0 0 146.95 334.21"><defs><style>.cls-1{isolation:isolate;}.cls-2{fill:#64658d;}.cls-3{fill:#41446d;}.cls-4{fill:#acacb4;}.cls-4,.cls-6{mix-blend-mode:multiply;}.cls-5{fill:#f5a696;}.cls-6{fill:#edd3d1;}.cls-7{fill:#336987;}.cls-8{fill:#7bc1dd;}.cls-9{fill:#24173c;}.cls-10{fill:#d4a753;}.cls-11{fill:#fbd58b;}.cls-12{fill:#e45556;}.cls-13{fill:#c94146;}.cls-14{fill:#f0826c;}.cls-15{fill:#f29384;}.cls-16{fill:#b44949;}.cls-17{fill:#eb5b57;}.cls-18{fill:#fff;}</style></defs><g class="cls-1"><g id="Layer_1" data-name="Layer 1"><path class="cls-2" d="M276.33,386.77c-.48,7.94-1.16,16.42-2,25.09l-.09.94c-1.38,14.38-3.15,29.3-5,43.34-4.12,31.76-8.52,59-9.58,65.37-.15.92-.22,1.4-.22,1.4l-8,1.22c-1.12-3.28-2.15-6.65-3.09-10.08-5.4-19.14-8.49-40.38-10.26-60-1.73-19.31-2.16-37-2.18-49.58,0-11.62.33-18.85.33-18.85l38,1.06Z" transform="translate(-205.33 -206.43)"/><path class="cls-2" d="M312.48,411.51c-.17,11.74-.71,26.58-2.14,42.47-1.73,19.63-4.84,40.9-10.24,60.09-1,3.43-2,6.8-3.11,10.06l-8-1.22s-.06-.35-.17-1c-.93-5.7-5.52-33.9-9.75-66.7-1.78-13.76-3.48-28.33-4.84-42.37,0-.32-.06-.65-.09-.95-.82-8.67-1.51-17.15-2-25.08l2.09-.06,38-1.06S312.68,395.85,312.48,411.51Z" transform="translate(-205.33 -206.43)"/><path class="cls-3" d="M239.72,418a.37.37,0,0,1,0-.73,18.23,18.23,0,0,0,13.75-9,.37.37,0,1,1,.64.36A19,19,0,0,1,239.76,418Z" transform="translate(-205.33 -206.43)"/><path class="cls-3" d="M306.57,418l-.1,0a20.89,20.89,0,0,1-12.37-10,.37.37,0,0,1,.65-.36,20.14,20.14,0,0,0,11.93,9.68.37.37,0,0,1-.11.72Z" transform="translate(-205.33 -206.43)"/><path class="cls-4" d="M312.48,411.51a206,206,0,0,1-38.15.35h-.18c-19.7-1.68-33.43-5.76-38.19-7.35,0-11.62.33-18.85.33-18.85l38,1.06,38-1.06S312.68,395.85,312.48,411.51Z" transform="translate(-205.33 -206.43)"/><path class="cls-5" d="M238.14,454.08c.08.74.13,1.47.21,2.22,1.79,19,4.85,39.33,10.05,57.75.94,3.43,2,6.8,3.09,10.08l8-1.22s.07-.48.22-1.4c1-6,4.94-30.42,8.83-59.72q.38-2.81.75-5.65A83.31,83.31,0,0,1,238.14,454.08Z" transform="translate(-205.33 -206.43)"/><path class="cls-6" d="M269.27,456.14q-.37,2.85-.75,5.65c-15.91.72-28.72-3.77-30.17-5.49-.08-.75-.13-1.48-.21-2.22A83.31,83.31,0,0,0,269.27,456.14Z" transform="translate(-205.33 -206.43)"/><path class="cls-5" d="M279.19,455.2a.18.18,0,0,0-.11,0c.15,1.13.3,2.25.44,3.37,4.1,31.35,8.41,57.82,9.31,63.33.11.69.17,1,.17,1l8,1.22c1.12-3.26,2.15-6.63,3.11-10.06,4.9-17.44,7.92-36.59,9.73-54.68.19-1.82.35-3.62.51-5.41A41.91,41.91,0,0,1,279.19,455.2Z" transform="translate(-205.33 -206.43)"/><path class="cls-6" d="M310.34,454c-.16,1.79-.32,3.59-.51,5.41-12,5.63-25.89.93-30.31-.85-.14-1.12-.29-2.24-.44-3.37a.18.18,0,0,1,.11,0A41.91,41.91,0,0,0,310.34,454Z" transform="translate(-205.33 -206.43)"/><path class="cls-7" d="M262.67,532v0c0,2.16-.24,3.75-.24,3.75s-10.4,4.45-17,4.45-14.09.57-14-6.61a.42.42,0,0,1,0-.19c.24-7.07,10.21-12.83,10.21-12.83s-3-6.5,6.52-6.5,11.25,7.35,11.25,7.35C262.39,522.65,262.78,528.14,262.67,532Z" transform="translate(-205.33 -206.43)"/><path class="cls-8" d="M262.67,532c0,2.16-.24,3.75-.24,3.75s-10.78,4.91-17.34,4.91-13.72.11-13.64-7.07a.42.42,0,0,1,0-.19c2.18,5,10.56,4.3,14.85,3.64C252,536.17,257.39,534.08,262.67,532Z" transform="translate(-205.33 -206.43)"/><path class="cls-8" d="M247,527.84a10,10,0,0,0-11.27-3.93c-1.33.42-.76,2.53.58,2.11a7.82,7.82,0,0,1,8.81,2.92,1.12,1.12,0,0,0,1.49.39A1.1,1.1,0,0,0,247,527.84Z" transform="translate(-205.33 -206.43)"/><path class="cls-8" d="M247.88,526a10,10,0,0,0-10.28-4.21,1.09,1.09,0,0,0,.58,2.11,7.77,7.77,0,0,1,7.82,3.2,1.12,1.12,0,0,0,1.49.4A1.1,1.1,0,0,0,247.88,526Z" transform="translate(-205.33 -206.43)"/><path class="cls-8" d="M249.28,524.3a12.09,12.09,0,0,0-10.06-3.88,1.12,1.12,0,0,0-1.09,1.09,1.1,1.1,0,0,0,1.09,1.09,10.07,10.07,0,0,1,8.52,3.24,1.09,1.09,0,0,0,1.54-1.54Z" transform="translate(-205.33 -206.43)"/><path class="cls-7" d="M286.38,532v0c0,2.16.24,3.75.24,3.75s10.4,4.45,17,4.45,14.09.57,14-6.61a.42.42,0,0,0,0-.19c-.24-7.07-10.2-12.83-10.2-12.83s3-6.5-6.53-6.5-11.25,7.35-11.25,7.35C286.66,522.65,286.27,528.14,286.38,532Z" transform="translate(-205.33 -206.43)"/><path class="cls-8" d="M286.38,532c0,2.16.24,3.75.24,3.75s10.78,4.91,17.34,4.91,13.72.11,13.64-7.07a.42.42,0,0,0,0-.19c-2.18,5-10.55,4.3-14.85,3.64C297.05,536.17,291.66,534.08,286.38,532Z" transform="translate(-205.33 -206.43)"/><path class="cls-8" d="M302.09,527.84a10,10,0,0,1,11.27-3.93c1.33.42.76,2.53-.58,2.11a7.8,7.8,0,0,0-8.8,2.92,1.14,1.14,0,0,1-1.5.39A1.1,1.1,0,0,1,302.09,527.84Z" transform="translate(-205.33 -206.43)"/><path class="cls-8" d="M301.17,526a10,10,0,0,1,10.28-4.21,1.09,1.09,0,0,1-.58,2.11,7.77,7.77,0,0,0-7.82,3.2,1.09,1.09,0,1,1-1.88-1.1Z" transform="translate(-205.33 -206.43)"/><path class="cls-8" d="M299.77,524.3a12.09,12.09,0,0,1,10.06-3.88,1.12,1.12,0,0,1,1.09,1.09,1.1,1.1,0,0,1-1.09,1.09,10.07,10.07,0,0,0-8.52,3.24,1.09,1.09,0,0,1-1.54,0A1.11,1.11,0,0,1,299.77,524.3Z" transform="translate(-205.33 -206.43)"/><path class="cls-9" d="M262.48,228.69s8.56,6.6,23.28,4.12a9.29,9.29,0,0,1-3.35-4.42Z" transform="translate(-205.33 -206.43)"/><path class="cls-5" d="M231.26,399.82s9.54,12.82,7.91,14.45-3.64-5.09-4.64-4.3.55,5.62,1.69,8.41,2.95,6.17,2.32,6.65-5.3-5.08-7.08-10.38c0,0,1.08,6,2.83,8.25s2.71,5.47,1.54,5.86-7.67-12.18-7.67-12.18,2.21,6,3,7.47,2.07,3,1.45,3.86S226.11,420,224.6,416c0,0,3.38,8.54,2.54,9.18s-8.89-13.64-8.79-22.27S231.26,399.82,231.26,399.82Z" transform="translate(-205.33 -206.43)"/><path class="cls-5" d="M314.07,398.62s-9.54,12.82-7.91,14.46,3.64-5.1,4.64-4.3-.55,5.61-1.69,8.41-2.95,6.17-2.33,6.64,5.31-5.07,7.09-10.38c0,0-1.08,6-2.83,8.25s-2.71,5.48-1.54,5.86,7.67-12.18,7.67-12.18-2.21,6-3,7.48-2.07,3-1.45,3.85,6.54-7.88,8.05-11.88c0,0-3.38,8.54-2.54,9.19s8.89-13.65,8.79-22.27S314.07,398.62,314.07,398.62Z" transform="translate(-205.33 -206.43)"/><path class="cls-10" d="M307,392.09c-10.94-1.11-22.06-.44-33-.11-12.37.36-24.89.58-37.09-1.82a3.07,3.07,0,0,0-.53-.06,3.43,3.43,0,0,0-2.29-.92c-1.85,0-3.89,1.62-3.75,3.62.4,5.56,4.81,8.74,10,9.66a148.85,148.85,0,0,0,16.33,1.69,224.18,224.18,0,0,0,33.59-.36q8.34-.72,16.6-2c2.48-.39,4.92-1.21,5.59-3.92C313.32,394.23,310,392.4,307,392.09Z" transform="translate(-205.33 -206.43)"/><path class="cls-11" d="M319.2,378.57q-.34-9.85-1.42-19.65a269,269,0,0,0-6.89-37.78q-2.42-9.37-5.51-18.55c-1.76-5.24-3.35-11.14-6.66-15.66-3.17-4.31-7.89-6.26-13.17-6.29-4.45,0-8.77,1.21-13.11,2.05a30.5,30.5,0,0,1-7.51.43c-2.53-.14-5.06-.8-7.58-.48a25.09,25.09,0,0,0-10.63,3.92,29.81,29.81,0,0,0-9.47,10.34c-5.85,10.54-6.72,23.46-7.89,35.22-1.36,13.57-2,27.2-2.53,40.83-.12,3.19-.33,6.4-.33,9.59a14.35,14.35,0,0,0,1.52,7.24c2.67,4.63,8.94,5.75,13.7,6.83,12.41,2.83,25.25,3.15,37.91,2.29,6.46-.44,12.9-1.17,19.32-2,3.11-.42,6.21-.86,9.32-1.32,2.6-.38,5.64-.43,8-1.66s3-3.42,3.07-5.82C319.47,384.92,319.31,381.72,319.2,378.57Z" transform="translate(-205.33 -206.43)"/><path class="cls-11" d="M250.48,284.88c-8.28-.47-16.16,3-22.39,8.26-6.39,5.41-10.59,12.89-13.7,20.55-6.57,16.14-9.35,34.17-9,51.54a139.24,139.24,0,0,0,3.07,26.61c.88,4.09,2,8.26,5.42,11a12.27,12.27,0,0,0,11.09,2.43,12,12,0,0,0,8.27-8.57c1-4.33-.18-8.94-.55-13.29a160.18,160.18,0,0,1,.2-28c1.85-20.83,7-41.19,12.18-61.4a3.35,3.35,0,0,0,0-1.51,23.39,23.39,0,0,1,5.41-.31C255.21,292.51,255.19,285.15,250.48,284.88Z" transform="translate(-205.33 -206.43)"/><path class="cls-11" d="M293.35,292.24a23.39,23.39,0,0,1,5.41.31,3.5,3.5,0,0,0,0,1.51c5.14,20.21,10.33,40.57,12.19,61.4a161.16,161.16,0,0,1,.19,28c-.37,4.35-1.56,9-.55,13.29a12,12,0,0,0,8.27,8.57A12.27,12.27,0,0,0,330,402.85c3.4-2.75,4.54-6.92,5.42-11a139.24,139.24,0,0,0,3.07-26.61c.32-17.37-2.45-35.4-9-51.54-3.12-7.66-7.32-15.14-13.71-20.55-6.23-5.28-14.11-8.73-22.39-8.26C288.64,285.15,288.62,292.51,293.35,292.24Z" transform="translate(-205.33 -206.43)"/><path class="cls-10" d="M262.63,324.25c-2.67,0-4.68-1.47-6.3-2.64a8.62,8.62,0,0,0-2.69-1.56,2.3,2.3,0,0,0-2.47,1.37,2.94,2.94,0,1,1-5.55-1.94,8.2,8.2,0,0,1,9.31-5.17,13.12,13.12,0,0,1,4.86,2.53c1.09.79,2.1,1.52,2.88,1.52a6.51,6.51,0,0,0,2.79-1.54l.36-.26c1.76-1.3,4.46-2.93,7.53-2.07a9,9,0,0,1,3.4,2c.27.22.54.44.82.63a4.23,4.23,0,0,0,4.12.25,12.33,12.33,0,0,0,1.6-1.09,14.34,14.34,0,0,1,3-1.9A9.1,9.1,0,0,1,298,319a2.94,2.94,0,1,1-5.39,2.35,3.23,3.23,0,0,0-3.92-1.55,9.74,9.74,0,0,0-1.8,1.19,17.49,17.49,0,0,1-2.46,1.63,10.08,10.08,0,0,1-10.12-.6c-.43-.29-.84-.62-1.24-1a5.27,5.27,0,0,0-1.24-.86c-.16,0-.81-.09-2.49,1.14l-.33.25c-1.57,1.17-3.53,2.62-6.14,2.69Z" transform="translate(-205.33 -206.43)"/><path class="cls-10" d="M240.09,391a.35.35,0,0,1-.33-.2L238,387.4a.36.36,0,0,1,.17-.49.37.37,0,0,1,.49.16l1.72,3.44a.37.37,0,0,1-.17.49A.32.32,0,0,1,240.09,391Z" transform="translate(-205.33 -206.43)"/><path class="cls-10" d="M247.72,393.09a.37.37,0,0,1-.36-.31L247,390a.37.37,0,0,1,.31-.42.37.37,0,0,1,.42.31l.41,2.74a.37.37,0,0,1-.31.42Z" transform="translate(-205.33 -206.43)"/><path class="cls-10" d="M255.72,393.79h0a.36.36,0,0,1-.34-.39l.17-2.75a.37.37,0,1,1,.73.05l-.17,2.75A.36.36,0,0,1,255.72,393.79Z" transform="translate(-205.33 -206.43)"/><path class="cls-10" d="M264.66,394a.37.37,0,0,1-.37-.37v-2.06a.37.37,0,0,1,.74,0v2.06A.37.37,0,0,1,264.66,394Z" transform="translate(-205.33 -206.43)"/><path class="cls-10" d="M273.12,394h0a.37.37,0,0,1-.34-.39l.16-2.23a.35.35,0,0,1,.39-.34.36.36,0,0,1,.34.39l-.16,2.23A.36.36,0,0,1,273.12,394Z" transform="translate(-205.33 -206.43)"/><path class="cls-10" d="M231.89,387.38a.36.36,0,0,1-.36-.3,158.7,158.7,0,0,1,9.32-86,.37.37,0,1,1,.68.28,158,158,0,0,0-9.28,85.6.37.37,0,0,1-.3.43Z" transform="translate(-205.33 -206.43)"/><path class="cls-10" d="M272.28,302.47c-.75,0-1.48,0-2.21-.1A21,21,0,0,1,258.9,298a31.85,31.85,0,0,1-6.84-8.52.36.36,0,1,1,.62-.38,31.43,31.43,0,0,0,6.68,8.33,20.32,20.32,0,0,0,10.78,4.24A26.39,26.39,0,0,0,281.72,300c6-2.22,10.36-6.2,11.93-10.91a.37.37,0,1,1,.69.24c-1.64,4.92-6.14,9.06-12.36,11.36A28.15,28.15,0,0,1,272.28,302.47Z" transform="translate(-205.33 -206.43)"/><path class="cls-10" d="M310.14,387.38h-.07a.36.36,0,0,1-.29-.43,158.08,158.08,0,0,0-9.28-85.6.37.37,0,0,1,.68-.28,158.7,158.7,0,0,1,9.32,86A.36.36,0,0,1,310.14,387.38Z" transform="translate(-205.33 -206.43)"/><path class="cls-12" d="M342.15,331.8l-6.65,1.8a139.65,139.65,0,0,1,3,31.63,138.09,138.09,0,0,1-2.58,24l16.32-2.61C353.29,379.64,342.15,331.8,342.15,331.8Z" transform="translate(-205.33 -206.43)"/><path class="cls-13" d="M302.38,393.35c.37-2.15.73-4.29,1-6.47.48-4.35.94-8.71,1.3-13.07.41-4.92.55-9.86.56-14.8,0-5.65,0-11.34-1.13-16.9V342c-12.3,3.31-24.67,6.63-29.55,7.9a2.71,2.71,0,0,0-2,2.79A168.48,168.48,0,0,0,281.4,398l20.77-3.32A5.89,5.89,0,0,1,302.38,393.35Z" transform="translate(-205.33 -206.43)"/><path class="cls-12" d="M309.55,391.45c.37-2.15.73-4.29,1-6.47.55-5,1.07-9.94,1.45-14.93s.42-10.07.41-15.12a77.18,77.18,0,0,0-1.12-14.72.17.17,0,0,1,0-.07c-15.69,4.23-31.52,8.47-31.71,8.43a173.33,173.33,0,0,0,9.37,48.19l20.41-3.27A16.13,16.13,0,0,1,309.55,391.45Z" transform="translate(-205.33 -206.43)"/><path class="cls-13" d="M301,381.9h0a3.35,3.35,0,0,1-4-2.49l-4.09-17.36a3.35,3.35,0,0,1,2.49-4h0a3.36,3.36,0,0,1,4,2.49l4.09,17.37A3.34,3.34,0,0,1,301,381.9Z" transform="translate(-205.33 -206.43)"/><path class="cls-5" d="M285.32,276.79c-1.11-2.33-3.76-1.85-5.85-1.78-6.34.24-12.69.71-19,1.37a1.22,1.22,0,0,0-2.44.09c.23,9,8.59,16.28,17.14,14a14.72,14.72,0,0,0,9.46-7.75l.23-.48C285.57,280.61,286.15,278.51,285.32,276.79Z" transform="translate(-205.33 -206.43)"/><path class="cls-6" d="M284.83,282.29c-11.11,6.83-21.25-.7-21.68-1,13.9,5,22.17-4.47,22.17-4.47C286.15,278.51,285.57,280.61,284.83,282.29Z" transform="translate(-205.33 -206.43)"/><path class="cls-9" d="M239.4,256.29c-3.11-8-3.62-16.83-2.8-25.38.37-3.85,1.09-7.9,3.67-10.83s7.58-4.11,10.5-1.52c2.67-5.53,8.85-8.86,14.53-10.72,14.16-4.66,30,2.57,35.15,16.43,2.89,7.74,2.82,16.25,1.7,24.41s-3.63,17-10.09,22.41c-4.8,4.05-11.26,5.79-17.59,6-5.81.19-13.45-.17-18.88-2.38-4.86-2-9.08-6.34-12-10.52A37.51,37.51,0,0,1,239.4,256.29Z" transform="translate(-205.33 -206.43)"/><path class="cls-5" d="M298,248a34.85,34.85,0,0,0-5.57-18.45c-8.53-12.82-34.47-12.39-42.93.68-3.38,5.21-3.9,11.69-4.08,17.73-.24,8.1.83,16.44,5.34,23.36a26.51,26.51,0,0,0,13.43,10.33,20.76,20.76,0,0,0,9.27,1.45,21,21,0,0,0,8.16-3.16C292.7,273.32,298.34,260.63,298,248Z" transform="translate(-205.33 -206.43)"/><path class="cls-14" d="M273.37,262.69a1,1,0,0,1-.67-.24.32.32,0,0,1-.06-.46.35.35,0,0,1,.47-.06.47.47,0,0,0,.49.05,1,1,0,0,0,.63-.74,3.28,3.28,0,0,0-.48-1.84l-.06-.13a18.4,18.4,0,0,1-1.44-11,.32.32,0,0,1,.38-.26.33.33,0,0,1,.27.38A17.72,17.72,0,0,0,274.29,259l.06.13a3.81,3.81,0,0,1,.53,2.23,1.71,1.71,0,0,1-1,1.25A1.31,1.31,0,0,1,273.37,262.69Z" transform="translate(-205.33 -206.43)"/><path class="cls-9" d="M263.18,249.3a9.13,9.13,0,0,0-.29-1.56,1,1,0,0,0-.18-.48,1,1,0,0,0-.34-.38.87.87,0,0,0-.47-.21,1.06,1.06,0,0,0-.53,0,1.41,1.41,0,0,0-.86.52l-.17.3a1.44,1.44,0,0,0-.08.71,8.25,8.25,0,0,1,.29,1.56,1,1,0,0,0,.19.48,1.1,1.1,0,0,0,.33.38.87.87,0,0,0,.48.21,1.06,1.06,0,0,0,.53,0,1.36,1.36,0,0,0,.85-.52l.17-.3A1.33,1.33,0,0,0,263.18,249.3Z" transform="translate(-205.33 -206.43)"/><path class="cls-9" d="M264.88,242.47A9.44,9.44,0,0,0,259,241.1a9.17,9.17,0,0,0-5,2.2,1.33,1.33,0,0,0,1.67,2.08,6.54,6.54,0,0,1,7.65-.78,1.36,1.36,0,0,0,1.86-.27A1.34,1.34,0,0,0,264.88,242.47Z" transform="translate(-205.33 -206.43)"/><path class="cls-9" d="M284.49,247.41a1,1,0,0,0-.05-.52,1.17,1.17,0,0,0-.23-.46,1.52,1.52,0,0,0-.89-.49,1.33,1.33,0,0,0-1,.29,1.31,1.31,0,0,0-.49.89l-.09,1.52a.92.92,0,0,0,.06.52,1,1,0,0,0,.22.46,1,1,0,0,0,.4.32,1,1,0,0,0,.5.17,1.34,1.34,0,0,0,1-.28,1.39,1.39,0,0,0,.5-.9C284.43,248.43,284.46,247.92,284.49,247.41Z" transform="translate(-205.33 -206.43)"/><path class="cls-9" d="M288.4,241.26a10.59,10.59,0,0,0-10.32,1.22,1.33,1.33,0,0,0,1.67,2.08,6.75,6.75,0,0,1,1.77-1l.51-.18h.06l.26-.06a9.08,9.08,0,0,1,1.14-.2,4.93,4.93,0,0,1,.54,0h.32c.36,0,.72,0,1.08.08l.53.09.22.05.16,0a9.9,9.9,0,0,1,1.08.39,1.33,1.33,0,1,0,1-2.47Z" transform="translate(-205.33 -206.43)"/><path class="cls-15" d="M289.61,253.87a4.38,4.38,0,0,0-3.12-.8,4.33,4.33,0,0,0-2.8,1.52,1.36,1.36,0,0,0-.25,1,1.32,1.32,0,0,0,2.33.62l0,0a2.31,2.31,0,0,1,.39-.31,3,3,0,0,1,.41-.18,2,2,0,0,1,1,0l.4.16.12.08a1.33,1.33,0,1,0,1.59-2.13Z" transform="translate(-205.33 -206.43)"/><path class="cls-15" d="M259.34,254.75a4.59,4.59,0,0,0-3.53-1,4.68,4.68,0,0,0-3,1.74,1.34,1.34,0,0,0,.28,1.86,1.36,1.36,0,0,0,1.86-.27l.09-.11-.05,0,.05,0,0,0c0-.05.1-.09.07-.06l.09-.07.22-.16.09-.05.28-.13.06,0a4,4,0,0,1,.48-.07,3.45,3.45,0,0,1,.55.07l.47.17.07.05.3.22a1.33,1.33,0,0,0,1.86-.27A1.37,1.37,0,0,0,259.34,254.75Z" transform="translate(-205.33 -206.43)"/><path class="cls-15" d="M255.06,257l.09-.09-.09.09Z" transform="translate(-205.33 -206.43)"/><path class="cls-16" d="M280.35,267.16A3.73,3.73,0,0,0,278,267a48.4,48.4,0,0,1-5.28.24,38.6,38.6,0,0,0-5.48-.07,1.74,1.74,0,0,0-1.49,1,3,3,0,0,0,.18,2.28,6.39,6.39,0,0,0,.58,1,8,8,0,0,0,10.27,2.38,9.77,9.77,0,0,0,3-2.56L280,271a4.71,4.71,0,0,0,1.09-2.7A1.39,1.39,0,0,0,280.35,267.16Z" transform="translate(-205.33 -206.43)"/><path class="cls-17" d="M279.79,271.31a9.77,9.77,0,0,1-3,2.56,8,8,0,0,1-10.27-2.38A12.44,12.44,0,0,1,279.79,271.31Z" transform="translate(-205.33 -206.43)"/><path class="cls-18" d="M281.09,268.33a67.23,67.23,0,0,1-8.52.57c-2.18,0-4.73.16-6.83-.71a1.74,1.74,0,0,1,1.49-1,38.6,38.6,0,0,1,5.48.07A48.4,48.4,0,0,0,278,267a3.73,3.73,0,0,1,2.36.17A1.39,1.39,0,0,1,281.09,268.33Z" transform="translate(-205.33 -206.43)"/><path class="cls-5" d="M293.79,265.24a10.89,10.89,0,0,0,6.11-2.46,11.49,11.49,0,0,0,3.47-5.07c.78-2.27,1.45-4.83.85-7.22a5,5,0,0,0-4.66-3.85c-2.32,0-4,1.65-5.37,3.34a2,2,0,0,0,.21,2.81,2.08,2.08,0,0,0,.65.36c-.24.94-.4,1.88-.58,2.63a24.59,24.59,0,0,1-2.62,6.59A2,2,0,0,0,293.79,265.24Z" transform="translate(-205.33 -206.43)"/><path class="cls-14" d="M296.41,261.24a1.68,1.68,0,0,1-1.56-2.36,3.16,3.16,0,0,1,1.53-1.35c.6-.34,1.12-.63,1.22-1.15a2.09,2.09,0,0,0-.42-1.34,5.12,5.12,0,0,1-.27-.52,3.2,3.2,0,0,1-.06-2.67,2.49,2.49,0,0,1,2.27-1.44,2,2,0,0,1,1.94,1.86.32.32,0,0,1-.31.34.32.32,0,0,1-.35-.31,1.39,1.39,0,0,0-1.31-1.23,1.78,1.78,0,0,0-1.64,1.06,2.52,2.52,0,0,0,.06,2.11c.07.16.16.32.25.48a2.65,2.65,0,0,1,.49,1.78c-.16.83-.9,1.24-1.55,1.61a2.66,2.66,0,0,0-1.24,1,1,1,0,0,0,.23,1.15,1.07,1.07,0,0,0,1.16.18.32.32,0,0,1,.44.15.33.33,0,0,1-.15.44A1.57,1.57,0,0,1,296.41,261.24Z" transform="translate(-205.33 -206.43)"/><path class="cls-5" d="M249.84,262.86a24.62,24.62,0,0,1-2.05-6.79c-.11-.77-.19-1.72-.35-2.67a1.91,1.91,0,0,0,.68-.31,2,2,0,0,0,.45-2.78c-1.19-1.8-2.75-3.62-5.06-3.8a5,5,0,0,0-5,3.44c-.8,2.33-.35,4.94.23,7.27a11.54,11.54,0,0,0,3,5.35,10.91,10.91,0,0,0,5.88,3A2,2,0,0,0,249.84,262.86Z" transform="translate(-205.33 -206.43)"/><path class="cls-14" d="M245.54,261.34a1.63,1.63,0,0,1-.86-.23.34.34,0,0,1-.12-.46.35.35,0,0,1,.46-.11,1.06,1.06,0,0,0,1.17-.08,1,1,0,0,0,.32-1.12,2.62,2.62,0,0,0-1.14-1.15,2,2,0,0,1-.76-3.46l.29-.46a2.48,2.48,0,0,0,.24-2.09A1.81,1.81,0,0,0,243.6,251a1.37,1.37,0,0,0-1.41,1.11.35.35,0,0,1-.37.29.34.34,0,0,1-.29-.38,2.11,2.11,0,0,1,2.1-1.68,2.46,2.46,0,0,1,2.13,1.64,3.17,3.17,0,0,1-.28,2.65c-.1.17-.21.33-.33.5a2.17,2.17,0,0,0-.53,1.29c.06.53.55.87,1.12,1.25a3.18,3.18,0,0,1,1.4,1.48,1.67,1.67,0,0,1-1.6,2.22Z" transform="translate(-205.33 -206.43)"/><path class="cls-9" d="M245.47,247.12A10.42,10.42,0,0,1,248.9,254c.71,0,4.61-11.19,1.55-22,0,0,7.93,6.88,17.63,3.12-2-.36-3.94-2.63-4.82-4.4,0,0,19.51,2.45,29.23.54,0,0-2.75,12.15,2.35,20.95,0,0,.73-3.74,3.2-5.3,0,0,4.64-24.91-25.77-28.27S245.47,247.12,245.47,247.12Z" transform="translate(-205.33 -206.43)"/></g></g></svg>