<svg xmlns="http://www.w3.org/2000/svg" xmlns:xlink="http://www.w3.org/1999/xlink" viewBox="0 0 297.88 475.68"><defs><style>.cls-1,.cls-18,.cls-7{fill:none;}.cls-12,.cls-2{fill:#f2b37e;}.cls-3{isolation:isolate;}.cls-4{fill:#fef1f1;}.cls-5{clip-path:url(#clip-path);}.cls-6{fill:#f9cbcc;}.cls-7{stroke:#010101;}.cls-18,.cls-7{stroke-linecap:round;stroke-linejoin:round;stroke-width:0.5px;}.cls-8{fill:#f2979a;}.cls-17,.cls-9{fill:#5f4128;}.cls-10{fill:#cc9864;}.cls-11{fill:#cf696a;}.cls-12{opacity:0.7;mix-blend-mode:multiply;}.cls-13{clip-path:url(#clip-path-2);}.cls-14{fill:url(#Degradado_sin_nombre_21);}.cls-15{fill:url(#Degradado_sin_nombre_21-2);}.cls-16{fill:url(#Degradado_sin_nombre_29);}.cls-17{mix-blend-mode:screen;}.cls-18{stroke:#333;}.cls-19{fill:#333;}</style><clipPath id="clip-path" transform="translate(-145.19 -211.08)"><path class="cls-1" d="M358.22,508.44c-7.45,4-15.55,6.76-22.93,10.9-13.18,7.39-23.67,19-37,26.07-13.75,7.34-29.8,9.46-45.37,8.76-16.5-.74-33.13-4.64-47.11-13.42s-25.09-22.8-28.25-39c-1.34-6.84.26-14.53-2-21-2-5.6-7-9.69-11.29-13.56-12.89-11.7-25-27.24-22.78-45.71.51-4.25,1.72-8.38,2.2-12.63,1.92-17.08-8.06-33-12-49.73-1.78-7.64-2.21-17.9,3-24.41,4.8-6,15.75-10.24,22.61-13.52,9.64-4.62,21.39-5.82,30.37-10.53,9.43-4.95,16.49-10.55,27.61-11.77,20.22-2.21,39.64,8.22,59.9,10,9.9.86,19.85-.36,29.78-.14A103.42,103.42,0,0,1,343.19,317c10.05,4.3,18.43,7,29.31,6.68,11.72-.3,23.54-.19,35.06,2.25,7.74,1.65,15.37,4.39,21.77,9s11.49,11.39,13.16,19.13c1.82,8.43-.47,17.14-2.75,25.46l-7.2,26.27a16.4,16.4,0,0,0-.87,6.88c1.21,7.6,11.28,9.58,16.47,15.26a7.1,7.1,0,0,1,2.11,4.54c0,1.95-1.15,3.69-2.27,5.28C438,451.92,423.23,460,407.31,466.38c-12.1,4.86-17.42,11.52-25.32,21.75A75.53,75.53,0,0,1,358.22,508.44Z"/></clipPath><clipPath id="clip-path-2" transform="translate(-145.19 -211.08)"><path class="cls-2" d="M258.07,252.32c-6,22,3.53,48.14,16.48,51.68,18.15,5,43.16-9.58,49.19-31.62s-1.9-45.59-20.05-50.55S264.09,230.28,258.07,252.32Z"/></clipPath><radialGradient id="Degradado_sin_nombre_21" cx="238.06" cy="378.4" r="10.68" gradientTransform="matrix(-0.96, -0.26, -0.26, 0.96, 628.77, -17.92)" gradientUnits="userSpaceOnUse"><stop offset="0" stop-color="#e79474"/><stop offset="1" stop-color="#f2b37e"/></radialGradient><radialGradient id="Degradado_sin_nombre_21-2" cx="279.69" cy="389.64" r="10.68" gradientTransform="matrix(0.22, -0.98, -0.98, -0.22, 574.48, 642.99)" xlink:href="#Degradado_sin_nombre_21"/><linearGradient id="Degradado_sin_nombre_29" x1="267.29" y1="384.8" x2="264.79" y2="375.19" gradientTransform="matrix(-0.96, -0.26, -0.26, 0.96, 628.77, -17.92)" gradientUnits="userSpaceOnUse"><stop offset="0" stop-color="#db8a65"/><stop offset="1" stop-color="#f2b37e"/></linearGradient></defs><g class="cls-3"><g id="Layer_1" data-name="Layer 1"><path class="cls-4" d="M358.22,508.44c-7.45,4-15.55,6.76-22.93,10.9-13.18,7.39-23.67,19-37,26.07-13.75,7.34-29.8,9.46-45.37,8.76-16.5-.74-33.13-4.64-47.11-13.42s-25.09-22.8-28.25-39c-3-15.52,1.23-31.6-.36-47.34-1.65-16.37-9.49-31.39-13.79-47.27A111.59,111.59,0,0,1,161,360.36c2.35-14.5,7.72-28.73,17-40.12s22.71-19.74,37.32-21.34c20.22-2.21,39.64,8.22,59.9,10,9.9.86,19.85-.36,29.78-.14A103.38,103.38,0,0,1,355,323c12.75,7.52,24.2,18.38,29,32.38,3.34,9.72,3.27,20.22,3.57,30.49.57,19.8,1.75,40.66,6.51,59.95,3.89,15.75-2.2,29.57-12.05,42.32A75.53,75.53,0,0,1,358.22,508.44Z" transform="translate(-145.19 -211.08)"/><g class="cls-5"><path class="cls-6" d="M332.72,436.4c11.61-19.61,24.78-38.46,41.1-54.35s36-28.76,57.9-35c-9.79,10.78-15.37,24.71-19.3,38.72S406,414.21,401.35,428c-8.43,25-23.78,47.29-41.7,66.69a379.17,379.17,0,0,1-29.19,28.07c-6.9,6-16.91,18.35-27.32,17.19-16.36-1.82,5.32-54.36,9.11-63.41A328.64,328.64,0,0,1,332.72,436.4Z" transform="translate(-145.19 -211.08)"/><path class="cls-7" d="M431.72,347.06S340.63,429.59,303.14,540" transform="translate(-145.19 -211.08)"/><path class="cls-6" d="M227.41,449c-8-21.32-17.72-42.18-31-60.67s-30.44-34.57-50.94-44.51c7.76,12.31,10.84,27,12.28,41.48s1.38,29.11,3.56,43.5c4,26.12,15.2,50.7,29.48,72.93a380.34,380.34,0,0,0,23.87,32.71c5.75,7.15,13.47,21,23.92,21.68,16.42,1,4.21-54.46,2-64A327.53,327.53,0,0,0,227.41,449Z" transform="translate(-145.19 -211.08)"/><path class="cls-7" d="M145.44,343.83s75.37,97.1,93.11,212.3" transform="translate(-145.19 -211.08)"/><path class="cls-8" d="M321.77,520.69C338,502,355,483.67,375,469.13s43.41-25.27,68.09-27.21c-23.35,5.48-44.3,18.64-62.34,34.45-13,11.41-24.67,24.22-36,37.23-5.64,6.45-11.06,13.16-17,19.38-3.55,3.74-9.52,9.76-15.08,5.22S318.77,524.16,321.77,520.69Z" transform="translate(-145.19 -211.08)"/><path class="cls-8" d="M233.54,551.05c-8.13-23.38-17.16-46.65-30.4-67.56s-31-39.52-53.23-50.43c19.67,13.71,34.29,33.68,45.21,55,7.87,15.41,14,31.62,19.74,47.91,2.86,8.08,5.42,16.31,8.61,24.27,1.92,4.8,5.24,12.6,12.08,10.43S235.05,555.39,233.54,551.05Z" transform="translate(-145.19 -211.08)"/></g><path class="cls-9" d="M304.71,211.11c-9.69-.21-19.55.79-28.5,4.52s-16.92,10.41-20.8,19.29a49.06,49.06,0,0,0-3.2,12.18c-2.47,16-1.5,32.31-1.65,48.5s-1.53,32.79-8.28,47.51c13.35,9.5,30.61,11.09,47,12,18.26,1,37.06,1.39,54.29-4.74,0-3.68,0-7.35,0-11A16.19,16.19,0,0,0,351,348.7c-3.68-11.71-3.31-24.24-2.91-36.5q.6-17.88,1.18-35.75c.31-9.41.61-18.91-1.21-28.15-2.92-14.84-13.33-30.86-28.5-35.19A58.73,58.73,0,0,0,304.71,211.11Z" transform="translate(-145.19 -211.08)"/><path class="cls-2" d="M256.16,658.67a7.64,7.64,0,0,1,2.76,7.94A38.82,38.82,0,0,0,274,663.42c-.06-.4-.13-.8-.2-1.23s-.13-.82-.2-1.24c-1-6.17-2.13-14.1-1.88-17.57.34-4.86.7-9.28,1.06-13.39l-20.69,1.1c.19,2.86.32,5.1.34,6.46.06,3.92,0,7.92-1.2,11.64a14.77,14.77,0,0,1-4.32,6.35l-.89.8a12.79,12.79,0,0,1,1.75-.16A12.94,12.94,0,0,1,256.16,658.67Z" transform="translate(-145.19 -211.08)"/><path class="cls-4" d="M274,663.42a38.82,38.82,0,0,1-15.09,3.19,7.64,7.64,0,0,0-2.76-7.94,12.94,12.94,0,0,0-8.38-2.49,12.79,12.79,0,0,0-1.75.16c-.58.51-1.18,1-1.79,1.52l-1.07.88c-2.15,1.78-6.48,4.13-10.62,6.4s-8.35,4.63-9.58,6.12c-2,2.39-2.68,6,.5,7.52,5,2.41,12.38,2,17.7,1,6.27-1.17,12.28-3.46,18.58-4.52,3.81-.64,15.14-.34,15.11-6.15a16.92,16.92,0,0,0-.21-1.68C274.5,666.43,274.27,665,274,663.42Z" transform="translate(-145.19 -211.08)"/><path class="cls-7" d="M221.48,674.07a3.56,3.56,0,0,0,2.11,2.58c5,2.41,12.38,2,17.7,1,6.28-1.16,12.28-3.45,18.58-4.52,3.52-.59,13.46-.37,14.93-4.93" transform="translate(-145.19 -211.08)"/><path class="cls-7" d="M268.68,655.09a7.78,7.78,0,0,1-3.93,5.21" transform="translate(-145.19 -211.08)"/><path class="cls-2" d="M301.16,663.65a7.61,7.61,0,0,0-3.16,7.78,38.91,38.91,0,0,1-14.91-4c.08-.4.17-.8.26-1.23s.17-.81.26-1.22c1.3-6.11,2.86-14,2.8-17.45-.09-4.87-.23-9.31-.37-13.43l20.61,2.17c-.35,2.85-.58,5.08-.67,6.43-.27,3.91-.45,7.91.58,11.69a14.93,14.93,0,0,0,4,6.57l.85.84a12.79,12.79,0,0,0-1.74-.25A13,13,0,0,0,301.16,663.65Z" transform="translate(-145.19 -211.08)"/><path class="cls-4" d="M283.09,667.47a38.91,38.91,0,0,0,14.91,4,7.61,7.61,0,0,1,3.16-7.78,13,13,0,0,1,8.5-2.06,12.79,12.79,0,0,1,1.74.25c.56.54,1.12,1.07,1.71,1.61l1,.93c2.06,1.9,6.26,4.46,10.28,7s8.1,5,9.25,6.61c1.82,2.49,2.36,6.13-.89,7.48-5.15,2.15-12.47,1.36-17.74.09-6.2-1.49-12.08-4.09-18.31-5.48-3.77-.84-15.11-1.12-14.77-6.92,0-.23.12-.82.29-1.67C282.45,670.44,282.75,669.06,283.09,667.47Z" transform="translate(-145.19 -211.08)"/><path class="cls-7" d="M335,680.82a3.53,3.53,0,0,1-2.23,2.47c-5.15,2.15-12.47,1.36-17.74.09-6.2-1.49-12.08-4.09-18.31-5.47-3.48-.78-13.43-1.08-14.66-5.7" transform="translate(-145.19 -211.08)"/><path class="cls-7" d="M288.85,659.42a7.73,7.73,0,0,0,3.65,5.4" transform="translate(-145.19 -211.08)"/><path class="cls-10" d="M244.22,420c-21.69,42.78-9.44,114.25-9.41,134.6s11.25,98.72,11.25,98.72,4.44,2.82,13.16,4.19a23.94,23.94,0,0,0,15.52-3.07s-.9-84.22-.59-102.22,6.39-74.75,6.39-74.75l-1-53.3Z" transform="translate(-145.19 -211.08)"/><path class="cls-10" d="M307.09,421.24c20.68,43.28,6.75,114.43,6.25,134.78s-4.4,97.53-4.4,97.53-4.23,3.13-12.83,5.12a24,24,0,0,1-15.7-2s-6.45-86-6.34-104-10.27-75-10.27-75l7.85-53.12Z" transform="translate(-145.19 -211.08)"/><path class="cls-7" d="M274.38,564.11c-.21-4.88-.33-8.83-.31-11.39.1-18-10.27-75-10.27-75l-22-8.59" transform="translate(-145.19 -211.08)"/><line class="cls-7" x1="118.61" y1="266.61" x2="96.38" y2="266.04"/><path class="cls-7" d="M312.63,467.54c-9.08-6.67-14.66-18.8-14.21-30.89" transform="translate(-145.19 -211.08)"/><path class="cls-2" d="M268.37,320.86s-9.34,1.78-12.75,4.61-23.46,50.38-23.46,50.38-6.37,11.95,3.31,17.43,17.21-10.84,17.21-10.84l23.83-48.69Z" transform="translate(-145.19 -211.08)"/><path class="cls-11" d="M268.37,320.86s-9.75.78-15.71,5.87-14.47,25.85-14.47,25.85a54.11,54.11,0,0,0,32.51,11.14S291.88,329,268.37,320.86Z" transform="translate(-145.19 -211.08)"/><path class="cls-2" d="M277.49,316.65a17.61,17.61,0,0,0,8-8.7,21.31,21.31,0,0,0,.55-15l21.6-10.51s-5.17,23.79-2.6,31.35a8.2,8.2,0,0,0,2.93,3.76c-4.58,2.63-18.1,10.6-26.77,18.13A46.33,46.33,0,0,1,277.49,316.65Z" transform="translate(-145.19 -211.08)"/><path class="cls-2" d="M308.78,352.26c-1.1-11.29,6.71-25.09,9.73-29.94,3.57,1.16,6.61,2.13,7.26,3.44,1.65,3.3,3.43,16.05-7.21,37.42-.84,1.68-1.66,3.25-2.47,4.74C313.54,365.92,309.67,361.42,308.78,352.26Z" transform="translate(-145.19 -211.08)"/><path class="cls-7" d="M275.33,370.62a21.33,21.33,0,0,0,16.47,10.05" transform="translate(-145.19 -211.08)"/><path class="cls-7" d="M289.54,410.9s-14.73,22.82-31.92,19" transform="translate(-145.19 -211.08)"/><path class="cls-7" d="M246.92,358a15.77,15.77,0,0,1,.36-2.23c1-4.1,5.32-12.92,10-20.7" transform="translate(-145.19 -211.08)"/><path class="cls-12" d="M288.23,309.22a5.58,5.58,0,0,1-2.92-.92c.05-.12.11-.23.16-.35a21.31,21.31,0,0,0,.55-15l21.6-10.51s-1.25,5.75-2.21,12.5C302.48,299.56,295.28,309.55,288.23,309.22Z" transform="translate(-145.19 -211.08)"/><path class="cls-11" d="M322.42,405c-2.58-12.69-6.33-37-6.33-37s-6.42-6.5-7.31-15.66c-1.1-11.29,6.71-25.09,9.73-29.94a49.91,49.91,0,0,1-8.56-3.41,15,15,0,0,1-2-1.32c-4.58,2.63-18.1,10.6-26.77,18.13a46.33,46.33,0,0,1-3.69-19.07c-.47.27-.94.53-1.41.77-2.73,1.41-5.5,2.4-7.71,3.44-5.27,2.46-19.26,27.17-21.09,34.94-1.34,5.65,0,18.48.88,25.05-19.9,3.79-34.73,22.39-36.26,45.09-1.81,26.64,9.31,79.35,9.31,79.35s10,10,40.54,13.76,67-4.72,67-4.72S332.57,454.92,322.42,405Z" transform="translate(-145.19 -211.08)"/><path class="cls-2" d="M320.42,323s10.29,3.29,13.11,11,6.53,57.61,6.53,57.61.3,11.65-8.16,12.64-13-8-14.26-14.85S312,342.62,312,342.62Z" transform="translate(-145.19 -211.08)"/><path class="cls-11" d="M318.51,322.32a23.5,23.5,0,0,1,16.58,11.56c6,10.44,5.82,25.51,5.82,25.51s-10.74,11.17-35,7.11C305.91,366.5,301.18,335,318.51,322.32Z" transform="translate(-145.19 -211.08)"/><path class="cls-7" d="M314.82,367.37a61.67,61.67,0,0,1-8.91-.87,75,75,0,0,1,.86-24" transform="translate(-145.19 -211.08)"/><path class="cls-7" d="M316.15,321.53" transform="translate(-145.19 -211.08)"/><path class="cls-2" d="M258.07,252.32c-6,22,3.53,48.14,16.48,51.68,18.15,5,43.16-9.58,49.19-31.62s-1.9-45.59-20.05-50.55S264.09,230.28,258.07,252.32Z" transform="translate(-145.19 -211.08)"/><g class="cls-13"><path class="cls-14" d="M309.65,287.12A10.68,10.68,0,1,1,302.17,274,10.69,10.69,0,0,1,309.65,287.12Z" transform="translate(-145.19 -211.08)"/><circle class="cls-15" cx="256.23" cy="284.17" r="10.68" transform="matrix(0.04, -1, 1, 0.04, -184.17, 316.52)"/></g><path class="cls-7" d="M284.71,287.15s-2.45,4.06-6.86,4.11a7.47,7.47,0,0,1-6.38-3.34" transform="translate(-145.19 -211.08)"/><path class="cls-9" d="M279,262.87a17.71,17.71,0,0,1,4.14-3.13,9.77,9.77,0,0,1,4.71-1.18,11.55,11.55,0,0,1,4.78,1.16,35.14,35.14,0,0,1,4.56,2.62,14,14,0,0,0-4-3.74,11.79,11.79,0,0,0-2.53-1.21,10.41,10.41,0,0,0-2.84-.46,9.13,9.13,0,0,0-5.38,1.73A10.26,10.26,0,0,0,279,262.87Z" transform="translate(-145.19 -211.08)"/><path class="cls-9" d="M270,262.83a9.66,9.66,0,0,0-2.45-3.24,8.84,8.84,0,0,0-3.69-2,5.57,5.57,0,0,0-2.24-.15,4.62,4.62,0,0,0-2.09.9,5.29,5.29,0,0,0-2,3.62,8.29,8.29,0,0,1,2.73-2.52,4.41,4.41,0,0,1,3.24-.27,11.71,11.71,0,0,1,3.34,1.42A28.84,28.84,0,0,1,270,262.83Z" transform="translate(-145.19 -211.08)"/><path class="cls-7" d="M291.19,270.33a8.13,8.13,0,0,1-10.45.3" transform="translate(-145.19 -211.08)"/><path class="cls-7" d="M270.27,270.56s-3.56,3.95-8.63-.51" transform="translate(-145.19 -211.08)"/><path class="cls-16" d="M271.93,269a6.2,6.2,0,0,1-1.42,6.26c-.92.93-2.17,1.6-2.76,2.78a3.8,3.8,0,0,0,.18,3.44,6.77,6.77,0,0,0,2.53,2.48,5.48,5.48,0,0,0,5.33-2.68c2.11-3.25,1.28-8.33,0-11.54S271.93,269,271.93,269Z" transform="translate(-145.19 -211.08)"/><path class="cls-7" d="M271.93,269a6.2,6.2,0,0,1-1.42,6.26c-.92.93-2.17,1.6-2.76,2.78a3.8,3.8,0,0,0,.18,3.44,6.77,6.77,0,0,0,2.53,2.48" transform="translate(-145.19 -211.08)"/><path class="cls-7" d="M283.24,265.59a14.21,14.21,0,0,1,6.05-.39" transform="translate(-145.19 -211.08)"/><path class="cls-7" d="M267.63,265.42a9.16,9.16,0,0,0-4.78-.67" transform="translate(-145.19 -211.08)"/><path class="cls-9" d="M319.57,231.13c-9.69-11.31-26.22-14.46-39.52-8.71a42.92,42.92,0,0,0-18.39,16,43.75,43.75,0,0,0-5.6,11.34c-.34,1.15-1.16,5.38-1.16,5.38s2.8-3.42,8.89-9.69c5.52-5.68,9.24-6.81,9.24-6.81-.25,8.5,5.75,16.69,13.46,18.38a14.33,14.33,0,0,1-.88-6.9c3.1,5.28,8.37,8.73,13.9,10.61s11.38,2.32,17.17,2.76a46,46,0,0,0,7.19,12c2.45-1.16,3.49-4.27,4.05-7.09C330.5,255.41,327.93,240.88,319.57,231.13Z" transform="translate(-145.19 -211.08)"/><path class="cls-2" d="M318.07,270c-3.75,6-4.64,11.93-.39,14.59s12,1,15.78-5,3.34-13-.91-15.66S321.82,264.05,318.07,270Z" transform="translate(-145.19 -211.08)"/><path class="cls-7" d="M335.32,267.41s-8.36-.44-17.1,12.51" transform="translate(-145.19 -211.08)"/><path class="cls-17" d="M294,230.66c7.82,2.42,15.06,6.38,22.35,10.1s14.8,7.26,22.85,8.73a40.35,40.35,0,0,0,9.12.62c-.1-.6-.19-1.21-.31-1.81a53.32,53.32,0,0,0-5.76-15.53,64.21,64.21,0,0,1-28.06-1.57c-4.12-1.23-8.09-2.93-12.09-4.52-10-4-20.47-7.32-31.15-8.44a38.47,38.47,0,0,0-13.33,12.52A61.56,61.56,0,0,1,294,230.66Z" transform="translate(-145.19 -211.08)"/><path class="cls-2" d="M256.78,367.59c6.49-1,13.53-.2,19.86,1.41,2.22.56,4.62,1.45,5.65,3.49a3.88,3.88,0,0,0,.43.77,2.76,2.76,0,0,0,.82.6c1.82,1.06,2.27,2.33,3.11,4.05.62,1.28,1.08,3.13-.7,3.87.82,1.12-.2,2.81-1.53,3.2a7.18,7.18,0,0,1-4.06-.49,50,50,0,0,0-5.64-1.41,12.57,12.57,0,0,0-3.17-.29c-2.17.14-4.14,1.24-6.2,1.91a36.05,36.05,0,0,1-18,.88c-2.79-.54-7.05-.48-8.93-2.94-1-1.29-2.66-4.6-2.21-6.31-.14-2.59,1.29-3.07,3.56-3.61C245.5,371.35,251,368.5,256.78,367.59Z" transform="translate(-145.19 -211.08)"/><path class="cls-18" d="M282.22,373.89a78.93,78.93,0,0,0-12.58-3.21" transform="translate(-145.19 -211.08)"/><path class="cls-18" d="M285.23,378.22a86.56,86.56,0,0,0-13.94-4.06" transform="translate(-145.19 -211.08)"/><path class="cls-18" d="M285.14,381.86a51.53,51.53,0,0,0-13.59-3.68" transform="translate(-145.19 -211.08)"/><path class="cls-2" d="M299.52,436.37c-4.22,2.83-7.2,6.91-10.73,10.51a40.39,40.39,0,0,1-6.15,5.47,31.37,31.37,0,0,1-6.36,3.48L268.05,459a8.87,8.87,0,0,1-2.67.71,2.94,2.94,0,0,1-2.47-1,10.13,10.13,0,0,1-3,.42,3.39,3.39,0,0,1-2.63-1.36,1.64,1.64,0,0,0-.4-.5,3.28,3.28,0,0,0-.52-.2,1.67,1.67,0,0,1-.95-1.63,4.24,4.24,0,0,1,.63-1.9,1.34,1.34,0,0,1-.48-1.49,3.15,3.15,0,0,1,1.35-1.78,9.49,9.49,0,0,1,2.07-.95l4.16-1.54a22.39,22.39,0,0,0,3.17-1.39,16.48,16.48,0,0,0,4.81-4.53c.63-.82,1.19-1.7,1.88-2.46.41-.46,1-1.08.73-1.78s-1.42-.9-2.27-.75c-3.44.6-6.46,2.82-9.92,3.32a1.74,1.74,0,0,1-1.53-.3c-.65-.66-.05-1.75.55-2.46,2.14-2.52,4.34-5.09,7.21-6.73,4.91-2.82,10.95-4.1,16.45-5.19,3-.59,6-1,8.91-1.77,0,0,16.19-24.33,25.37-31.1,0,0,10.44-12,21.59-1.08,0,0,1.73,7.28-5,16.27S299.52,436.37,299.52,436.37Z" transform="translate(-145.19 -211.08)"/><path class="cls-18" d="M256.36,453.45a49.61,49.61,0,0,0,13-3.77" transform="translate(-145.19 -211.08)"/><path class="cls-18" d="M257.34,457.16a60.93,60.93,0,0,0,14.19-4.94" transform="translate(-145.19 -211.08)"/><path class="cls-18" d="M263.36,458.27a68.65,68.65,0,0,0,10.93-4.06" transform="translate(-145.19 -211.08)"/><path class="cls-18" d="M318.51,392.33a19.17,19.17,0,0,1,8.78-4.36" transform="translate(-145.19 -211.08)"/><path class="cls-9" d="M305.14,301.52c.77,7.72-3.08,15-5.53,22.38a63.63,63.63,0,0,0-2.77,27.67,60,60,0,0,0,16.71,1.06c-.44-5.4-.58-11,1.35-16.05,2.15-5.6,6.61-10,9.41-15.28a28.43,28.43,0,0,0,3.26-14.24" transform="translate(-145.19 -211.08)"/><path class="cls-7" d="M323,323.53c.45-.73.89-1.47,1.29-2.23a28.43,28.43,0,0,0,3.26-14.24" transform="translate(-145.19 -211.08)"/><path class="cls-18" d="M383.41,340.16a7.73,7.73,0,1,1-7.72-7.72A7.72,7.72,0,0,1,383.41,340.16Z" transform="translate(-145.19 -211.08)"/><path class="cls-18" d="M236.12,257.39a7.72,7.72,0,1,1-7.72-7.72A7.72,7.72,0,0,1,236.12,257.39Z" transform="translate(-145.19 -211.08)"/><path class="cls-19" d="M216.69,278.94a2.5,2.5,0,1,1-2.5-2.49A2.5,2.5,0,0,1,216.69,278.94Z" transform="translate(-145.19 -211.08)"/><path class="cls-19" d="M373,307.06a2.5,2.5,0,1,1-2.49-2.49A2.5,2.5,0,0,1,373,307.06Z" transform="translate(-145.19 -211.08)"/></g></g></svg>