<svg id="Layer_1" data-name="Layer 1" xmlns="http://www.w3.org/2000/svg" viewBox="0 0 224.92 488.37"><defs><style>.cls-1{fill:#db8359;}.cls-2{fill:#cd7553;}.cls-3{fill:#f2a083;}.cls-4{fill:#f9bd8e;}.cls-5{fill:#f6dfd4;}.cls-6{fill:#151724;}.cls-10,.cls-19,.cls-7{fill:none;stroke-linecap:round;}.cls-7{stroke:#4f6981;}.cls-10,.cls-7{stroke-linejoin:round;stroke-width:0.43px;}.cls-8{fill:#b1a6a4;}.cls-9{fill:#f8bba0;}.cls-10{stroke:#151724;}.cls-11{fill:#dc2b2b;}.cls-12{fill:#ea5251;}.cls-13{fill:#f4aaba;}.cls-14{fill:#ee99ac;}.cls-15{fill:#f6a208;}.cls-16{fill:#010101;}.cls-17{fill:#6d4921;}.cls-18{fill:#b44a66;}.cls-19{stroke:#f4be54;stroke-miterlimit:10;stroke-width:0.63px;}</style></defs><path class="cls-1" d="M431.76,395.26a.34.34,0,0,0,.34-.3c1.06-12.19,1.5-24.85-5.71-33.91a47.85,47.85,0,0,0-8.78-7.91c-3.42-2.61-7-5.32-9.43-8.84-4.74-6.79-5.46-16.25-2.15-28.13.8-2.86,1.76-5.75,2.69-8.54,2.14-6.43,4.36-13.07,4.74-19.93a39.36,39.36,0,0,0-9.24-27.38c-1.18-1.39-2.49-2.74-3.75-4.05-3.5-3.62-7.11-7.36-8.27-12.15-.84-3.49-.26-7.15.3-10.7a50.54,50.54,0,0,0,.73-6.4c.34-13.06-10.11-24-20.63-29.13-11.51-5.58-25-6.62-36.88-7.54a.33.33,0,0,0-.35.3.32.32,0,0,0,.3.35c11.83.91,25.24,1.95,36.64,7.47,10.33,5,20.6,15.76,20.26,28.53a48,48,0,0,1-.72,6.32c-.57,3.61-1.16,7.34-.29,11,1.2,5,4.88,8.76,8.43,12.44,1.26,1.31,2.56,2.65,3.72,4a38.76,38.76,0,0,1,9.1,26.93c-.38,6.78-2.58,13.38-4.71,19.77-.94,2.8-1.9,5.69-2.7,8.57-3.37,12.07-2.61,21.71,2.24,28.66,2.52,3.61,6.1,6.35,9.57,9a47.27,47.27,0,0,1,8.66,7.79c7.07,8.88,6.63,21.4,5.57,33.47a.34.34,0,0,0,.3.35Z" transform="translate(-207.78 -176.76)"/><path class="cls-1" d="M209.75,385.58l.14,0a.3.3,0,0,0,.16-.41c-3.66-7.8-.43-17,2.93-23.33,1.11-2.1,2.34-4.19,3.54-6.21,3-5.05,6.06-10.26,7.45-16,2-8.1.41-16.52-1.09-24.66-1.44-7.77-2.93-15.81-1.33-23.53a31.59,31.59,0,0,1,12.69-19.14c1.27-.9,2.63-1.72,3.95-2.52a33.29,33.29,0,0,0,7.53-5.58c5-5.43,5.48-13,6-20.3.1-1.44.2-2.87.33-4.28,1.18-12.8,6.12-23.63,13.9-30.48,9.3-8.19,23-10.16,32.58-4.69a.34.34,0,0,0,.45-.11.31.31,0,0,0-.11-.44c-9.83-5.6-23.86-3.59-33.37,4.78-7.89,7-12.91,17.92-14.11,30.89-.13,1.41-.22,2.85-.32,4.29-.49,7.21-1,14.66-5.81,19.92a33.09,33.09,0,0,1-7.39,5.47c-1.33.8-2.7,1.63-4,2.54a32.21,32.21,0,0,0-12.94,19.53c-1.62,7.83-.13,15.93,1.32,23.76,1.49,8.08,3,16.43,1.1,24.4-1.37,5.65-4.43,10.82-7.38,15.82-1.2,2-2.44,4.13-3.56,6.24-3.42,6.46-6.7,15.85-2.94,23.87A.33.33,0,0,0,209.75,385.58Z" transform="translate(-207.78 -176.76)"/><path class="cls-1" d="M414,353.66c-9.29-11.75-12.14-16.92-7.67-38,2.95-14,8.49-37.69-9.59-65-13.05-19.71-18.71-41.76-18.71-41.76L266.1,213.09s-7.58,30-16.49,40.52S218.67,285.09,224.7,309c4.94,19.57-.23,28.71-5.88,40s-11.86,22.91-4.51,48.76a56,56,0,0,0,24.84,12.08c-3-8.72-3.36-17.59.36-24.57,13.9-28.55,23.86-57.21,15.5-89-5.94-23.82,12.94-41.73,32.75-45.15,27.73-4.52,49.65,11.83,73,23,7.81,2.84,18.25,5.74,22,13.73,7.5,14.66-7.4,31.36-1.25,47.3,3.67,10.61,13.93,20.09,17.56,32,4.24,11.95,4,24.41.76,36.55l.38.83A25.06,25.06,0,0,0,423,398.26C425.33,396,424.32,366.69,414,353.66Z" transform="translate(-207.78 -176.76)"/><path class="cls-2" d="M399.07,367.06c-3.63-11.92-13.89-21.4-17.56-32-6.15-15.94,8.75-32.64,1.25-47.3-3.73-8-14.17-10.89-22-13.73-23.37-11.14-45.29-27.49-73-23C268,254.47,249.07,272.38,255,296.2c8.36,31.78-1.6,60.44-15.5,89-3.72,7-3.32,15.85-.36,24.57a57.29,57.29,0,0,0,13.38,1.29l4.37-23.43,5.36,23.75s13.32,8,62.18-.65,57-.51,61.06-8.52-3.84-38-3.84-38l18.17,39.42C403.11,391.47,403.31,379,399.07,367.06Z" transform="translate(-207.78 -176.76)"/><path class="cls-3" d="M341.59,315.92l.37-12.81-31.58,1.22-.83,12.6A138.68,138.68,0,0,0,341.59,315.92Z" transform="translate(-207.78 -176.76)"/><path class="cls-4" d="M364.51,391.16c-2.7-12-2.34-24.37-2.17-36.57.11-7.94-.15-15.89-.79-23.8a4.26,4.26,0,0,1-.19-2.24c-.05-.5-.11-1-.15-1.52-3.58-1.14-6.1-1.7-6.1-1.7l-13.67-4.08.15-5.33a138.68,138.68,0,0,1-32,1l-.26,3.91s-4.24,1.61-8,3.11L299,325c-1.22,16.39-3.35,32.76-10.58,47.37L296.77,401,284,453.19s30.49,23.4,86.68,10.62l-10-48.93Z" transform="translate(-207.78 -176.76)"/><path class="cls-4" d="M343.69,642.63l-8.64-173.06,35-10.92s1.59,134.93-4.48,178.44c0,0,34.08,12,34,18.37s-39.2,1.91-39.2,1.91S336.52,663.54,343.69,642.63Z" transform="translate(-207.78 -176.76)"/><path class="cls-4" d="M287,647.65s-5.13-96.32-7.63-182.44c-.37-12.83,47.25-1.73,47.25-1.73S314.94,598.6,308.87,642.12c0,0,33,11.7,32.88,18.1s-38.07,2.17-38.07,2.17S279.85,668.56,287,647.65Z" transform="translate(-207.78 -176.76)"/><path class="cls-5" d="M330.41,649.74c10.43,4.9,13.61,9.52,13.61,9.52s-.55,1.47-15.17,2.9A19.12,19.12,0,0,1,330.41,649.74Z" transform="translate(-207.78 -176.76)"/><path class="cls-6" d="M286.4,645.5c13.59,7.52,30-.88,30-.88a90.86,90.86,0,0,1,14,5.12,19.12,19.12,0,0,0-1.56,12.42c-3.77.36-8.46.73-14.33,1.07-28.67,1.65-29.77-5.8-29.77-5.8A41.21,41.21,0,0,1,286.4,645.5Z" transform="translate(-207.78 -176.76)"/><path class="cls-5" d="M284.75,657.43a41.63,41.63,0,0,0,.52,4.46s8.22,2.93,30.69,3.22c25.12.31,28.38-2.85,28.38-2.85a7.91,7.91,0,0,0-.32-3C317.31,664,296,660.4,284.75,657.43Z" transform="translate(-207.78 -176.76)"/><path class="cls-7" d="M324.45,647.24a9.15,9.15,0,0,0-4,8.59" transform="translate(-207.78 -176.76)"/><path class="cls-7" d="M319.4,645.51s-3.84,2.24-3.9,8.59" transform="translate(-207.78 -176.76)"/><path class="cls-7" d="M317.48,647.42s3.22-7.21.09-7.36S317.48,647.42,317.48,647.42Z" transform="translate(-207.78 -176.76)"/><path class="cls-7" d="M317.48,647.5s-5-6.11-6.54-3.38S317.48,647.5,317.48,647.5Z" transform="translate(-207.78 -176.76)"/><path class="cls-8" d="M361.61,411.9A139,139,0,0,1,374,470.28c-.14,10.38-6,160.51-6,160.51s-9,2.79-28.61-.36l-6.42-158.9h0l-20.56,163s-19.27,3.65-27.32-1.66c0,0-6.58-96-5.68-167.63.29-23.1,9.42-45.31,16.06-53Z" transform="translate(-207.78 -176.76)"/><path class="cls-9" d="M314.46,549s-21.65,5-22.22-3.35S325.68,541.71,314.46,549Z" transform="translate(-207.78 -176.76)"/><path class="cls-9" d="M366.12,530.11s-14.92,3.93-15.3-2.6S373.86,524.37,366.12,530.11Z" transform="translate(-207.78 -176.76)"/><path class="cls-9" d="M367.66,519.53s-8.74,2.3-9-1.52S372.19,516.17,367.66,519.53Z" transform="translate(-207.78 -176.76)"/><path class="cls-10" d="M350.46,472.65s-23.33.75-39.42-1.51" transform="translate(-207.78 -176.76)"/><path class="cls-10" d="M286.94,631.74s-.27,15.65-3.83-157.4c0,0-2.83-32.72,17.53-61" transform="translate(-207.78 -176.76)"/><line class="cls-10" x1="134.37" y1="452.11" x2="127.28" y2="295.95"/><line class="cls-10" x1="126.58" y1="283.33" x2="127.16" y2="236.99"/><path class="cls-10" d="M287.48,445.17c6.55-3.83,16.73-15.77,17.15-31.8" transform="translate(-207.78 -176.76)"/><path class="cls-10" d="M368.82,442c-6-.91-11.52-17.84-9.72-29" transform="translate(-207.78 -176.76)"/><path class="cls-10" d="M334.42,454.88s-4.4-.05-5.37-9-.9-32.23-.9-32.23" transform="translate(-207.78 -176.76)"/><path class="cls-10" d="M362.72,416.79s-28,3.34-68.19-.86" transform="translate(-207.78 -176.76)"/><path class="cls-6" d="M329.37,415.83a2.15,2.15,0,1,0,2.17-2.12A2.14,2.14,0,0,0,329.37,415.83Z" transform="translate(-207.78 -176.76)"/><path class="cls-5" d="M387.52,644.72c10.43,4.9,13.61,9.52,13.61,9.52s-.54,1.46-15.17,2.89A19.16,19.16,0,0,1,387.52,644.72Z" transform="translate(-207.78 -176.76)"/><path class="cls-6" d="M343.52,640.48c13.59,7.52,30-.88,30-.88a90.7,90.7,0,0,1,14,5.12A19.16,19.16,0,0,0,386,657.13c-3.77.37-8.45.74-14.33,1.08-28.66,1.65-29.76-5.8-29.76-5.8A40.8,40.8,0,0,1,343.52,640.48Z" transform="translate(-207.78 -176.76)"/><path class="cls-5" d="M341.87,652.41a44.23,44.23,0,0,0,.51,4.46s8.22,2.93,30.7,3.22c25.12.31,28.38-2.85,28.38-2.85a8.07,8.07,0,0,0-.33-3C374.42,659,353.14,655.38,341.87,652.41Z" transform="translate(-207.78 -176.76)"/><path class="cls-7" d="M381.56,642.22a9.16,9.16,0,0,0-4,8.59" transform="translate(-207.78 -176.76)"/><path class="cls-7" d="M376.52,640.49s-3.85,2.24-3.91,8.59" transform="translate(-207.78 -176.76)"/><path class="cls-7" d="M374.59,642.4s3.23-7.21.1-7.36S374.59,642.4,374.59,642.4Z" transform="translate(-207.78 -176.76)"/><path class="cls-7" d="M374.59,642.48s-5-6.11-6.53-3.38S374.59,642.48,374.59,642.48Z" transform="translate(-207.78 -176.76)"/><path class="cls-11" d="M367.93,377l-.19.66.18-.66-.18.66-.14.51c0-.48,0-.92-.05-1.32Z" transform="translate(-207.78 -176.76)"/><path class="cls-12" d="M273.39,466" transform="translate(-207.78 -176.76)"/><path class="cls-4" d="M355.2,400.55c.33-5.22-.07-18.24-.57-30.4.2-.39,3.5-43.59,3.69-44,10.23,1.4,22.32,12.66,23.88,22.61,1.09,9.63,1.41,22.43.17,39.76-2.28,31.81-16.95,73.7-16.95,73.7-.43,8.65-2.41,26.92-5.37,27s-2.72-12.68-2.72-12.68-1.45,15.4-4.32,15.3-.69-16.05-.69-16.05-3.29,15.69-6,15.76c-4.6-.07,1.17-18,1.17-18s-6.33,13.81-9.53,12.83,5.38-18.7,5.38-18.7-6.1,6.45-7.22,2.53S346,455.71,346,455.71,354.51,411.48,355.2,400.55Z" transform="translate(-207.78 -176.76)"/><path class="cls-4" d="M295.62,376.27c-7.5-7.49,11.51-54.91,4.5-51.81-1.11.49-21.71,6.66-25.07,9.27-6.68,5.19-17.51,25.13-.33,68.42,11.76,29.65,38.38,65.16,38.38,65.16,3,8.13,10.41,24.95,13.27,24.15s-1.24-12.91-1.24-12.91,6,14.24,8.74,13.28-4.19-15.5-4.19-15.5,7.87,14,10.47,13.21c4.36-1.45-6.53-16.78-6.53-16.78s10.19,11.27,12.95,9.37-10.77-16.22-10.77-16.22,7.76,4.32,7.65.24-13.76-10.92-13.76-10.92-21.49-39.59-25.44-49.8C302.36,400.54,298.81,388,295.62,376.27Z" transform="translate(-207.78 -176.76)"/><path class="cls-3" d="M382.72,354.48a246,246,0,0,1-27.2,5.55c-.47,5.78-.83,10-.89,10.12.21,5,.39,10.11.52,14.78a198.36,198.36,0,0,0,27.68-4.21A222.3,222.3,0,0,0,382.72,354.48Z" transform="translate(-207.78 -176.76)"/><path class="cls-3" d="M295.62,376.27c-2.15-2.15-2.12-7.6-1.14-14.19q-14.49-1-28.94-3.34a83.74,83.74,0,0,0,2.2,21.17c9.85,1.52,19.87,2.89,30,3.92C297,381.33,296.3,378.78,295.62,376.27Z" transform="translate(-207.78 -176.76)"/><path class="cls-13" d="M379.05,340.93s-74.26,12.55-110.48,2.21c0,0-6.64,15.85-2.34,25.47,0,0,15.54,3.61,25.27,2.82,0,0,11.52,41.94,18,42.58s37,1.7,44-.87,8.85-38.76,8.85-38.76,19.58-1.45,20.78-6.85C387,350.21,379.05,340.93,379.05,340.93Z" transform="translate(-207.78 -176.76)"/><path class="cls-14" d="M326,414.8c-5.14-.06-10.27-.26-15.37-.57a.4.4,0,0,1-.36-.41.38.38,0,0,1,.41-.35,310.43,310.43,0,0,0,42.48-.27.36.36,0,0,1,.4.34.38.38,0,0,1-.35.41C344.22,414.63,335.12,414.91,326,414.8Z" transform="translate(-207.78 -176.76)"/><path class="cls-14" d="M321.07,405.63a.41.41,0,0,1-.32-.18.37.37,0,0,1,.12-.52,150.39,150.39,0,0,0,20.49-15.65.38.38,0,0,1,.51.56,150.56,150.56,0,0,1-20.6,15.73A.36.36,0,0,1,321.07,405.63Z" transform="translate(-207.78 -176.76)"/><path class="cls-14" d="M341.05,407a.36.36,0,0,1-.26-.11.37.37,0,0,1,0-.53,57,57,0,0,0,12.94-20.79.38.38,0,0,1,.48-.23.38.38,0,0,1,.23.48,57.67,57.67,0,0,1-13.11,21.07A.39.39,0,0,1,341.05,407Z" transform="translate(-207.78 -176.76)"/><path class="cls-14" d="M293.15,378.31a.38.38,0,0,1-.35-.24,62.7,62.7,0,0,1-3.9-20.36.37.37,0,0,1,.37-.38.39.39,0,0,1,.39.37,61.9,61.9,0,0,0,3.85,20.1.38.38,0,0,1-.23.49A.3.3,0,0,1,293.15,378.31Z" transform="translate(-207.78 -176.76)"/><path class="cls-14" d="M361.87,378.58h0a.38.38,0,0,1-.34-.41,71,71,0,0,0-.16-16.29.37.37,0,0,1,.33-.42.36.36,0,0,1,.42.33,71.27,71.27,0,0,1,.16,16.45A.37.37,0,0,1,361.87,378.58Z" transform="translate(-207.78 -176.76)"/><path class="cls-4" d="M372.12,228.14s-.05,20.52-1.22,44.78c-.94,19.64-17.57,38.1-41.63,38.49-22.6.36-45.57-9.85-51.06-41.8S279,212,308,206.4,365.57,203.39,372.12,228.14Z" transform="translate(-207.78 -176.76)"/><path class="cls-15" d="M339.2,219.82l-.19-.27Z" transform="translate(-207.78 -176.76)"/><path class="cls-4" d="M287.83,283.06l-4.37-18.7s-16.6-7-18.33,10.33S281.58,293.75,287.83,283.06Z" transform="translate(-207.78 -176.76)"/><path class="cls-2" d="M295.49,254.1s-3.63-4.58,4.76-9.67,11.18-3.74,12.37-.93c1.08,2.56-1,6.22-5.72,9C301.19,255.75,297.45,256.73,295.49,254.1Z" transform="translate(-207.78 -176.76)"/><path class="cls-2" d="M362.54,252.13s3.16-4.91-5.69-9.16-11.49-2.63-12.4.28c-.82,2.65,1.57,6.1,6.57,8.36C357,254.32,360.84,254.93,362.54,252.13Z" transform="translate(-207.78 -176.76)"/><path class="cls-16" d="M310.39,265.25c-.12,2.36-1.78,4.2-3.72,4.11s-3.42-2.09-3.31-4.45,1.79-4.21,3.72-4.11S310.5,262.89,310.39,265.25Z" transform="translate(-207.78 -176.76)"/><path class="cls-16" d="M353.19,266.19c-.12,2.36-1.79,4.2-3.73,4.11s-3.41-2.09-3.3-4.45,1.78-4.21,3.72-4.11S353.3,263.83,353.19,266.19Z" transform="translate(-207.78 -176.76)"/><path class="cls-17" d="M281.85,283.77a.23.23,0,0,1-.14,0,.34.34,0,0,1-.15-.46c0-.09,4.15-8.24-1.47-12.4a7.75,7.75,0,0,0-5.93-1.72,9.64,9.64,0,0,0-5.56,3.69.35.35,0,1,1-.57-.39,10.05,10.05,0,0,1,6-4,8.37,8.37,0,0,1,6.46,1.84c6.1,4.51,1.72,13.19,1.68,13.28A.36.36,0,0,1,281.85,283.77Z" transform="translate(-207.78 -176.76)"/><path class="cls-17" d="M273.62,276.56a.35.35,0,0,1-.18-.64c.06,0,6.1-4,10.22.53a.34.34,0,0,1,0,.49.35.35,0,0,1-.49,0c-3.71-4.1-9.25-.46-9.31-.42A.39.39,0,0,1,273.62,276.56Z" transform="translate(-207.78 -176.76)"/><path class="cls-17" d="M332.43,274.9a.37.37,0,0,1-.31-.22.35.35,0,0,1,.2-.45,9.41,9.41,0,0,0,4.22-3.59c1.07-1.91.91-4.86-.33-6.19a2.45,2.45,0,0,0-3-.34l-.18.1c-4.4,2.27-6.28,1.06-7.08-.35-1.46-2.6.88-22.45,1.16-24.71a.35.35,0,0,1,.38-.3.36.36,0,0,1,.31.39c-.74,6.06-2.38,22.24-1.24,24.27.94,1.68,3,1.7,6.15.08l.21-.11a3.14,3.14,0,0,1,3.85.49c1.44,1.56,1.64,4.83.43,7a9.88,9.88,0,0,1-4.58,3.9A.32.32,0,0,1,332.43,274.9Z" transform="translate(-207.78 -176.76)"/><path class="cls-16" d="M335.76,287.44a10.48,10.48,0,0,0,1-3.22,52.84,52.84,0,0,0-16.16-3.64,14.3,14.3,0,0,0,0,3.75A39.9,39.9,0,0,1,335.76,287.44Z" transform="translate(-207.78 -176.76)"/><path class="cls-18" d="M320.67,284.33c.38,2.76,1.74,6.17,6,7,5.31,1,7.85-1.56,9.05-3.89A39.9,39.9,0,0,0,320.67,284.33Z" transform="translate(-207.78 -176.76)"/><path class="cls-4" d="M363.46,282.91l.81-19.18s15-9.94,19.93,6.74S371.59,292.26,363.46,282.91Z" transform="translate(-207.78 -176.76)"/><path class="cls-17" d="M369.47,282.5a.31.31,0,0,0,.13-.06.35.35,0,0,0,.06-.49c-.06-.07-5.62-7.32-.86-12.45a7.71,7.71,0,0,1,5.5-2.79,9.58,9.58,0,0,1,6.15,2.59.35.35,0,0,0,.49,0,.34.34,0,0,0,0-.49,10.16,10.16,0,0,0-6.65-2.79,8.36,8.36,0,0,0-6,3c-5.16,5.58.76,13.28.82,13.36A.34.34,0,0,0,369.47,282.5Z" transform="translate(-207.78 -176.76)"/><path class="cls-17" d="M376.21,273.88a.34.34,0,0,0,.24-.2.35.35,0,0,0-.18-.45c-.07,0-6.74-2.81-9.94,2.42a.35.35,0,0,0,.11.48.34.34,0,0,0,.48-.12c2.89-4.72,9-2.17,9.07-2.14A.33.33,0,0,0,376.21,273.88Z" transform="translate(-207.78 -176.76)"/><path class="cls-3" d="M313.13,283.48c-.82,3.27-6.44,4.68-12.57,3.16S290.14,281.22,291,278s6.44-4.68,12.57-3.15S313.94,280.21,313.13,283.48Z" transform="translate(-207.78 -176.76)"/><path class="cls-3" d="M341.55,284.23c.64,3.31,6.18,5,12.38,3.82s10.7-4.86,10.06-8.17-6.19-5-12.38-3.81S340.91,280.93,341.55,284.23Z" transform="translate(-207.78 -176.76)"/><path class="cls-19" d="M361.93,296.62A9.27,9.27,0,1,0,373,284.21" transform="translate(-207.78 -176.76)"/><path class="cls-19" d="M272.45,283.27a9.27,9.27,0,1,0,14.63,7.93" transform="translate(-207.78 -176.76)"/><path class="cls-1" d="M300.9,195.36s-34.12,3.24-39.18,22.9,2.87,43.16,14.52,44.71c19,2.53,61.4-46,61.4-46,12.38,21.87,39.23,49.39,45,46.67s5.6-44.11-4.5-57.23S332.17,184.05,300.9,195.36Z" transform="translate(-207.78 -176.76)"/><path class="cls-1" d="M298.33,195.81s-8.81-12.05-4.22-13,6.87,9.7,6.87,9.7-.29-18.71,5.38-15.34,2.4,16.7-2.63,18.79" transform="translate(-207.78 -176.76)"/><path class="cls-16" d="M323.07,325.09a49.68,49.68,0,0,1-14.79-2.41,2.42,2.42,0,0,1-1.62-2c0-.86.8-1.48,2.29-1.83a.51.51,0,0,1,.23,1c-.93.22-1.49.55-1.5.88s.59.93.83,1a51.39,51.39,0,0,0,33.5-.88c.13-.13.34-.39.31-.58s-.13-.39-1-.7a.51.51,0,1,1,.34-1c1,.36,1.6.86,1.7,1.5a1.81,1.81,0,0,1-.74,1.58l-.14.08A54.31,54.31,0,0,1,323.07,325.09Z" transform="translate(-207.78 -176.76)"/></svg>